<?xml version="1.0" standalone="no"?>
<!DOCTYPE svg PUBLIC "-//W3C//DTD SVG 20010904//EN"
 "http://www.w3.org/TR/2001/REC-SVG-20010904/DTD/svg10.dtd">
<svg version="1.0" xmlns="http://www.w3.org/2000/svg"
 width="700.000000pt" height="471.000000pt" viewBox="0 0 700.000000 471.000000"
 preserveAspectRatio="xMidYMid meet">

<g transform="translate(0.000000,471.000000) scale(0.100000,-0.100000)"
fill="#000000" stroke="none">
<path d="M2511 4233 c1 -30 4 -37 6 -20 4 24 23 40 23 19 0 -5 7 -17 15 -28
13 -17 14 -15 13 31 0 42 -1 45 -7 20 l-8 -30 -13 28 c-20 40 -30 33 -29 -20z"/>
<path d="M2743 4235 c0 -27 2 -38 4 -22 2 15 2 37 0 50 -2 12 -4 0 -4 -28z"/>
<path d="M2983 4235 c0 -27 2 -38 4 -22 2 15 2 37 0 50 -2 12 -4 0 -4 -28z"/>
<path d="M2604 4231 c0 -21 7 -36 16 -38 10 -3 11 -2 3 4 -6 4 -13 22 -16 38
-4 27 -5 27 -3 -4z"/>
<path d="M2643 4225 c0 -22 2 -30 4 -17 2 12 2 30 0 40 -3 9 -5 -1 -4 -23z"/>
<path d="M2677 4253 c-4 -3 -7 -17 -7 -30 0 -26 26 -41 42 -25 8 8 5 9 -11 5
-18 -4 -21 -1 -21 22 0 22 4 26 20 22 11 -3 18 -1 14 4 -6 11 -28 12 -37 2z"/>
<path d="M2777 4253 c-4 -3 -7 -17 -7 -30 0 -26 26 -41 42 -25 8 8 5 9 -11 5
-12 -3 -21 -1 -21 6 0 6 9 11 20 11 23 0 26 10 8 28 -14 14 -22 15 -31 5z m28
-13 c3 -5 -1 -10 -9 -10 -9 0 -16 5 -16 10 0 6 4 10 9 10 6 0 13 -4 16 -10z"/>
<path d="M2868 4253 c15 -6 16 -53 0 -53 -6 0 -8 -3 -4 -7 4 -5 14 1 21 11 16
21 4 57 -18 55 -9 0 -9 -2 1 -6z"/>
<path d="M2913 4225 c0 -22 2 -30 4 -17 2 12 2 30 0 40 -3 9 -5 -1 -4 -23z"/>
<path d="M2944 4246 c-8 -22 -1 -49 14 -52 7 -1 8 0 2 3 -14 7 -13 50 3 56 9
4 9 6 -1 6 -7 1 -15 -5 -18 -13z"/>
<path d="M3014 4246 c-8 -22 -1 -49 14 -52 7 -1 8 0 2 3 -17 8 -11 23 10 23
23 0 26 10 8 28 -16 16 -27 15 -34 -2z m31 -6 c3 -5 -1 -10 -9 -10 -9 0 -16 5
-16 10 0 6 4 10 9 10 6 0 13 -4 16 -10z"/>
<path d="M2842 4225 c0 -16 2 -22 5 -12 2 9 2 23 0 30 -3 6 -5 -1 -5 -18z"/>
<path d="M2917 4123 c-13 -12 -7 -42 9 -51 15 -9 29 -69 73 -312 10 -58 44
-240 75 -405 30 -165 60 -325 66 -356 18 -96 22 -91 -75 -83 l-85 7 0 -30 0
-30 92 -7 c51 -4 94 -8 95 -10 1 -1 11 -49 23 -106 15 -81 17 -106 7 -112 -6
-4 -48 -8 -93 -8 l-81 0 5 31 c5 34 -8 49 -44 49 -31 0 -50 -63 -21 -73 26 -9
-2 -15 -101 -19 -97 -5 -102 -4 -96 14 4 13 -3 28 -20 45 -14 14 -26 36 -26
49 0 30 -35 51 -56 33 -14 -12 -44 -61 -44 -73 0 -9 56 -63 71 -69 8 -3 -2 -6
-22 -6 -20 -1 -57 -4 -83 -7 l-46 -7 0 -68 c0 -39 4 -69 10 -69 6 0 10 28 10
65 l0 65 63 0 c34 0 172 7 307 15 383 22 580 29 580 19 1 -5 5 -28 9 -51 l8
-42 -28 14 c-33 18 -65 19 -74 4 -4 -6 -19 -7 -38 -3 -44 10 -77 7 -103 -11
-22 -14 -26 -12 -69 25 -67 58 -101 56 -156 -10 -23 -28 -45 -47 -48 -42 -12
18 -51 32 -89 32 -33 0 -45 -6 -66 -31 -14 -17 -26 -41 -26 -54 l0 -23 -52 20
c-62 23 -140 20 -183 -8 -62 -41 -66 -118 -5 -130 20 -5 30 -12 30 -25 0 -10
11 -26 24 -34 23 -15 27 -15 73 9 26 14 52 26 58 26 5 0 17 -15 25 -32 22 -46
57 -68 132 -80 53 -9 80 -9 130 2 35 7 107 15 161 17 89 4 100 2 129 -19 48
-33 95 -30 156 12 28 19 48 38 46 42 -11 17 8 7 29 -15 32 -34 65 -50 93 -43
19 5 26 0 39 -24 20 -38 62 -51 82 -24 8 10 16 29 20 42 3 12 13 22 22 22 19
0 107 45 135 69 18 15 19 15 13 -1 -3 -10 3 -23 16 -35 16 -14 19 -14 9 -1 -9
11 -10 18 -2 23 5 3 10 2 10 -4 0 -5 25 -34 55 -65 31 -31 51 -56 45 -56 -6 0
-8 -5 -4 -12 4 -6 0 -16 -9 -23 -9 -7 -17 -29 -18 -54 -2 -29 -11 -50 -27 -66
-42 -42 0 -61 61 -27 89 48 171 138 215 235 66 142 51 311 -37 443 -35 51 -31
68 15 62 28 -3 29 -5 32 -65 3 -70 22 -87 22 -20 0 29 3 38 9 28 8 -12 14 -13
36 -3 l26 12 -22 40 c-12 21 -41 61 -64 87 -43 48 -43 48 -64 29 l-21 -19 25
-27 c36 -37 32 -50 -15 -50 -29 0 -45 7 -62 24 -34 36 -148 98 -172 93 -17 -3
-15 -5 5 -6 26 -1 45 -24 34 -41 -3 -5 -1 -11 5 -15 5 -3 10 -1 10 4 0 6 6 11
14 11 9 0 12 -8 8 -26 -4 -23 -8 -25 -46 -20 -38 5 -37 4 9 -8 l50 -12 -70 -7
c-38 -4 -158 -11 -265 -17 -107 -6 -209 -12 -226 -14 -17 -2 -35 -1 -41 2 -15
10 -47 167 -45 221 1 25 -3 48 -8 51 -6 4 -17 40 -24 81 -16 86 -91 472 -142
737 -27 141 -33 186 -24 197 6 8 9 24 5 35 -8 26 -43 24 -59 -3 -9 -14 -7 -21
10 -35 17 -13 26 -43 44 -137 12 -66 40 -212 61 -325 36 -184 99 -538 99 -554
0 -4 -62 -5 -137 -4 l-137 3 -17 85 c-10 47 -59 305 -110 573 -72 379 -91 492
-82 506 20 31 -24 70 -50 44z m560 -1329 c6 -32 15 -80 18 -105 l7 -47 -125
-7 c-69 -4 -131 -5 -138 -3 -7 2 -20 43 -30 94 -27 136 -38 123 109 126 70 2
132 3 137 2 6 0 15 -27 22 -60z m664 -161 c9 -10 8 -13 -5 -13 -25 0 -56 -32
-56 -58 0 -14 -4 -21 -11 -16 -7 4 -7 -1 1 -16 8 -15 8 -20 1 -16 -6 4 -11 3
-11 -3 0 -9 -35 9 -85 44 -18 12 -27 11 -83 -16 -35 -16 -65 -29 -68 -29 -2 0
-21 11 -42 24 -20 13 -54 29 -74 36 -50 15 -88 -5 -113 -59 -10 -23 -22 -41
-26 -41 -9 0 -25 50 -34 107 -5 32 -3 44 7 48 16 5 393 22 506 22 57 0 86 -4
93 -14z m-978 -84 c12 -6 28 -18 34 -28 10 -16 6 -18 -53 -17 -35 1 -64 3 -64
5 0 8 43 51 51 51 5 0 19 -5 32 -11z m603 -66 c-3 -8 1 -10 11 -6 14 5 13 2
-3 -20 -16 -23 -24 -26 -52 -22 -23 4 -44 0 -67 -14 -21 -12 -37 -16 -40 -10
-12 18 6 67 36 98 l29 31 45 -22 c27 -13 44 -27 41 -35z m-284 26 c44 -24 93
-101 54 -86 -7 3 -18 1 -23 -4 -5 -5 -23 10 -45 38 -26 33 -33 50 -25 55 15
10 15 10 39 -3z m-105 -7 c9 -5 9 -11 0 -23 -9 -12 -22 -15 -57 -10 l-45 7 30
16 c33 19 54 22 72 10z m-414 -9 c4 -3 -10 -16 -30 -28 -21 -11 -45 -34 -53
-50 l-15 -30 -3 33 c-5 48 21 82 62 82 18 0 36 -3 39 -7z m1005 -5 c-2 -4 5
-13 15 -20 14 -11 15 -19 8 -45 -5 -17 -7 -34 -3 -37 3 -3 0 -6 -6 -6 -5 0
-20 16 -32 35 -12 19 -28 35 -36 35 -11 0 -11 5 -2 25 8 19 18 25 35 23 13 -2
22 -6 21 -10z m-785 -33 c-3 -17 -27 -17 -48 0 -19 15 -18 15 15 13 19 -2 34
-7 33 -13z m-188 -22 c-4 -10 -10 -27 -13 -38 -11 -41 -72 -63 -72 -26 0 34
12 53 44 67 42 18 49 17 41 -3z m450 -14 c11 -17 0 -20 -28 -10 -18 7 -25 15
-21 25 5 12 11 13 24 6 11 -6 22 -15 25 -21z m-334 2 c13 -11 21 -23 16 -27
-9 -9 -54 14 -61 32 -8 20 18 17 45 -5z m732 3 c9 -9 -4 -35 -14 -28 -5 3 -6
-1 -3 -9 3 -8 1 -18 -5 -22 -17 -10 -24 21 -11 44 11 21 22 26 33 15z m-1063
-25 c19 -11 26 -17 15 -14 -56 18 -71 16 -115 -14 -61 -42 -111 -40 -94 2 17
45 134 61 194 26z m525 -25 c22 -29 25 -38 14 -45 -23 -15 -57 -10 -71 10 -7
10 -22 20 -33 22 -17 4 -14 7 15 26 19 13 38 23 41 23 4 0 19 -16 34 -36z
m-236 2 l22 -23 -31 -27 c-39 -32 -50 -33 -50 -2 0 31 17 76 28 76 5 0 19 -11
31 -24z m655 15 c5 -7 -11 -68 -20 -80 -5 -6 -43 42 -44 55 -1 26 51 47 64 25z
m216 -75 c0 -4 -4 -4 -10 -1 -5 3 -7 0 -4 -8 7 -18 -37 -31 -47 -15 -4 7 -6
15 -3 19 2 4 -1 9 -6 11 -7 2 -7 13 0 35 l12 32 29 -33 c16 -19 29 -37 29 -40z
m-1164 40 c20 -11 33 -12 47 -4 15 7 23 6 35 -6 15 -15 13 -16 -18 -16 -46 0
-129 25 -110 33 8 3 16 6 16 6 1 1 14 -5 30 -13z m667 4 c15 0 16 -3 7 -21
-16 -29 -39 -34 -55 -13 -22 29 -19 47 8 40 12 -3 30 -6 40 -6z m-290 -25 c4
-8 -5 -22 -21 -33 -42 -30 -92 -53 -92 -44 0 5 11 14 23 19 13 6 35 25 48 42
27 34 35 37 42 16z m631 -11 c19 -19 22 -84 4 -84 -18 1 -48 25 -48 38 0 11
21 62 26 62 1 0 10 -7 18 -16z m243 -16 c-3 -8 -6 -5 -6 6 -1 11 2 17 5 13 3
-3 4 -12 1 -19z m-799 -6 c2 -7 -2 -10 -12 -6 -9 3 -16 11 -16 16 0 13 23 5
28 -10z m273 -26 c-16 -16 -23 -18 -33 -8 -18 18 19 57 39 40 12 -10 11 -15
-6 -32z m-790 10 c-33 -24 -61 -25 -61 -2 0 21 11 26 54 26 l40 0 -33 -24z
m271 -1 c11 -14 27 -25 36 -26 9 0 12 -3 5 -5 -14 -6 -64 19 -82 40 -11 14
-11 16 4 16 9 0 26 -11 37 -25z m651 5 c4 -15 0 -20 -14 -20 -18 0 -26 20 -12
33 11 12 21 8 26 -13z m-747 -7 c8 -10 23 -28 32 -41 13 -17 32 -26 72 -32
l55 -8 -57 -1 c-73 -1 -134 22 -153 60 -8 15 -15 30 -15 34 0 13 51 3 66 -12z
m292 -12 c17 -11 -9 -33 -43 -37 -31 -3 -31 3 -2 27 25 21 27 22 45 10z m681
-37 c-17 -21 -31 -17 -19 6 6 11 15 18 21 14 6 -4 6 -11 -2 -20z m-584 6 c4
-6 -5 -10 -20 -10 -15 0 -24 4 -20 10 3 6 12 10 20 10 8 0 17 -4 20 -10z m204
-27 c12 -8 -25 -33 -49 -33 -24 0 -60 25 -49 34 28 23 64 23 98 -1z m186 -11
c-8 -8 -25 10 -19 20 4 6 9 5 15 -3 4 -7 6 -15 4 -17z m119 -28 c-14 -48 -13
-48 -39 -18 -14 16 -25 37 -25 46 0 17 2 17 34 1 20 -9 33 -22 30 -29z m406
12 c0 -3 -4 -8 -10 -11 -5 -3 -10 -1 -10 4 0 6 5 11 10 11 6 0 10 -2 10 -4z"/>
<path d="M3821 2616 c-7 -8 -11 -25 -9 -38 2 -19 9 -23 38 -23 33 0 35 2 35
35 0 30 -4 35 -26 38 -14 2 -31 -4 -38 -12z"/>
<path d="M1310 4069 c0 -5 5 -7 10 -4 6 3 10 8 10 11 0 2 -4 4 -10 4 -5 0 -10
-5 -10 -11z"/>
<path d="M1210 4056 c-25 -31 13 -97 40 -70 8 8 4 10 -12 10 -19 -1 -23 4 -23
29 0 24 4 30 22 29 12 0 20 3 17 8 -8 13 -30 9 -44 -6z"/>
<path d="M1573 4025 c0 -27 2 -38 4 -22 2 15 2 37 0 50 -2 12 -4 0 -4 -28z"/>
<path d="M1295 4040 c-3 -5 0 -7 8 -4 15 5 31 -22 21 -37 -8 -13 -22 -11 -27
4 -2 7 -3 6 -3 -3 1 -8 11 -16 24 -16 16 -1 22 4 22 20 0 34 -31 59 -45 36z"/>
<path d="M1361 4001 c1 -25 3 -38 6 -29 2 9 10 15 18 12 18 -7 36 28 25 47 -5
7 -18 15 -30 15 -17 1 -20 -4 -19 -45z m39 14 c0 -26 -14 -33 -25 -15 -9 14 1
40 15 40 5 0 10 -11 10 -25z"/>
<path d="M1437 4043 c-12 -12 -7 -33 7 -33 8 0 18 -5 22 -12 5 -8 0 -9 -14 -6
-12 4 -20 2 -16 -3 7 -13 31 -11 40 2 4 7 -4 20 -17 31 -17 14 -19 18 -6 14
11 -3 16 -2 12 4 -7 12 -19 13 -28 3z"/>
<path d="M1504 4021 c0 -21 7 -36 16 -38 10 -3 11 -2 3 4 -6 4 -13 22 -16 38
-4 27 -5 27 -3 -4z"/>
<path d="M1543 4015 c0 -22 2 -30 4 -17 2 12 2 30 0 40 -3 9 -5 -1 -4 -23z"/>
<path d="M1604 4039 c-5 -8 -3 -9 6 -4 15 9 30 -12 23 -32 -6 -16 -20 -17 -26
0 -2 7 -3 6 -3 -3 1 -8 12 -16 24 -16 20 -1 23 3 20 30 -3 32 -30 48 -44 25z"/>
<path d="M3330 4026 c-25 -31 13 -97 40 -70 8 8 4 10 -12 10 -19 -1 -23 4 -23
29 0 27 3 30 30 28 22 -2 26 0 15 7 -21 14 -36 12 -50 -4z"/>
<path d="M4136 4024 c-8 -21 -7 -66 2 -81 4 -6 7 13 7 43 0 30 -1 54 -1 54 -1
0 -5 -7 -8 -16z"/>
<path d="M4170 3996 c0 -41 2 -46 23 -45 16 1 18 2 5 6 -27 7 -25 73 1 73 22
0 34 -27 26 -56 -3 -12 -1 -10 7 4 15 31 1 56 -36 60 -25 3 -26 1 -26 -42z"/>
<path d="M4261 3993 c1 -40 2 -43 8 -18 l6 29 22 -29 22 -30 0 50 c-1 42 -2
45 -8 20 l-8 -30 -13 28 c-20 40 -30 33 -29 -20z"/>
<path d="M4359 3995 c-9 -25 -13 -45 -8 -45 5 0 9 5 9 10 0 14 33 13 48 -2 7
-7 12 -9 12 -5 0 14 -32 87 -39 87 -3 0 -13 -20 -22 -45z m29 -14 c-15 -5 -19
4 -11 24 6 18 7 18 13 -1 4 -10 3 -21 -2 -23z"/>
<path d="M4445 3985 c0 -29 3 -48 7 -42 4 7 8 26 8 42 0 17 -4 35 -8 42 -4 6
-7 -13 -7 -42z"/>
<path d="M3413 3985 c0 -22 2 -30 4 -17 2 12 2 30 0 40 -3 9 -5 -1 -4 -23z"/>
<path d="M3488 4013 c15 -6 16 -53 0 -53 -6 0 -8 -3 -4 -7 4 -5 14 1 21 11 16
21 4 57 -18 55 -9 0 -9 -2 1 -6z"/>
<path d="M3533 3985 c0 -22 2 -30 4 -17 2 12 2 30 0 40 -3 9 -5 -1 -4 -23z"/>
<path d="M3557 4013 c6 -4 13 -22 16 -38 4 -27 5 -27 3 4 0 21 -7 36 -16 38
-10 3 -11 2 -3 -4z"/>
<path d="M3598 4008 c7 -7 12 -23 13 -37 0 -15 3 -20 6 -13 7 19 -6 62 -19 62
-9 0 -9 -3 0 -12z"/>
<path d="M3644 4006 c-3 -8 -4 -23 -1 -33 3 -12 5 -8 6 10 1 35 31 38 31 2 0
-14 -5 -25 -12 -25 -6 0 -8 -3 -4 -7 14 -15 36 28 25 48 -12 23 -37 25 -45 5z"/>
<path d="M3714 4009 c-4 -7 4 -20 17 -31 l24 -20 -23 5 c-12 3 -20 1 -16 -4 7
-13 31 -11 40 2 4 7 -4 20 -17 31 -17 14 -19 18 -6 14 11 -3 16 -2 12 4 -8 13
-22 13 -31 -1z"/>
<path d="M3784 4009 c-4 -7 4 -20 17 -31 l24 -20 -23 5 c-12 3 -20 1 -16 -4 7
-13 31 -11 40 2 4 7 -4 20 -17 31 -17 14 -19 18 -6 14 11 -3 16 -2 12 4 -8 13
-22 13 -31 -1z"/>
<path d="M3878 4013 c16 -6 16 -56 0 -51 -7 3 -15 15 -19 29 l-7 24 -1 -26
c-1 -33 28 -48 46 -23 14 19 1 55 -20 53 -9 0 -9 -2 1 -6z"/>
<path d="M3923 3985 c0 -22 2 -30 4 -17 2 12 2 30 0 40 -3 9 -5 -1 -4 -23z"/>
<path d="M3947 4013 c6 -4 13 -22 16 -38 4 -27 5 -27 3 4 0 21 -7 36 -16 38
-10 3 -11 2 -3 -4z"/>
<path d="M3994 3985 c6 -19 13 -30 14 -25 6 16 -7 60 -17 60 -4 0 -3 -16 3
-35z"/>
<path d="M4034 4006 c-3 -8 -4 -23 -1 -33 3 -12 5 -8 6 10 1 35 31 38 31 2 0
-14 -5 -25 -12 -25 -6 0 -8 -3 -4 -7 14 -15 36 28 25 48 -12 23 -37 25 -45 5z"/>
<path d="M3462 3985 c0 -16 2 -22 5 -12 2 9 2 23 0 30 -3 6 -5 -1 -5 -18z"/>
<path d="M1670 3975 c-15 -18 -5 -51 18 -57 11 -3 75 -125 185 -353 92 -191
167 -353 167 -359 0 -25 41 -96 55 -96 20 0 19 8 -11 60 -15 25 -103 203 -196
395 -125 258 -167 356 -163 373 10 42 -29 68 -55 37z"/>
<path d="M791 3693 c1 -26 3 -40 6 -31 2 9 14 18 26 20 16 2 22 10 22 28 0 20
-6 26 -27 28 -27 3 -28 2 -27 -45z m44 17 c0 -8 -8 -16 -17 -18 -13 -2 -18 3
-18 18 0 15 5 20 18 18 9 -2 17 -10 17 -18z"/>
<path d="M1103 3695 c0 -27 2 -38 4 -22 2 15 2 37 0 50 -2 12 -4 0 -4 -28z"/>
<path d="M1373 3695 c0 -27 2 -38 4 -22 2 15 2 37 0 50 -2 12 -4 0 -4 -28z"/>
<path d="M1473 3695 c0 -27 2 -38 4 -22 2 15 2 37 0 50 -2 12 -4 0 -4 -28z"/>
<path d="M875 3710 c-4 -6 1 -7 12 -4 17 5 17 4 -1 -10 -23 -18 -15 -45 13
-43 21 1 27 21 15 51 -7 18 -30 21 -39 6z m35 -29 c0 -12 -20 -25 -27 -18 -7
7 6 27 18 27 5 0 9 -4 9 -9z"/>
<path d="M941 3681 c1 -28 3 -30 6 -11 3 14 9 30 14 36 5 7 3 11 -6 11 -11 0
-15 -11 -14 -36z"/>
<path d="M1019 3708 c12 -16 11 -18 -2 -18 -8 0 -18 6 -21 13 -3 6 -4 -1 -3
-17 1 -16 8 -31 15 -32 7 -1 8 0 2 3 -17 8 -11 23 10 23 25 0 26 13 3 31 -16
13 -17 12 -4 -3z"/>
<path d="M1064 3706 c-8 -22 -1 -49 14 -52 7 -1 8 0 2 3 -14 7 -13 50 3 56 9
4 9 6 -1 6 -7 1 -15 -5 -18 -13z"/>
<path d="M1134 3706 c-8 -22 -1 -49 14 -52 7 -1 8 0 2 3 -17 8 -11 23 10 23
23 0 26 10 8 28 -16 16 -27 15 -34 -2z m31 -6 c3 -5 -1 -10 -9 -10 -9 0 -16 5
-16 10 0 6 4 10 9 10 6 0 13 -4 16 -10z"/>
<path d="M1234 3706 c-3 -8 -4 -23 -1 -33 3 -11 5 -7 6 11 1 23 5 27 21 23 11
-3 18 -1 14 4 -8 14 -34 11 -40 -5z"/>
<path d="M1307 3713 c-4 -3 -7 -17 -7 -30 0 -26 26 -41 42 -25 8 8 5 9 -11 5
-12 -3 -21 -1 -21 6 0 6 9 11 20 11 23 0 26 10 8 28 -14 14 -22 15 -31 5z m28
-13 c3 -5 -1 -10 -9 -10 -9 0 -16 5 -16 10 0 6 4 10 9 10 6 0 13 -4 16 -10z"/>
<path d="M1404 3691 c0 -21 7 -36 16 -38 10 -3 11 -2 3 4 -6 4 -13 22 -16 38
-4 27 -5 27 -3 -4z"/>
<path d="M1443 3685 c0 -22 2 -30 4 -17 2 12 2 30 0 40 -3 9 -5 -1 -4 -23z"/>
<path d="M1505 3710 c-3 -5 0 -7 8 -4 15 5 31 -21 22 -36 -3 -5 -1 -11 5 -15
11 -7 14 24 4 49 -7 18 -30 21 -39 6z"/>
<path d="M1571 3681 c1 -28 3 -30 6 -11 3 14 9 30 14 36 5 7 3 11 -6 11 -11 0
-15 -11 -14 -36z"/>
<path d="M1676 3687 c-21 -16 -14 -57 10 -57 14 0 227 -422 241 -478 3 -13 19
-51 35 -84 16 -33 28 -61 26 -63 -15 -13 -67 -33 -72 -28 -3 4 -6 -2 -6 -13
-1 -10 -17 14 -37 55 -20 41 -40 80 -45 85 -24 30 -109 222 -104 239 7 29 -4
47 -29 47 -15 0 -26 -8 -30 -20 -8 -24 1 -40 21 -40 16 0 124 -216 124 -249 0
-10 6 -24 14 -30 8 -7 18 -26 22 -44 3 -17 13 -37 21 -45 12 -12 10 -18 -17
-42 -16 -15 -30 -29 -30 -32 0 -3 12 -13 26 -23 24 -16 27 -16 45 1 10 9 21
15 23 13 1 -2 8 -13 15 -24 10 -18 11 -16 6 12 -6 29 -3 33 37 56 58 34 150
64 226 72 60 7 62 8 62 36 0 27 -2 29 -41 29 -22 0 -77 -9 -121 -21 -44 -11
-81 -19 -82 -17 -1 2 -14 27 -29 55 -15 29 -27 59 -27 67 0 8 -4 16 -10 18 -5
2 -60 106 -120 233 -77 158 -109 237 -105 252 3 13 -1 28 -11 37 -19 19 -16
19 -38 3z"/>
<path d="M1500 3676 c0 -8 4 -17 9 -20 5 -4 7 3 4 14 -6 23 -13 26 -13 6z"/>
<path d="M1260 3660 c-9 -6 -10 -10 -3 -10 6 0 15 5 18 10 8 12 4 12 -15 0z"/>
<path d="M4995 3590 c-114 -27 -125 -32 -125 -54 0 -11 7 -53 15 -91 21 -99
20 -135 -4 -135 -15 0 -21 10 -26 43 -13 88 -27 155 -35 167 -6 9 -31 -1 -99
-40 -51 -30 -88 -57 -84 -63 3 -5 1 -7 -5 -3 -6 3 -26 -1 -45 -10 -32 -15 -36
-22 -51 -91 -9 -40 -16 -83 -16 -94 0 -22 -26 -37 -41 -22 -8 8 2 92 17 145 4
14 -12 10 -80 -21 -47 -22 -140 -59 -208 -82 -68 -24 -126 -48 -130 -53 -4 -6
-8 -25 -8 -42 0 -28 4 -31 49 -43 61 -15 184 -74 230 -108 31 -24 34 -25 43
-8 22 38 142 155 159 155 34 0 20 -26 -56 -105 -41 -43 -75 -83 -75 -88 0 -5
22 -33 48 -62 27 -29 65 -78 85 -108 l37 -55 87 45 c102 51 167 67 162 38 -3
-11 -23 -25 -54 -35 -48 -17 -107 -48 -152 -81 l-22 -15 22 -58 22 -57 58 7
c53 6 59 4 55 -12 -2 -12 -18 -22 -47 -29 l-44 -10 -1 -160 c-1 -163 -5 -184
-61 -327 -5 -13 0 -20 21 -28 87 -33 194 -98 194 -117 0 -26 -24 -23 -73 9
-50 32 -146 78 -165 78 -10 0 -72 -93 -72 -108 0 -5 16 -22 35 -36 19 -15 35
-33 35 -41 0 -29 -22 -25 -62 9 l-42 36 -45 -43 c-63 -60 -109 -93 -194 -138
-39 -21 -66 -39 -58 -39 31 0 304 74 456 124 178 59 352 130 525 213 l115 55
-40 35 c-38 33 -246 143 -292 155 -23 6 -31 32 -15 42 31 19 331 -141 364
-194 11 -18 14 -17 69 11 32 16 60 33 63 38 4 5 -3 25 -14 43 -11 18 -20 39
-20 46 0 24 35 11 56 -21 11 -18 27 -31 36 -31 35 3 228 151 228 175 0 12 -39
29 -165 74 -89 33 -111 49 -80 61 19 8 156 -36 229 -73 56 -28 57 -28 105 54
l30 52 -38 11 c-21 5 -85 15 -142 20 -128 13 -139 16 -139 42 0 17 5 19 38 14
20 -3 84 -11 140 -16 57 -6 115 -16 130 -21 18 -7 28 -6 34 3 12 20 28 81 22
87 -7 7 -138 36 -261 58 -81 14 -93 19 -93 36 0 18 5 19 63 14 34 -3 109 -17
167 -31 142 -35 146 -35 154 12 9 55 7 215 -3 231 -11 17 -100 8 -219 -21 -65
-16 -86 -18 -95 -9 -9 10 -8 16 7 26 24 18 142 45 229 52 l69 6 -7 35 c-4 20
-13 52 -21 73 l-15 37 -43 -13 c-50 -15 -124 -51 -218 -107 -37 -22 -72 -37
-78 -33 -19 12 -10 32 28 57 54 36 244 128 264 128 9 0 19 4 22 8 5 9 -64 115
-112 172 l-29 35 -43 -30 c-24 -16 -72 -62 -108 -103 -61 -67 -90 -84 -99 -56
-5 14 106 134 169 184 l47 38 -56 41 c-30 22 -58 41 -62 41 -3 0 -21 -24 -38
-52 -40 -68 -161 -202 -185 -206 -36 -6 -17 29 62 120 86 99 119 153 102 170
-6 6 -34 18 -64 28 l-53 17 -26 -41 c-14 -22 -38 -72 -54 -111 -34 -83 -39
-90 -59 -82 -13 5 -14 12 -2 49 7 24 30 78 51 120 21 43 36 81 32 84 -11 11
-270 14 -312 4z m87 -15 c2 -3 -3 -44 -12 -92 -12 -63 -21 -89 -32 -91 -27 -5
-28 12 -12 102 13 69 20 86 33 86 10 0 20 -2 23 -5z m-267 -125 c4 -6 -14 -45
-39 -87 -25 -43 -58 -108 -73 -145 -19 -50 -31 -68 -42 -66 -27 6 -15 56 38
163 62 125 97 166 116 135z m181 -115 c15 -39 -44 -133 -162 -257 -48 -51 -61
-57 -70 -33 -4 9 22 47 70 102 41 48 89 113 106 145 32 59 46 70 56 43z m184
-174 c0 -12 -16 -29 -44 -45 -24 -14 -80 -64 -124 -112 -74 -79 -102 -95 -102
-59 0 21 98 129 168 185 67 53 102 64 102 31z m340 -40 c0 -20 4 -20 -139 -37
-24 -3 -74 -14 -112 -24 -68 -17 -87 -14 -76 14 9 22 186 63 280 65 40 1 47
-2 47 -18z m-200 -175 c0 -20 -6 -25 -44 -30 -43 -7 -187 -73 -288 -133 -37
-22 -50 -25 -59 -16 -17 17 0 35 79 80 96 53 138 73 212 99 84 30 100 30 100
0z m314 -122 c89 -17 119 -30 113 -47 -5 -16 -35 -14 -129 6 -42 10 -104 17
-137 17 -63 0 -81 11 -60 36 14 17 80 13 213 -12z m-239 -99 c0 -18 -9 -21
-75 -26 -41 -4 -104 -14 -140 -24 -85 -23 -104 -23 -108 -3 -3 18 49 38 148
57 84 17 102 19 140 17 28 -1 35 -5 35 -21z m-120 -209 c28 -1 74 3 103 8 48
7 52 6 52 -12 0 -30 -89 -46 -205 -38 -49 3 -134 9 -187 13 -89 5 -98 8 -98
26 0 20 4 20 143 12 78 -5 165 -9 192 -9z m-114 -176 c109 -11 227 -44 236
-66 11 -30 -13 -32 -83 -9 -41 14 -117 29 -182 35 -112 10 -162 22 -162 38 0
18 16 23 55 18 22 -3 83 -10 136 -16z m-145 -331 c53 -40 63 -61 33 -67 -19
-3 -113 69 -117 91 -6 29 25 20 84 -24z"/>
<path d="M361 3383 c2 -46 2 -47 9 -13 l7 35 8 -32 c4 -18 11 -33 15 -33 4 0
11 15 15 33 l8 32 7 -35 c7 -34 7 -33 9 13 1 35 -3 47 -11 45 -7 -3 -14 -14
-16 -26 -2 -12 -7 -22 -12 -22 -5 0 -10 10 -12 22 -2 12 -9 23 -15 26 -9 2
-13 -10 -12 -45z"/>
<path d="M641 3390 c-1 -38 2 -46 18 -47 30 -2 45 21 31 47 -6 12 -18 19 -25
16 -8 -3 -16 3 -18 12 -3 9 -5 -3 -6 -28z m39 -15 c0 -26 -14 -33 -25 -15 -9
14 1 40 15 40 5 0 10 -11 10 -25z"/>
<path d="M1073 3385 c0 -27 2 -38 4 -22 2 15 2 37 0 50 -2 12 -4 0 -4 -28z"/>
<path d="M1419 3414 c-3 -20 3 -59 9 -66 4 -4 7 9 6 28 -1 31 -12 60 -15 38z"/>
<path d="M464 3396 c-8 -22 -1 -49 14 -52 7 -1 8 0 2 3 -17 8 -11 23 10 23 11
0 20 4 20 9 0 5 -9 7 -20 4 -22 -6 -28 12 -7 20 9 4 9 6 -1 6 -7 1 -15 -5 -18
-13z"/>
<path d="M533 3375 c0 -22 2 -30 4 -17 2 12 2 30 0 40 -3 9 -5 -1 -4 -23z"/>
<path d="M557 3403 c6 -4 13 -22 16 -38 4 -27 5 -27 3 4 0 21 -7 36 -16 38
-10 3 -11 2 -3 -4z"/>
<path d="M604 3375 c6 -19 13 -30 14 -25 6 16 -7 60 -17 60 -4 0 -3 -16 3 -35z"/>
<path d="M711 3371 c1 -28 3 -30 6 -11 3 14 9 30 14 36 5 7 3 11 -6 11 -11 0
-15 -11 -14 -36z"/>
<path d="M766 3401 c-3 -5 2 -7 13 -4 15 4 19 0 16 -14 -2 -10 -4 -21 -4 -25
-1 -5 -6 -8 -12 -8 -6 0 -9 7 -5 15 3 8 1 15 -5 15 -22 0 -3 -35 19 -36 20 -1
23 3 20 30 -3 30 -29 48 -42 27z"/>
<path d="M831 3371 c1 -35 2 -35 8 -7 9 42 29 44 34 4 l5 -33 -2 35 c-1 29 -5
35 -23 36 -20 1 -23 -3 -22 -35z"/>
<path d="M905 3401 c-3 -6 0 -8 8 -5 15 5 31 -22 21 -37 -9 -15 -27 -10 -20 6
3 8 1 15 -5 15 -22 0 -3 -35 19 -36 20 -1 23 3 20 30 -3 31 -30 48 -43 27z"/>
<path d="M1001 3361 c1 -25 3 -38 6 -29 2 9 10 15 18 12 18 -7 36 28 25 47 -5
7 -18 15 -30 15 -17 1 -20 -4 -19 -45z m39 14 c0 -26 -14 -33 -25 -15 -9 14 1
40 15 40 5 0 10 -11 10 -25z"/>
<path d="M1105 3401 c-3 -6 0 -8 8 -5 15 5 31 -22 21 -37 -9 -15 -27 -10 -20
6 3 8 1 15 -5 15 -22 0 -3 -35 19 -36 20 -1 23 3 20 30 -3 31 -30 48 -43 27z"/>
<path d="M1174 3399 c-4 -7 4 -20 17 -30 32 -24 40 -13 9 13 -16 13 -19 18 -7
14 9 -3 17 -1 17 4 0 14 -27 12 -36 -1z"/>
<path d="M1241 3371 c1 -35 2 -35 8 -7 9 42 29 44 34 4 l5 -33 -2 35 c-1 29
-5 35 -23 36 -20 1 -23 -3 -22 -35z"/>
<path d="M1309 3397 c6 -8 8 -16 5 -20 -3 -3 -1 -14 5 -24 10 -17 10 -16 11 4
0 29 -10 53 -22 53 -7 0 -6 -5 1 -13z"/>
<path d="M1355 3401 c-3 -6 0 -8 8 -5 15 5 31 -21 22 -36 -3 -5 0 -12 6 -15 7
-5 9 4 7 26 -3 34 -29 52 -43 30z"/>
<path d="M1463 3375 c0 -22 2 -30 4 -17 2 12 2 30 0 40 -3 9 -5 -1 -4 -23z"/>
<path d="M1497 3403 c-4 -3 -7 -17 -7 -30 0 -26 26 -41 42 -25 8 8 5 9 -11 5
-18 -4 -21 -1 -21 22 0 22 4 26 20 22 11 -3 18 -1 14 4 -6 11 -28 12 -37 2z"/>
<path d="M1564 3399 c-5 -8 -3 -9 6 -4 15 9 30 -12 23 -32 -6 -16 -20 -17 -26
0 -2 7 -3 6 -3 -3 1 -8 12 -16 24 -16 20 -1 23 3 20 30 -3 32 -30 48 -44 25z"/>
<path d="M1350 3366 c0 -8 4 -17 9 -20 5 -4 7 3 4 14 -6 23 -13 26 -13 6z"/>
<path d="M1177 3349 c7 -7 15 -10 18 -7 3 3 -2 9 -12 12 -14 6 -15 5 -6 -5z"/>
<path d="M3930 3156 l-85 -22 77 -2 c43 -1 83 -3 90 -4 8 -2 14 9 16 25 2 15
0 26 -5 26 -4 -1 -46 -11 -93 -23z"/>
<path d="M1780 3050 c-9 -6 -10 -10 -3 -10 6 0 15 5 18 10 8 12 4 12 -15 0z"/>
<path d="M2312 3028 l3 -32 190 -47 c105 -27 205 -48 223 -49 28 0 32 3 32 25
0 19 -7 26 -27 31 -16 3 -53 12 -83 20 -30 7 -113 27 -185 44 -71 17 -136 33
-143 36 -9 3 -12 -5 -10 -28z"/>
<path d="M3805 2960 c-22 -6 -50 -12 -62 -15 -17 -4 -23 -13 -23 -34 l0 -28
53 9 c28 4 93 8 142 7 86 -2 90 -1 93 21 2 12 0 26 -5 30 -13 13 -155 20 -198
10z"/>
<path d="M2807 2933 c-9 -9 -9 -41 1 -46 4 -3 33 -8 65 -11 l57 -7 0 29 c0 27
-3 30 -46 36 -59 8 -69 8 -77 -1z"/>
<path d="M4048 2912 c-4 -27 -1 -31 45 -47 27 -10 71 -32 97 -50 48 -32 49
-32 66 -14 16 18 16 20 0 38 -17 19 -142 85 -182 96 -18 5 -22 1 -26 -23z"/>
<path d="M3563 2923 c-29 -4 -33 -8 -33 -34 l0 -29 58 6 c78 8 82 10 82 39 0
23 -4 25 -37 23 -21 0 -53 -3 -70 -5z"/>
<path d="M1621 2906 c-9 -11 -9 -16 1 -22 7 -4 10 -4 6 1 -4 4 -3 14 3 22 6 7
9 13 6 13 -2 0 -10 -6 -16 -14z"/>
<path d="M2153 2903 c9 -2 25 -2 35 0 9 3 1 5 -18 5 -19 0 -27 -2 -17 -5z"/>
<path d="M2038 2877 c-27 -12 -46 -27 -43 -34 2 -8 -2 -10 -12 -6 -11 4 -14 2
-9 -5 4 -7 2 -10 -7 -7 -31 13 -149 -142 -181 -238 -4 -13 -12 -16 -33 -11
-16 4 -31 9 -35 13 -11 11 40 124 81 178 l40 52 -24 15 c-30 20 -49 24 -50 11
0 -5 -9 -24 -20 -40 -37 -56 -45 -70 -66 -115 -27 -59 -29 -72 -13 -91 9 -10
12 -27 8 -47 -5 -25 -12 -32 -30 -32 -12 0 -26 -5 -30 -12 -5 -7 -3 -8 6 -3
10 6 11 -2 6 -39 -4 -28 -2 -76 6 -117 l12 -70 31 7 c16 3 31 8 33 9 2 2 -2
30 -8 64 -6 34 -10 82 -9 107 l3 45 35 -3 36 -3 -3 -45 c-6 -89 43 -239 101
-307 56 -66 163 -150 151 -119 -3 8 -1 17 5 21 7 4 8 0 4 -11 -5 -13 -3 -15 7
-9 7 4 2 -11 -10 -33 -13 -23 -29 -42 -35 -42 -22 0 -105 62 -149 111 -24 26
-59 78 -77 114 -32 63 -36 66 -63 60 -16 -3 -32 -7 -34 -10 -6 -5 73 -152 92
-171 8 -7 23 -24 33 -37 26 -32 117 -107 131 -107 23 0 24 -23 1 -53 -13 -18
-35 -53 -49 -78 -56 -101 -185 -278 -205 -281 -31 -5 -28 -52 4 -56 27 -4 43
15 35 40 -6 20 161 263 181 263 7 0 17 4 22 9 4 5 3 6 -4 2 -7 -4 -13 -4 -13
-1 0 12 82 126 88 123 25 -14 90 -41 102 -43 8 -2 15 -4 15 -5 0 -1 11 -3 23
-4 17 -2 26 4 33 21 5 13 9 26 9 27 0 2 -30 13 -67 26 -38 12 -72 26 -77 31
-11 10 27 65 42 62 6 -1 13 4 16 13 4 10 2 13 -7 8 -10 -6 17 32 34 46 3 3 8
13 12 23 4 11 12 15 18 11 7 -4 9 -3 6 4 -11 16 3 42 22 42 9 0 24 9 34 20 9
11 28 20 43 20 33 0 64 17 64 36 0 21 -51 63 -76 64 -12 0 -27 -7 -34 -15 -7
-8 -18 -15 -24 -15 -6 0 -24 -14 -41 -31 -29 -29 -29 -31 -11 -44 18 -14 18
-15 -2 -39 -10 -14 -22 -23 -25 -19 -3 3 -9 -6 -12 -20 -14 -54 -30 -48 -33
11 -1 34 -8 61 -16 67 -8 6 -18 28 -21 48 -4 21 -14 44 -21 52 -17 17 -18 26
-1 20 9 -4 13 19 15 88 1 50 7 94 12 95 6 2 10 21 10 42 0 21 6 41 13 44 10 5
10 7 0 12 -7 3 -13 15 -13 25 0 13 -4 18 -12 13 -7 -4 -8 -3 -4 4 4 6 12 9 20
6 19 -7 36 40 36 98 0 37 5 55 19 67 10 9 26 31 35 49 14 27 22 32 53 32 51 0
38 6 -27 13 -44 4 -65 1 -102 -16z m-2 -213 c-9 -8 -16 -13 -16 -10 0 15 -3
22 -13 35 -10 11 -8 13 11 7 17 -6 22 -3 23 11 1 13 3 12 6 -5 2 -12 -3 -29
-11 -38z m-42 -469 c-4 -8 -10 -12 -15 -9 -11 6 -2 24 11 24 5 0 7 -7 4 -15z
m41 -95 c3 -5 1 -10 -4 -10 -6 0 -11 5 -11 10 0 6 2 10 4 10 3 0 8 -4 11 -10z"/>
<path d="M2412 2803 c-41 -16 -32 -83 11 -83 29 0 47 18 47 47 0 18 -28 46
-42 42 -2 0 -9 -3 -16 -6z"/>
<path d="M1566 2788 c3 -4 9 -8 15 -8 5 0 9 4 9 8 0 5 -7 9 -15 9 -8 0 -12 -4
-9 -9z"/>
<path d="M1543 2768 c-17 -22 -23 -47 -13 -53 6 -4 10 4 10 17 0 13 5 29 12
36 7 7 9 12 6 12 -3 0 -10 -6 -15 -12z"/>
<path d="M3537 2753 c-4 -3 -7 -19 -7 -35 0 -46 62 -60 75 -17 11 34 -4 59
-34 59 -15 0 -31 -3 -34 -7z"/>
<path d="M3840 2740 c-14 -26 -5 -57 20 -65 34 -11 62 12 58 48 -3 28 -7 32
-35 35 -24 2 -34 -2 -43 -18z"/>
<path d="M2070 2686 c0 -19 -6 -36 -12 -39 -7 -2 -9 -8 -5 -13 4 -5 12 -2 17
6 10 16 14 80 5 80 -3 0 -5 -15 -5 -34z"/>
<path d="M1500 2641 c0 -5 -15 -11 -32 -13 -42 -4 -52 -42 -16 -59 18 -8 23
-18 22 -42 -1 -29 -1 -29 3 -3 4 25 8 28 34 24 25 -4 29 -1 29 20 0 14 7 33
16 43 15 16 14 17 -4 13 -10 -3 -26 2 -36 11 -9 9 -16 12 -16 6z"/>
<path d="M2463 2590 c-46 -18 -20 -85 29 -78 27 4 37 50 17 74 -13 16 -15 16
-46 4z"/>
<path d="M4426 2567 c-15 -11 -17 -19 -9 -43 10 -31 29 -40 52 -25 11 7 12 17
5 42 -11 38 -23 44 -48 26z"/>
<path d="M2155 2510 c-15 -17 -16 -24 -7 -45 21 -45 82 -30 82 20 0 47 -42 61
-75 25z"/>
<path d="M1471 2444 c0 -11 3 -14 6 -6 3 7 2 16 -1 19 -3 4 -6 -2 -5 -13z"/>
<path d="M4460 2454 c-12 -4 -15 -25 -16 -107 0 -97 -7 -129 -48 -228 -5 -10
1 -19 18 -27 22 -10 27 -9 36 9 40 73 65 212 55 302 -7 56 -11 60 -45 51z"/>
<path d="M1471 2364 c0 -11 3 -14 6 -6 3 7 2 16 -1 19 -3 4 -6 -2 -5 -13z"/>
<path d="M1500 2307 c0 -9 -3 -24 -6 -34 -5 -15 -4 -15 5 -3 9 13 11 13 11 0
0 -9 10 -16 23 -17 19 -2 20 -1 4 8 -9 6 -15 14 -12 20 4 5 -1 16 -9 25 -14
13 -16 13 -16 1z"/>
<path d="M1595 2280 c3 -5 13 -10 21 -10 8 0 12 5 9 10 -3 6 -13 10 -21 10 -8
0 -12 -4 -9 -10z"/>
<path d="M1605 2210 c-3 -5 -1 -10 4 -10 6 0 11 5 11 10 0 6 -2 10 -4 10 -3 0
-8 -4 -11 -10z"/>
<path d="M2740 2187 c0 -9 -4 -17 -10 -17 -5 0 -10 5 -10 12 0 6 -6 3 -14 -7
-10 -15 -11 -23 -2 -37 14 -24 39 -23 61 2 18 20 18 21 -3 43 -19 18 -22 19
-22 4z"/>
<path d="M1590 2170 c8 -5 22 -9 30 -9 10 0 8 3 -5 9 -27 12 -43 12 -25 0z"/>
<path d="M1536 2142 c-3 -5 1 -9 9 -9 8 0 12 4 9 9 -3 4 -7 8 -9 8 -2 0 -6 -4
-9 -8z"/>
<path d="M2306 2134 c-9 -8 -16 -22 -16 -29 0 -7 7 -21 16 -29 30 -30 74 -13
74 29 0 42 -44 59 -74 29z"/>
<path d="M3102 2138 c-28 -28 -1 -75 37 -63 27 8 36 41 18 60 -13 13 -16 13
-21 -1 -8 -22 -8 -26 4 -19 6 3 10 1 10 -4 0 -14 -17 -14 -25 -1 -4 6 -11 7
-17 4 -6 -4 -6 2 1 15 13 24 11 27 -7 9z"/>
<path d="M5820 2135 c0 -3 77 -94 171 -202 95 -107 173 -205 174 -217 1 -11 3
-25 4 -29 0 -5 13 -7 29 -5 21 2 27 8 27 28 0 19 -6 26 -24 28 -12 2 -37 20
-55 40 -17 19 -35 40 -41 46 -5 6 -35 40 -65 76 -98 116 -204 235 -212 238 -4
2 -8 1 -8 -3z"/>
<path d="M4050 2100 c8 -5 20 -10 25 -10 6 0 3 5 -5 10 -8 5 -19 10 -25 10 -5
0 -3 -5 5 -10z"/>
<path d="M4014 2073 c-17 -13 -22 -36 -13 -61 7 -19 15 -23 41 -20 31 3 33 5
33 43 0 35 -3 40 -25 43 -14 1 -30 -1 -36 -5z"/>
<path d="M1570 2059 c0 -5 5 -7 10 -4 6 3 10 8 10 11 0 2 -4 4 -10 4 -5 0 -10
-5 -10 -11z"/>
<path d="M4347 2035 l-26 -33 24 -16 c13 -9 26 -16 29 -16 5 0 48 72 44 75
-30 24 -45 22 -71 -10z"/>
<path d="M3440 2031 c-16 -31 4 -63 37 -59 34 4 52 32 37 56 -16 26 -60 28
-74 3z"/>
<path d="M1590 2026 c0 -2 8 -10 18 -17 15 -13 16 -12 3 4 -13 16 -21 21 -21
13z"/>
<path d="M2438 2013 c-9 -10 -36 -51 -62 -90 -25 -40 -50 -73 -55 -73 -5 0
-33 5 -61 12 -43 10 -53 9 -61 -3 -19 -30 -10 -48 29 -56 20 -4 40 -6 45 -5
13 4 7 -9 -38 -78 -25 -38 -45 -72 -45 -75 0 -3 -55 -86 -122 -185 -80 -119
-128 -180 -139 -180 -23 0 -32 -15 -24 -40 4 -13 15 -20 31 -20 25 0 26 1 29
40 2 23 215 351 253 389 7 8 32 42 53 77 35 55 43 62 62 55 12 -4 41 -11 64
-15 40 -6 43 -4 49 20 8 31 -2 39 -57 48 -22 3 -39 9 -39 11 0 3 24 40 53 83
30 42 57 83 61 90 11 18 -9 15 -26 -5z"/>
<path d="M3240 2005 c-7 -8 -17 -15 -23 -15 -13 0 -57 -48 -57 -63 0 -7 12
-20 26 -31 25 -18 26 -18 45 3 20 21 30 25 62 21 23 -2 47 18 47 39 0 19 -51
61 -73 61 -8 0 -20 -7 -27 -15z"/>
<path d="M2781 2001 c-7 -5 -13 -21 -13 -36 0 -16 -20 -56 -49 -97 -26 -39
-49 -74 -51 -78 -2 -5 -39 -2 -83 5 -43 8 -80 13 -81 12 -1 -1 -4 -14 -8 -29
-6 -25 -3 -28 31 -34 21 -3 51 -9 66 -13 l28 -6 -42 -60 c-23 -33 -54 -80 -68
-105 -14 -25 -94 -147 -178 -272 -152 -224 -185 -260 -206 -223 -4 8 -13 15
-18 15 -6 0 -4 -7 5 -15 16 -17 11 -48 -7 -42 -7 2 -15 14 -19 28 -6 22 -7 21
-5 -6 2 -23 7 -30 23 -30 12 -1 29 -7 39 -15 22 -19 50 -1 49 31 -1 16 60 115
170 279 94 140 178 262 186 270 8 9 33 43 55 78 45 71 35 69 195 47 147 -20
147 -20 152 14 l4 29 -70 7 c-88 8 -187 23 -193 29 -2 2 17 36 43 75 40 59 53
71 76 71 21 0 29 6 34 25 11 42 -28 69 -65 46z"/>
<path d="M3706 1954 c-21 -20 -20 -37 2 -57 33 -30 72 -15 72 28 0 42 -44 59
-74 29z"/>
<path d="M4250 1928 c-55 -50 -156 -101 -233 -119 -52 -12 -57 -16 -57 -41 0
-33 10 -34 86 -14 80 21 173 71 237 127 55 49 57 52 41 70 -9 11 -20 19 -23
19 -3 -1 -26 -19 -51 -42z"/>
<path d="M1695 1901 c-3 -5 -2 -12 3 -15 5 -3 9 1 9 9 0 17 -3 19 -12 6z"/>
<path d="M4010 1900 c0 -6 7 -10 15 -10 8 0 15 2 15 4 0 2 -7 6 -15 10 -8 3
-15 1 -15 -4z"/>
<path d="M3968 1893 c7 -3 16 -2 19 1 4 3 -2 6 -13 5 -11 0 -14 -3 -6 -6z"/>
<path d="M6261 1753 c1 -27 4 -38 6 -26 2 13 13 24 26 26 l22 4 -22 2 c-13 0
-23 7 -23 15 0 8 10 17 23 19 19 4 18 4 -5 6 -27 1 -28 -1 -27 -46z"/>
<path d="M6470 1759 c0 -38 3 -45 20 -46 27 -2 43 29 26 52 -11 16 -12 14 -8
-15 3 -25 1 -31 -9 -28 -8 3 -15 19 -16 37 -2 50 -13 50 -13 0z"/>
<path d="M3855 1779 c-107 -22 -411 -40 -627 -37 l-227 3 -6 -24 c-4 -15 -1
-27 7 -33 17 -11 575 -2 698 11 52 6 123 16 158 22 59 11 62 13 62 40 0 31 -2
32 -65 18z"/>
<path d="M6333 1745 c0 -22 2 -30 4 -17 2 12 2 30 0 40 -3 9 -5 -1 -4 -23z"/>
<path d="M6361 1741 c1 -35 2 -35 8 -7 9 42 29 44 34 4 l5 -33 -2 35 c-1 29
-5 35 -23 36 -20 1 -23 -3 -22 -35z"/>
<path d="M6428 1768 c7 -7 12 -23 13 -37 0 -15 3 -20 6 -13 7 19 -6 62 -19 62
-9 0 -9 -3 0 -12z"/>
<path d="M6543 1745 c0 -22 2 -30 4 -17 2 12 2 30 0 40 -3 9 -5 -1 -4 -23z"/>
<path d="M6593 1745 c0 -22 2 -30 4 -17 2 12 2 30 0 40 -3 9 -5 -1 -4 -23z"/>
<path d="M6626 1771 c-4 -5 3 -7 14 -4 23 6 26 13 6 13 -8 0 -17 -4 -20 -9z"/>
<path d="M6655 1740 c2 -31 15 -37 15 -7 0 15 -4 27 -8 27 -5 0 -8 -9 -7 -20z"/>
<path d="M6620 1736 c0 -8 4 -17 9 -20 5 -4 7 3 4 14 -6 23 -13 26 -13 6z"/>
<path d="M5430 1593 c1 -4 79 -98 176 -207 96 -110 173 -205 170 -212 -8 -22
19 -47 42 -40 38 12 24 58 -20 67 -9 2 -91 91 -183 196 -163 188 -185 213
-185 196z"/>
<path d="M1061 1493 c1 -26 3 -40 6 -31 2 9 14 18 26 20 16 2 22 10 22 28 0
20 -6 26 -27 28 -27 3 -28 2 -27 -45z m47 20 c-5 -26 -38 -29 -38 -4 0 15 6
21 21 21 14 0 19 -5 17 -17z"/>
<path d="M1143 1495 c0 -27 2 -38 4 -22 2 15 2 37 0 50 -2 12 -4 0 -4 -28z"/>
<path d="M1493 1495 c0 -27 2 -38 4 -22 2 15 2 37 0 50 -2 12 -4 0 -4 -28z"/>
<path d="M1175 1511 c-3 -6 0 -8 8 -5 15 5 31 -21 22 -36 -3 -5 0 -12 6 -15 7
-5 9 4 7 26 -3 34 -29 52 -43 30z"/>
<path d="M1244 1509 c-4 -7 4 -20 17 -31 l24 -20 -23 5 c-12 3 -20 1 -16 -4 7
-13 31 -11 40 2 4 7 -4 20 -17 31 -17 14 -19 18 -6 14 11 -3 16 -2 12 4 -8 13
-22 13 -31 -1z"/>
<path d="M1311 1481 c1 -35 2 -35 8 -7 9 42 29 44 34 4 l5 -33 -2 35 c-1 29
-5 35 -23 36 -20 1 -23 -3 -22 -35z"/>
<path d="M1376 1509 c5 -8 10 -23 11 -33 6 -35 15 -32 11 3 -2 19 -9 37 -17
39 -10 3 -11 0 -5 -9z"/>
<path d="M1423 1485 c0 -22 2 -30 4 -17 2 12 2 30 0 40 -3 9 -5 -1 -4 -23z"/>
<path d="M1454 1506 c-8 -22 -1 -49 14 -52 7 -1 8 0 2 3 -14 7 -13 50 3 56 9
4 9 6 -1 6 -7 1 -15 -5 -18 -13z"/>
<path d="M1523 1485 c0 -22 2 -30 4 -17 2 12 2 30 0 40 -3 9 -5 -1 -4 -23z"/>
<path d="M1578 1513 c16 -6 16 -56 0 -51 -7 3 -15 15 -19 29 l-7 24 -1 -26
c-1 -33 28 -48 46 -23 14 19 1 55 -20 53 -9 0 -9 -2 1 -6z"/>
<path d="M1170 1476 c0 -8 4 -17 9 -20 5 -4 7 3 4 14 -6 23 -13 26 -13 6z"/>
<path d="M1180 1286 c-25 -31 13 -97 40 -70 8 8 4 10 -12 10 -19 -1 -23 4 -23
29 0 27 3 30 30 28 22 -2 26 0 15 7 -21 14 -36 12 -50 -4z"/>
<path d="M1473 1255 c0 -27 2 -38 4 -22 2 15 2 37 0 50 -2 12 -4 0 -4 -28z"/>
<path d="M1289 1284 c-3 -20 3 -59 9 -66 4 -4 7 9 6 28 -1 31 -12 60 -15 38z"/>
<path d="M1263 1245 c0 -22 2 -30 4 -17 2 12 2 30 0 40 -3 9 -5 -1 -4 -23z"/>
<path d="M1343 1273 c-19 -7 -16 -50 4 -57 24 -10 46 21 32 45 -10 19 -15 21
-36 12z m27 -28 c0 -26 -14 -33 -25 -15 -9 14 1 40 15 40 5 0 10 -11 10 -25z"/>
<path d="M1401 1231 c1 -25 3 -38 6 -29 2 9 10 15 18 12 18 -7 36 28 25 47 -5
7 -18 15 -30 15 -17 1 -20 -4 -19 -45z m39 14 c0 -26 -14 -33 -25 -15 -9 14 1
40 15 40 5 0 10 -11 10 -25z"/>
<path d="M1504 1269 c-5 -8 -3 -9 6 -4 15 9 30 -12 23 -32 -6 -16 -20 -17 -26
0 -2 7 -3 6 -3 -3 1 -8 12 -16 24 -16 20 -1 23 3 20 30 -3 32 -30 48 -44 25z"/>
<path d="M1577 1273 c-12 -12 -7 -33 7 -33 8 0 18 -5 22 -12 5 -8 0 -9 -14 -6
-12 4 -20 2 -16 -3 7 -13 31 -11 40 2 4 7 -4 20 -17 31 -17 14 -19 18 -6 14
11 -3 16 -2 12 4 -7 12 -19 13 -28 3z"/>
<path d="M1641 1241 c1 -35 2 -35 8 -7 9 42 29 44 34 4 l5 -33 -2 35 c-1 29
-5 35 -23 36 -20 1 -23 -3 -22 -35z"/>
<path d="M1709 1267 c7 -9 11 -26 8 -37 -3 -11 -1 -20 5 -20 15 0 4 63 -12 68
-13 5 -13 3 -1 -11z"/>
<path d="M1755 1271 c-3 -7 0 -8 9 -5 10 4 16 0 17 -10 3 -29 4 -34 12 -43 5
-4 7 8 5 27 -3 35 -29 53 -43 31z"/>
<path d="M1750 1236 c0 -8 4 -17 8 -20 4 -2 8 4 8 15 0 10 -4 19 -8 19 -4 0
-8 -6 -8 -14z"/>
<path d="M5861 1133 c1 -26 3 -40 6 -31 2 9 14 18 26 20 16 2 22 10 22 28 0
20 -6 26 -27 28 -27 3 -28 2 -27 -45z m49 17 c0 -13 -7 -20 -20 -20 -13 0 -20
7 -20 20 0 13 7 20 20 20 13 0 20 -7 20 -20z"/>
<path d="M5973 1135 c0 -27 2 -38 4 -22 2 15 2 37 0 50 -2 12 -4 0 -4 -28z"/>
<path d="M5943 1125 c0 -22 2 -30 4 -17 2 12 2 30 0 40 -3 9 -5 -1 -4 -23z"/>
<path d="M6004 1131 c0 -21 7 -36 16 -38 10 -3 11 -2 3 4 -6 4 -13 22 -16 38
-4 27 -5 27 -3 -4z"/>
<path d="M6043 1125 c0 -22 2 -30 4 -17 2 12 2 30 0 40 -3 9 -5 -1 -4 -23z"/>
<path d="M6074 1149 c-4 -7 4 -20 17 -30 32 -24 40 -13 9 13 -17 14 -19 18 -7
14 11 -3 16 -2 12 4 -8 13 -22 13 -31 -1z"/>
<path d="M6077 1099 c7 -7 15 -10 18 -7 3 3 -2 9 -12 12 -14 6 -15 5 -6 -5z"/>
<path d="M1501 1053 c1 -27 4 -38 6 -25 2 12 9 22 15 22 5 0 19 -10 29 -22
l20 -23 -11 23 c-8 16 -8 27 -1 36 14 17 -5 36 -36 36 -21 0 -23 -4 -22 -47z
m49 22 c0 -8 -9 -15 -20 -15 -11 0 -20 7 -20 15 0 8 9 15 20 15 11 0 20 -7 20
-15z"/>
<path d="M1621 1059 c-1 -41 1 -46 20 -45 28 1 44 40 24 56 -8 7 -18 9 -24 6
-5 -4 -12 2 -14 11 -3 10 -5 -3 -6 -28z m39 -14 c0 -26 -14 -33 -25 -15 -9 14
1 40 15 40 5 0 10 -11 10 -25z"/>
<path d="M1593 1045 c0 -22 2 -30 4 -17 2 12 2 30 0 40 -3 9 -5 -1 -4 -23z"/>
<path d="M1718 1073 c15 -6 16 -53 0 -53 -6 0 -8 -3 -4 -7 4 -5 14 1 21 11 16
21 4 57 -18 55 -9 0 -9 -2 1 -6z"/>
<path d="M1764 1069 c-4 -7 4 -20 17 -31 l24 -20 -23 5 c-12 3 -20 1 -16 -4 7
-13 31 -11 40 2 4 7 -4 20 -17 31 -17 14 -19 18 -6 14 11 -3 16 -2 12 4 -8 13
-22 13 -31 -1z"/>
<path d="M1834 1068 c-4 -6 0 -16 9 -23 21 -15 22 -29 1 -21 -8 3 -12 2 -9 -4
8 -12 16 -12 35 0 13 9 11 13 -10 31 -17 15 -20 19 -7 15 11 -3 16 -2 12 4 -8
13 -22 13 -31 -2z"/>
<path d="M1928 1073 c16 -6 16 -56 0 -51 -7 3 -15 15 -19 29 l-7 24 -1 -26
c-1 -33 28 -48 46 -23 14 19 1 55 -20 53 -9 0 -9 -2 1 -6z"/>
<path d="M1973 1045 c0 -22 2 -30 4 -17 2 12 2 30 0 40 -3 9 -5 -1 -4 -23z"/>
<path d="M1997 1073 c6 -4 13 -22 16 -38 4 -27 5 -27 3 4 0 21 -7 36 -16 38
-10 3 -11 2 -3 -4z"/>
<path d="M2040 1065 c7 -8 10 -24 7 -35 -3 -11 -1 -20 4 -20 10 0 12 31 3 54
-3 9 -11 16 -16 16 -6 0 -5 -6 2 -15z"/>
<path d="M1692 1045 c0 -16 2 -22 5 -12 2 9 2 23 0 30 -3 6 -5 -1 -5 -18z"/>
<path d="M5045 721 c-3 -5 11 -27 31 -48 119 -125 318 -366 319 -385 0 -32 30
-47 52 -25 21 21 8 50 -24 55 -18 3 -150 147 -315 344 -31 37 -60 64 -63 59z"/>
<path d="M5501 303 c1 -27 4 -38 6 -26 2 13 13 24 26 26 l22 4 -22 2 c-33 2
-29 29 5 34 25 4 25 4 -5 6 -33 1 -33 1 -32 -46z"/>
<path d="M5573 305 c0 -27 2 -38 4 -22 2 15 2 37 0 50 -2 12 -4 0 -4 -28z"/>
<path d="M5813 305 c0 -27 2 -38 4 -22 2 15 2 37 0 50 -2 12 -4 0 -4 -28z"/>
<path d="M5605 320 c-3 -5 0 -7 8 -4 15 5 31 -21 22 -36 -3 -5 -1 -11 5 -15 6
-4 10 6 10 23 0 18 -6 32 -16 36 -21 8 -22 8 -29 -4z"/>
<path d="M5674 316 c-3 -7 -3 -26 -1 -42 3 -21 9 -29 23 -29 16 0 19 8 20 45
l1 45 -4 -42 c-3 -32 -8 -43 -21 -43 -15 0 -15 2 -2 10 10 6 11 10 3 10 -7 0
-13 11 -13 24 0 13 6 27 13 29 9 4 9 6 -1 6 -7 1 -15 -5 -18 -13z"/>
<path d="M5744 316 c-8 -22 -1 -49 14 -52 7 -1 8 0 2 3 -17 8 -11 23 10 23 23
0 26 10 8 28 -16 16 -27 15 -34 -2z m31 -6 c3 -5 -1 -10 -9 -10 -9 0 -16 5
-16 10 0 6 4 10 9 10 6 0 13 -4 16 -10z"/>
<path d="M5868 323 c15 -6 16 -53 0 -53 -6 0 -8 -3 -4 -7 4 -5 14 1 21 11 16
21 4 57 -18 55 -9 0 -9 -2 1 -6z"/>
<path d="M5842 295 c0 -16 2 -22 5 -12 2 9 2 23 0 30 -3 6 -5 -1 -5 -18z"/>
<path d="M5600 286 c0 -8 4 -17 9 -20 5 -4 7 3 4 14 -6 23 -13 26 -13 6z"/>
</g>
</svg>
