<?xml version="1.0" standalone="no"?>
<!DOCTYPE svg PUBLIC "-//W3C//DTD SVG 20010904//EN"
 "http://www.w3.org/TR/2001/REC-SVG-20010904/DTD/svg10.dtd">
<svg version="1.0" xmlns="http://www.w3.org/2000/svg"
 width="600.000000pt" height="484.000000pt" viewBox="0 0 600.000000 484.000000"
 preserveAspectRatio="xMidYMid meet">

<g transform="translate(0.000000,484.000000) scale(0.100000,-0.100000)"
fill="#000000" stroke="none">
<path d="M430 4744 c0 -8 5 -12 10 -9 6 3 10 10 10 16 0 5 -4 9 -10 9 -5 0
-10 -7 -10 -16z"/>
<path d="M1876 4744 c-5 -14 -4 -15 9 -4 17 14 19 20 6 20 -5 0 -12 -7 -15
-16z"/>
<path d="M140 4685 c0 -37 4 -65 10 -65 6 0 10 11 10 25 0 33 19 32 46 -2 12
-16 26 -25 30 -21 4 5 -1 17 -10 27 -16 18 -16 21 -1 44 15 23 15 26 0 41 -9
9 -32 16 -51 16 l-34 0 0 -65z m70 25 c0 -5 -11 -10 -25 -10 -14 0 -25 5 -25
10 0 6 11 10 25 10 14 0 25 -4 25 -10z"/>
<path d="M691 4683 c2 -70 6 -63 11 20 2 26 0 47 -4 47 -5 0 -7 -30 -7 -67z"/>
<path d="M1170 4729 c0 -16 -4 -19 -20 -14 -28 9 -50 -11 -50 -45 0 -34 16
-47 58 -47 l32 0 0 64 c0 35 -4 63 -10 63 -5 0 -10 -9 -10 -21z m-6 -44 c8
-21 -3 -45 -20 -45 -8 0 -17 7 -20 15 -8 21 2 45 20 45 7 0 16 -7 20 -15z"/>
<path d="M1440 4687 c0 -37 3 -67 8 -67 8 0 7 118 -2 127 -3 4 -6 -24 -6 -60z"/>
<path d="M367 4728 c-7 -20 7 -101 18 -105 8 -2 12 62 6 110 -2 12 -18 8 -24
-5z"/>
<path d="M1947 4728 c-7 -20 7 -101 18 -105 8 -2 12 62 6 110 -2 12 -18 8 -24
-5z"/>
<path d="M278 4709 c-25 -14 -24 -65 2 -79 14 -8 26 -8 40 0 29 15 25 20 -10
14 -19 -4 -30 -2 -30 5 0 6 14 11 30 11 34 0 40 19 14 44 -18 19 -23 19 -46 5z
m42 -19 c0 -5 -9 -10 -20 -10 -11 0 -20 5 -20 10 0 6 9 10 20 10 11 0 20 -4
20 -10z"/>
<path d="M430 4669 c0 -38 3 -49 10 -39 8 13 4 79 -6 89 -2 2 -4 -20 -4 -50z"/>
<path d="M486 4704 c-9 -8 -16 -24 -16 -34 0 -21 25 -50 44 -50 8 0 19 7 26
14 10 13 7 15 -17 13 -22 -2 -29 3 -31 21 -4 24 29 45 36 24 2 -7 8 -9 13 -6
13 7 -8 34 -27 34 -7 0 -20 -7 -28 -16z"/>
<path d="M583 4675 c2 -49 2 -50 35 -50 l32 -1 -1 51 c-1 27 -3 41 -6 30 -2
-11 -6 -30 -9 -42 -2 -13 -11 -23 -19 -23 -8 0 -17 10 -19 23 -13 57 -14 59
-13 12z"/>
<path d="M746 4704 c-9 -8 -16 -24 -16 -34 0 -22 25 -50 45 -50 20 0 45 28 45
50 0 22 -25 50 -45 50 -7 0 -21 -7 -29 -16z m49 -34 c0 -29 -32 -41 -41 -16
-9 24 4 48 23 44 12 -2 18 -12 18 -28z"/>
<path d="M908 4709 c-25 -14 -24 -65 2 -79 14 -8 26 -8 40 0 29 15 25 20 -10
14 -19 -4 -30 -2 -30 5 0 6 14 11 30 11 34 0 40 19 14 44 -18 19 -23 19 -46 5z
m37 -19 c3 -5 -3 -10 -14 -10 -12 0 -21 5 -21 10 0 6 6 10 14 10 8 0 18 -4 21
-10z"/>
<path d="M1001 4665 c1 -27 3 -41 6 -30 2 11 6 30 9 43 8 39 38 23 45 -23 7
-38 7 -38 5 10 -1 49 -1 50 -33 50 l-33 1 1 -51z"/>
<path d="M1226 4704 c-9 -8 -16 -24 -16 -34 0 -22 25 -50 45 -50 20 0 45 28
45 50 0 22 -25 50 -45 50 -7 0 -21 -7 -29 -16z m49 -34 c0 -29 -32 -41 -41
-16 -9 24 4 48 23 44 12 -2 18 -12 18 -28z"/>
<path d="M1325 4648 c0 -37 3 -68 7 -68 5 0 8 12 8 26 0 21 3 24 20 19 28 -9
50 11 50 45 0 34 -16 47 -55 47 l-30 0 0 -69z m60 22 c0 -28 -29 -40 -38 -15
-9 22 3 46 22 43 10 -2 16 -13 16 -28z"/>
<path d="M1490 4705 c-11 -13 -8 -14 21 -9 23 5 31 3 24 -4 -5 -5 -19 -12 -30
-14 -19 -3 -35 -47 -18 -49 67 -9 73 -7 73 23 0 59 -40 89 -70 53z m50 -45 c0
-12 -28 -25 -36 -17 -9 9 6 27 22 27 8 0 14 -5 14 -10z"/>
<path d="M1589 4704 c-11 -14 -10 -18 6 -30 10 -8 25 -14 32 -14 7 0 13 -5 13
-11 0 -8 -11 -9 -31 -5 -27 5 -30 4 -19 -9 16 -20 44 -19 61 1 11 14 10 18 -6
30 -10 8 -25 14 -32 14 -7 0 -13 5 -13 11 0 7 10 9 25 5 27 -7 35 8 9 18 -24
9 -30 8 -45 -10z"/>
<path d="M1680 4668 c0 -56 17 -65 22 -11 2 27 8 39 21 41 14 3 17 -4 17 -37
0 -51 18 -54 22 -3 2 25 8 37 18 37 10 0 16 -12 18 -37 4 -46 22 -51 22 -5 0
52 -12 61 -79 62 l-61 1 0 -48z"/>
<path d="M1850 4705 c-11 -13 -8 -14 21 -9 23 5 31 3 24 -4 -5 -5 -19 -12 -30
-14 -19 -3 -35 -47 -18 -49 70 -10 73 -8 73 30 0 56 -40 82 -70 46z m50 -45
c0 -12 -28 -25 -36 -17 -9 9 6 27 22 27 8 0 14 -5 14 -10z"/>
<path d="M2010 4668 c0 -28 2 -49 5 -47 8 9 11 99 3 99 -4 0 -8 -23 -8 -52z"/>
<path d="M2066 4704 c-9 -8 -16 -24 -16 -34 0 -21 25 -50 43 -50 22 0 40 17
32 30 -6 9 -9 9 -15 0 -13 -21 -42 -3 -38 22 2 18 9 23 31 21 24 -2 27 0 17
13 -16 18 -35 18 -54 -2z"/>
<path d="M2166 4704 c-9 -8 -16 -24 -16 -34 0 -22 25 -50 45 -50 20 0 45 28
45 50 0 22 -25 50 -45 50 -7 0 -21 -7 -29 -16z m49 -34 c0 -16 -6 -26 -18 -28
-19 -4 -32 20 -23 44 9 25 41 13 41 -16z"/>
<path d="M2310 4668 c0 -26 5 -48 10 -48 6 0 10 11 10 24 0 35 10 56 26 56 8
0 14 4 14 8 0 5 -13 9 -30 9 -29 0 -30 -2 -30 -49z"/>
<path d="M2387 4683 c6 -58 10 -62 42 -60 36 2 39 8 31 62 l-5 40 -8 -43 c-6
-34 -11 -43 -25 -40 -12 2 -18 15 -20 41 -2 20 -7 37 -12 37 -4 0 -6 -17 -3
-37z"/>
<path d="M2501 4707 c-14 -14 -14 -43 0 -69 8 -15 17 -18 36 -13 18 4 24 2 20
-7 -2 -8 -17 -12 -38 -10 -32 3 -33 2 -17 -14 22 -22 64 -12 72 18 3 13 6 41
6 64 0 39 -1 40 -34 41 -19 1 -39 -4 -45 -10z m53 -22 c8 -21 -3 -45 -20 -45
-18 0 -28 24 -20 45 3 8 12 15 20 15 7 0 16 -7 20 -15z"/>
<path d="M2616 4704 c-9 -8 -16 -24 -16 -34 0 -22 25 -50 45 -50 20 0 45 28
45 50 0 22 -25 50 -45 50 -7 0 -21 -7 -29 -16z m49 -34 c0 -16 -6 -26 -18 -28
-19 -4 -32 20 -23 44 9 25 41 13 41 -16z"/>
<path d="M2721 4711 c-20 -13 -6 -39 24 -47 37 -9 31 -28 -6 -20 -27 5 -30 4
-19 -9 16 -20 44 -19 61 1 11 14 10 18 -6 30 -10 8 -25 14 -32 14 -7 0 -13 5
-13 11 0 7 10 9 25 5 27 -7 35 8 9 18 -20 8 -26 7 -43 -3z"/>
<path d="M2826 4704 c-9 -8 -16 -24 -16 -34 0 -22 25 -50 45 -50 20 0 45 28
45 50 0 22 -25 50 -45 50 -7 0 -21 -7 -29 -16z m49 -34 c0 -16 -6 -26 -18 -28
-19 -4 -32 20 -23 44 9 25 41 13 41 -16z"/>
<path d="M362 4098 l-2 -478 -70 -117 c-303 -508 -369 -1131 -180 -1703 40
-122 144 -337 215 -446 30 -47 55 -87 55 -89 0 -3 9 -15 19 -27 10 -13 53 -64
94 -114 329 -395 837 -660 1367 -713 125 -12 380 -6 502 13 338 53 650 183
923 386 52 38 103 70 113 71 9 0 12 3 5 5 -6 3 32 46 84 97 229 221 409 503
513 804 l32 93 257 3 256 2 -256 3 -255 2 23 92 c12 51 25 119 29 151 l7 57
226 2 226 3 -224 2 -224 3 7 62 c3 33 6 116 6 184 l0 124 203 3 202 2 -202 3
c-120 1 -203 6 -203 11 0 6 -7 63 -15 128 -50 382 -196 727 -433 1023 l-60 75
476 5 477 5 -483 3 -483 2 -82 81 c-131 131 -302 261 -446 340 l-43 24 768 5
769 5 -780 3 -780 2 -103 45 c-166 72 -321 118 -512 152 -122 22 -455 25 -595
6 -276 -37 -566 -140 -802 -284 -184 -112 -401 -305 -533 -472 l-75 -95 -5
466 -5 467 -3 -477z m2002 377 c429 -66 842 -277 1141 -584 l59 -61 -62 0
c-54 0 -69 5 -119 37 -32 20 -97 54 -146 75 -107 46 -439 163 -487 172 -19 3
17 -12 80 -34 346 -120 460 -173 460 -216 0 -42 -263 20 -530 125 -30 12 -101
37 -157 56 -110 37 -153 59 -153 80 0 8 9 17 21 20 11 4 18 9 16 12 -13 13
-47 -10 -47 -32 0 -31 25 -45 171 -98 68 -25 185 -70 259 -100 224 -90 446
-160 515 -161 58 -1 60 0 63 27 3 26 5 27 67 27 l63 0 54 -67 c70 -87 97 -124
142 -195 l37 -58 -40 0 c-34 0 -42 4 -53 27 -26 55 -113 55 -132 0 -30 -84 86
-148 128 -70 12 23 20 27 61 28 l48 1 64 -131 64 -130 -128 -5 -128 -6 127 -2
c110 -2 129 -4 136 -19 26 -50 96 -283 87 -291 -2 -3 -63 -4 -135 -3 -90 1
-130 -1 -130 -9 0 -8 41 -10 135 -8 113 3 136 1 140 -12 9 -29 35 -215 35
-252 l0 -38 -292 0 c-273 0 -294 -1 -334 -20 -43 -22 -88 -76 -99 -122 -10
-39 25 -108 73 -146 22 -18 69 -46 104 -62 l63 -29 -328 -1 c-321 0 -327 0
-317 19 5 11 10 23 10 28 -1 4 -8 -4 -16 -19 -15 -29 -63 -40 -65 -15 0 9 -2
9 -6 0 -3 -9 -35 -13 -110 -13 -96 0 -105 2 -98 18 73 189 64 510 -20 672 -23
45 -103 127 -150 155 -79 46 -194 69 -315 62 -231 -13 -513 -114 -637 -231
-108 -100 -158 -242 -134 -380 19 -110 111 -388 159 -481 62 -121 170 -232
257 -266 87 -33 210 -31 325 6 86 28 184 72 232 106 19 14 44 19 94 19 l67 0
-24 -26 c-13 -14 -50 -42 -81 -61 -32 -20 -58 -38 -58 -40 0 -9 63 30 124 77
59 45 70 50 117 50 44 0 50 -2 45 -17 -6 -17 -5 -17 8 0 12 16 50 17 587 15
l574 -3 -243 -60 -244 -60 6 -29 c8 -38 7 -37 46 -26 19 5 131 33 250 60 312
74 288 66 282 95 -4 23 -1 25 33 25 36 0 37 -1 30 -27 -14 -59 -84 -234 -121
-303 l-39 -74 -170 2 c-103 2 -176 -2 -185 -8 -10 -7 39 -10 163 -9 98 0 180
-1 182 -3 2 -2 -34 -60 -79 -128 -95 -142 -197 -262 -311 -367 l-79 -73 -375
1 -376 0 -130 94 c-121 87 -131 92 -147 78 -10 -9 -18 -22 -18 -29 0 -7 51
-49 113 -93 61 -45 168 -122 236 -171 l123 -90 19 24 c11 13 19 27 19 29 0 3
-38 33 -85 67 -46 33 -87 65 -90 70 -4 6 123 10 341 10 l347 0 -19 -21 c-33
-37 -235 -166 -350 -223 -188 -94 -337 -144 -549 -186 -156 -31 -472 -39 -640
-16 -521 72 -990 339 -1324 753 l-71 88 0 81 c0 64 3 81 15 81 8 0 12 -4 9 -8
-7 -12 66 -117 107 -155 92 -85 152 -104 188 -58 30 38 26 55 -18 87 -43 29
-56 34 -45 15 4 -8 3 -10 -2 -5 -5 5 -9 12 -9 16 0 3 -37 43 -83 89 -89 87
-97 109 -49 126 42 15 75 -9 123 -88 47 -78 129 -170 144 -161 6 4 7 11 4 17
-4 7 -2 8 5 4 9 -6 9 -11 1 -21 -13 -16 52 -73 160 -140 86 -52 140 -61 140
-22 -1 40 -64 112 -141 158 -83 51 -107 79 -124 146 -14 55 -10 73 14 73 22 0
49 -29 94 -101 40 -62 85 -105 134 -126 42 -17 87 -17 102 1 15 18 10 71 -6
71 -6 0 -15 4 -20 9 -5 5 -3 6 5 2 24 -14 11 9 -27 49 -48 48 -64 95 -33 95
10 0 37 -12 58 -26 81 -56 123 -62 144 -23 19 34 10 55 -60 137 -86 102 -124
157 -155 224 -14 29 -25 46 -25 37 0 -25 45 -105 106 -185 56 -75 66 -112 29
-106 -84 15 -82 15 -119 -20 -39 -36 -51 -75 -34 -116 14 -34 17 -62 7 -62 -8
0 -53 53 -89 104 -31 45 -111 106 -138 106 -68 0 -85 -32 -69 -125 10 -61 6
-75 -17 -56 -8 7 -21 9 -27 5 -8 -4 -9 -3 -5 5 7 11 -37 74 -47 65 -2 -3 -5 6
-5 20 0 34 -33 88 -63 103 -37 19 -83 16 -104 -7 -19 -21 -21 -44 -11 -130 7
-54 7 -55 -10 -30 -10 14 -21 27 -24 30 -3 3 -16 21 -28 42 -35 56 -97 108
-131 108 -17 0 -33 -5 -37 -11 -4 -8 -12 -3 -20 12 -18 33 -17 39 6 39 51 0
92 44 77 82 -3 7 -6 1 -6 -14 -1 -37 -40 -62 -80 -53 -27 6 -33 15 -61 93 -91
252 -124 463 -117 752 7 275 42 456 134 690 53 135 75 179 146 297 l52 88 5
-200 5 -200 490 0 490 0 -487 2 -488 3 0 209 0 210 59 78 c304 402 768 689
1261 778 209 37 471 41 674 10z m1326 -935 c24 -24 26 -63 4 -84 -33 -34 -104
-8 -104 37 0 26 38 67 62 67 10 0 27 -9 38 -20z m-1515 -494 c230 -41 355
-146 400 -338 31 -134 13 -372 -37 -476 -13 -27 -15 -27 -118 -27 -58 -1 -111
1 -117 3 -7 2 -13 16 -13 31 0 39 -52 116 -101 148 -36 24 -54 28 -119 30 -74
2 -78 1 -126 -35 -66 -51 -95 -105 -95 -180 0 -32 6 -74 14 -93 19 -47 83
-106 134 -125 110 -42 254 29 284 140 6 22 13 47 15 54 2 9 34 12 114 12 l110
0 -19 -38 c-42 -82 -129 -177 -215 -234 -36 -25 -51 -28 -131 -30 -89 -1 -89
-2 -25 -7 90 -8 46 -33 -90 -51 -142 -19 -281 41 -411 177 -72 75 -91 113
-147 297 -42 138 -45 160 -46 261 -1 105 1 114 31 176 40 81 125 164 214 210
35 18 114 50 174 71 125 43 186 47 320 24z m1462 -491 c58 -17 138 -69 164
-105 9 -14 20 -43 24 -65 l6 -40 -32 31 -31 32 -35 -20 c-40 -24 -47 -20 -33
16 9 24 5 31 -36 72 -50 51 -45 52 -90 -13 -23 -32 -34 -28 -34 12 0 58 -71
77 -109 28 -12 -14 -24 -23 -28 -20 -10 11 26 44 71 66 49 25 94 26 163 6z
m459 -11 c7 -29 -3 -283 -12 -321 -6 -21 -12 -23 -65 -23 -39 0 -61 4 -63 13
-25 96 -68 166 -153 250 -32 32 -80 69 -107 82 l-50 25 222 0 222 0 6 -26z
m-620 -120 c-6 -17 -8 -17 -24 0 -15 15 -15 18 -2 26 19 12 35 -3 26 -26z
m150 -79 c-7 -27 -21 -31 -46 -15 -13 9 -10 14 15 35 32 26 41 20 31 -20z
m-1608 -27 c4 -35 -20 -70 -62 -93 -29 -16 -37 -17 -50 -6 -30 25 -11 78 40
112 39 26 68 21 72 -13z m1722 -28 c0 -5 -4 -10 -10 -10 -5 0 -10 5 -10 10 0
6 5 10 10 10 6 0 10 -4 10 -10z m-1 -150 c145 -94 175 -90 215 33 4 14 17 17
66 17 33 0 60 -4 60 -9 0 -20 -32 -180 -47 -233 l-16 -58 -373 0 -374 0 0 28
1 27 17 -21 c17 -20 20 -20 46 -7 27 14 27 15 9 35 -18 20 -17 21 2 14 14 -4
24 0 33 14 11 18 9 21 -13 30 -15 6 -32 10 -38 10 -7 0 -3 6 8 12 11 6 21 12
23 13 1 1 -2 14 -9 28 -8 17 -17 23 -28 19 -13 -5 -14 -3 -4 9 10 13 7 21 -17
44 -27 26 -30 27 -36 9 -15 -46 -17 -49 -21 -27 -4 19 -7 21 -29 11 -13 -6
-24 -18 -24 -25 0 -8 -5 -11 -10 -8 -6 4 -18 4 -27 1 -14 -6 -13 -10 6 -30 21
-23 22 -25 4 -29 -10 -3 -2 -5 17 -5 l35 -1 -27 22 c-37 30 -35 41 3 22 30
-16 30 -16 19 5 -6 11 -8 25 -5 30 12 20 24 9 31 -27 l7 -38 16 48 c17 48 17
48 35 28 17 -19 18 -23 4 -38 -30 -35 -33 -48 -7 -30 29 21 45 21 53 2 4 -10
-3 -20 -19 -27 -26 -12 -25 -28 3 -28 25 0 46 -16 38 -28 -4 -8 -20 -6 -49 4
l-42 15 33 -34 c18 -18 29 -36 26 -40 -15 -14 -34 -6 -48 21 l-15 27 -6 -42
c-6 -31 -11 -40 -22 -36 -10 4 -14 16 -11 39 4 38 2 40 -26 19 -25 -19 -36
-19 -36 0 0 8 4 15 8 15 5 0 17 7 28 15 18 14 18 14 -4 15 -13 0 -21 -4 -17
-9 3 -5 -4 -12 -14 -16 -17 -5 -18 -10 -9 -30 10 -22 12 -23 33 -9 22 14 23
13 27 -16 l5 -30 -264 0 c-243 0 -263 1 -264 18 -1 16 -2 16 -6 0 -3 -14 -15
-18 -54 -18 -27 0 -49 4 -49 8 0 11 30 38 50 45 13 5 13 6 -1 6 -8 1 -28 -12
-44 -29 -26 -27 -35 -30 -90 -30 l-62 0 71 73 c45 47 86 101 111 150 l40 76
499 1 500 0 75 -50z m-3387 -647 c26 -25 28 -32 28 -107 l-1 -81 -22 27 c-12
15 -36 52 -52 82 -28 52 -28 54 -12 80 22 32 24 32 59 -1z m324 -195 c4 -7 4
-10 -1 -6 -4 4 -15 2 -24 -5 -14 -11 -14 -10 -2 6 16 20 18 21 27 5z m394
-158 c0 -5 -2 -10 -4 -10 -3 0 -8 5 -11 10 -3 6 -1 10 4 10 6 0 11 -4 11 -10z"/>
<path d="M1830 4203 c5 -2 10 -21 10 -40 0 -31 2 -34 15 -23 9 7 12 16 7 19
-5 3 -11 15 -13 25 -2 11 -10 21 -17 22 -7 1 -8 0 -2 -3z"/>
<path d="M1749 4173 c-13 -16 -12 -17 4 -4 9 7 17 15 17 17 0 8 -8 3 -21 -13z"/>
<path d="M1900 4176 c13 -16 11 -21 -15 -42 l-30 -24 48 0 c35 0 47 -4 47 -15
0 -10 -10 -15 -31 -15 -31 0 -37 -19 -9 -28 7 -3 10 0 6 7 -5 7 2 11 19 11 22
0 26 4 23 23 -2 17 -11 23 -36 25 -33 3 -33 4 -16 23 17 19 17 20 -1 37 -18
16 -18 16 -5 -2z"/>
<path d="M1780 4155 c0 -2 7 -8 15 -15 12 -10 15 -10 15 2 0 8 -7 15 -15 15
-8 0 -15 -1 -15 -2z"/>
<path d="M2563 4153 c9 -2 23 -2 30 0 6 3 -1 5 -18 5 -16 0 -22 -2 -12 -5z"/>
<path d="M2618 4143 c7 -3 16 -2 19 1 4 3 -2 6 -13 5 -11 0 -14 -3 -6 -6z"/>
<path d="M2658 4133 c7 -3 16 -2 19 1 4 3 -2 6 -13 5 -11 0 -14 -3 -6 -6z"/>
<path d="M1733 4123 c-13 -2 -23 -8 -23 -13 0 -5 -3 -15 -6 -24 -5 -13 1 -16
27 -15 30 2 31 3 7 6 -19 3 -25 9 -21 19 4 12 15 14 47 9 39 -7 40 -6 21 9
-11 8 -22 15 -25 14 -3 0 -15 -3 -27 -5z"/>
<path d="M1757 4053 c-18 -23 -18 -25 -2 -43 10 -11 22 -17 28 -13 5 3 7 0 5
-8 -3 -8 7 -22 21 -31 33 -22 41 -22 41 0 0 11 -3 13 -8 5 -5 -8 -12 -8 -26 3
-19 14 -19 15 -2 51 l18 38 -30 -28 c-26 -25 -30 -26 -42 -11 -12 14 -11 18 9
34 13 9 20 20 15 23 -5 3 -17 -6 -27 -20z"/>
<path d="M1851 4017 c-1 -23 3 -36 9 -32 6 3 10 -1 10 -9 0 -9 4 -16 8 -16 15
0 44 38 37 49 -4 7 2 10 16 8 25 -2 37 18 15 26 -10 4 -13 1 -9 -9 4 -12 1
-13 -22 -4 -37 14 -41 13 -21 -9 10 -11 15 -25 11 -31 -11 -18 -28 -6 -41 31
l-12 34 -1 -38z"/>
<path d="M1165 4010 c-26 -28 -15 -31 12 -3 12 13 19 23 14 23 -4 0 -16 -9
-26 -20z"/>
<path d="M1282 3965 c0 -16 2 -22 5 -12 2 9 2 23 0 30 -3 6 -5 -1 -5 -18z"/>
<path d="M1263 3919 c-6 -6 -26 -15 -45 -19 l-33 -8 31 -1 c19 -1 38 7 49 19
19 21 17 28 -2 9z"/>
<path d="M2172 3921 c-76 -20 -99 -87 -39 -118 37 -19 118 -22 337 -9 255 15
357 -9 521 -125 277 -195 343 -230 403 -215 35 9 60 49 52 82 -4 15 -31 50
-60 78 -133 129 -414 250 -678 291 -116 18 -485 29 -536 16z m505 -26 c147
-21 239 -45 371 -96 100 -40 112 -48 190 -124 132 -131 104 -138 -93 -25 -272
155 -370 190 -534 190 -53 0 -136 -7 -186 -15 -104 -17 -267 -20 -296 -5 -45
25 -10 75 62 90 64 13 356 4 486 -15z"/>
<path d="M1540 3886 c0 -10 6 -13 15 -10 23 9 29 -23 11 -51 -19 -28 -12 -31
24 -10 34 19 38 19 43 -7 3 -17 5 -14 6 10 1 36 -5 39 -37 16 -24 -17 -27 -13
-12 16 9 16 5 22 -20 35 -26 14 -30 14 -30 1z"/>
<path d="M1471 3878 c0 -7 5 -22 10 -33 8 -17 8 -15 4 8 -4 20 -1 27 10 27 9
0 18 -12 22 -30 7 -39 23 -49 23 -16 0 14 -4 26 -10 26 -5 0 -10 7 -10 15 0 9
-9 15 -25 15 -14 0 -25 -6 -24 -12z"/>
<path d="M1430 3821 c-16 -30 -1 -61 29 -61 l26 1 -27 15 c-16 8 -28 19 -28
25 0 16 27 21 49 9 12 -6 21 -7 21 -3 0 5 -14 14 -30 20 -26 10 -32 9 -40 -6z"/>
<path d="M1586 3781 c-17 -6 -15 -9 12 -20 18 -8 32 -20 32 -27 0 -18 -4 -17
-40 1 l-29 15 15 -35 c22 -53 -5 -81 -28 -30 -14 31 -28 23 -28 -16 0 -18 -4
-28 -10 -24 -5 3 -10 18 -10 33 0 24 -1 25 -14 7 -9 -12 -19 -16 -31 -11 -16
6 -14 10 16 37 22 20 27 28 14 24 -53 -18 -79 -24 -86 -19 -5 3 -9 0 -9 -6 0
-8 11 -9 33 -5 26 6 30 5 20 -6 -7 -7 -13 -16 -13 -20 0 -7 38 -23 50 -21 3 0
9 -6 13 -14 14 -24 37 -16 37 14 l0 27 18 -22 c15 -19 19 -20 35 -9 13 10 16
21 11 41 -6 24 -4 26 14 21 15 -5 24 -1 32 14 9 17 7 22 -17 31 -22 8 -24 12
-13 19 18 11 3 12 -24 1z"/>
<path d="M1407 3773 c-4 -3 -7 -16 -6 -27 0 -19 1 -19 10 3 10 24 8 36 -4 24z"/>
<path d="M2017 3740 c-16 -5 -35 -14 -43 -21 -18 -15 -18 -63 0 -79 30 -24
122 -40 241 -40 141 0 320 -15 425 -36 94 -19 195 -67 285 -138 260 -205 335
-253 411 -263 51 -7 94 24 94 68 0 67 -193 220 -394 314 -153 72 -255 105
-437 144 -190 40 -525 70 -582 51z m233 -15 c278 -22 604 -99 729 -171 66 -39
209 -151 222 -175 14 -26 5 -49 -19 -49 -10 0 -66 36 -124 80 -117 87 -227
147 -332 179 -101 31 -97 31 -411 38 -159 3 -300 10 -313 14 -52 19 -38 67 24
85 40 11 79 11 224 -1z"/>
<path d="M1099 3689 c-112 -17 -248 -127 -289 -236 -50 -133 13 -221 151 -211
78 6 162 49 231 120 66 66 85 99 98 166 7 39 5 54 -10 87 -31 64 -89 88 -181
74z m129 -31 c25 -13 28 -41 9 -76 l-13 -22 -22 30 c-13 16 -28 30 -34 30 -6
0 1 -11 16 -25 36 -34 34 -70 -9 -124 -32 -40 -39 -54 -37 -73 1 -3 -6 -12
-16 -20 -15 -12 -16 -11 -3 5 12 15 11 17 -3 17 -9 0 -19 -7 -22 -15 -4 -8
-10 -15 -16 -15 -5 0 -16 -7 -25 -15 -8 -8 -19 -12 -25 -9 -7 5 -8 2 -3 -6 5
-8 3 -11 -6 -8 -8 3 -26 -1 -41 -9 -16 -7 -28 -11 -28 -8 0 3 -8 1 -18 -4 -29
-15 -59 -2 -76 32 -13 27 -16 29 -16 10 0 -12 5 -25 10 -28 17 -10 11 -25 -9
-25 -31 0 -46 59 -31 120 21 88 97 174 199 225 86 44 153 48 219 13z"/>
<path d="M1068 3623 c6 -2 18 -2 25 0 6 3 1 5 -13 5 -14 0 -19 -2 -12 -5z"/>
<path d="M1128 3623 c7 -3 16 -2 19 1 4 3 -2 6 -13 5 -11 0 -14 -3 -6 -6z"/>
<path d="M995 3600 c-3 -6 1 -7 9 -4 18 7 21 14 7 14 -6 0 -13 -4 -16 -10z"/>
<path d="M915 3538 l-40 -43 43 40 c39 36 47 45 39 45 -2 0 -21 -19 -42 -42z"/>
<path d="M860 3469 c-7 -11 -10 -23 -7 -25 2 -2 9 7 15 21 14 30 7 33 -8 4z"/>
<path d="M841 3414 c0 -11 3 -14 6 -6 3 7 2 16 -1 19 -3 4 -6 -2 -5 -13z"/>
<path d="M448 3533 c6 -2 18 -2 25 0 6 3 1 5 -13 5 -14 0 -19 -2 -12 -5z"/>
<path d="M395 3499 c-4 -6 -5 -12 -2 -15 2 -3 7 2 10 11 7 17 1 20 -8 4z"/>
<path d="M516 3497 c3 -10 9 -15 12 -12 3 3 0 11 -7 18 -10 9 -11 8 -5 -6z"/>
<path d="M400 3426 c0 -2 8 -10 18 -17 15 -13 16 -12 3 4 -13 16 -21 21 -21
13z"/>
<path d="M499 3413 c-13 -16 -12 -17 4 -4 9 7 17 15 17 17 0 8 -8 3 -21 -13z"/>
<path d="M2178 3383 c28 -2 76 -2 105 0 28 2 5 3 -53 3 -58 0 -81 -1 -52 -3z"/>
<path d="M2063 3373 c9 -2 23 -2 30 0 6 3 -1 5 -18 5 -16 0 -22 -2 -12 -5z"/>
<path d="M2373 3373 c9 -2 23 -2 30 0 6 3 -1 5 -18 5 -16 0 -22 -2 -12 -5z"/>
<path d="M1986 3349 c-26 -21 -34 -43 -17 -53 5 -4 7 3 4 14 -4 14 4 24 28 39
19 12 29 21 23 21 -6 0 -23 -9 -38 -21z"/>
<path d="M2438 3363 c7 -3 16 -2 19 1 4 3 -2 6 -13 5 -11 0 -14 -3 -6 -6z"/>
<path d="M2478 3353 c7 -3 16 -2 19 1 4 3 -2 6 -13 5 -11 0 -14 -3 -6 -6z"/>
<path d="M1742 3341 c79 -7 107 -26 89 -60 -7 -11 -9 -21 -7 -21 3 0 10 9 16
19 23 44 -20 72 -108 69 l-57 -1 67 -6z"/>
<path d="M1638 3333 c7 -3 16 -2 19 1 4 3 -2 6 -13 5 -11 0 -14 -3 -6 -6z"/>
<path d="M1570 3320 c-18 -12 -2 -12 25 0 13 6 15 9 5 9 -8 0 -22 -4 -30 -9z"/>
<path d="M1498 3289 c-21 -11 -38 -22 -38 -24 0 -5 79 32 89 41 12 11 -18 1
-51 -17z"/>
<path d="M2620 3306 c0 -2 7 -7 16 -10 8 -3 12 -2 9 4 -6 10 -25 14 -25 6z"/>
<path d="M2110 3294 c59 -8 138 -8 133 -1 -2 4 -39 6 -81 6 -42 -1 -66 -3 -52
-5z"/>
<path d="M2003 3283 c9 -2 25 -2 35 0 9 3 1 5 -18 5 -19 0 -27 -2 -17 -5z"/>
<path d="M2315 3270 c-3 -6 1 -7 9 -4 18 7 21 14 7 14 -6 0 -13 -4 -16 -10z"/>
<path d="M2358 3273 c6 -2 18 -2 25 0 6 3 1 5 -13 5 -14 0 -19 -2 -12 -5z"/>
<path d="M2705 3258 c67 -52 104 -91 124 -131 12 -23 21 -35 21 -26 0 35 -102
145 -160 173 -8 4 -1 -3 15 -16z"/>
<path d="M2408 3263 c7 -3 16 -2 19 1 4 3 -2 6 -13 5 -11 0 -14 -3 -6 -6z"/>
<path d="M1409 3228 c-42 -39 -74 -86 -65 -95 3 -3 6 -1 6 6 0 7 23 37 51 67
58 60 61 71 8 22z"/>
<path d="M1753 3253 c9 -2 23 -2 30 0 6 3 -1 5 -18 5 -16 0 -22 -2 -12 -5z"/>
<path d="M2240 3252 c0 -7 -18 -13 -42 -14 l-43 -1 39 -4 c37 -4 67 9 53 24
-4 3 -7 1 -7 -5z"/>
<path d="M1993 3233 c9 -2 25 -2 35 0 9 3 1 5 -18 5 -19 0 -27 -2 -17 -5z"/>
<path d="M2510 3230 c8 -5 20 -10 25 -10 6 0 3 5 -5 10 -8 5 -19 10 -25 10 -5
0 -3 -5 5 -10z"/>
<path d="M1632 3223 c9 -2 20 -13 23 -24 4 -11 9 -18 12 -16 10 10 -18 47 -35
46 -16 -1 -16 -2 0 -6z"/>
<path d="M1928 3223 c6 -2 18 -2 25 0 6 3 1 5 -13 5 -14 0 -19 -2 -12 -5z"/>
<path d="M1580 3210 c-8 -5 -10 -10 -5 -10 6 0 17 5 25 10 8 5 11 10 5 10 -5
0 -17 -5 -25 -10z"/>
<path d="M1711 3204 c0 -11 3 -14 6 -6 3 7 2 16 -1 19 -3 4 -6 -2 -5 -13z"/>
<path d="M1888 3213 c7 -3 16 -2 19 1 4 3 -2 6 -13 5 -11 0 -14 -3 -6 -6z"/>
<path d="M2353 3213 c9 -2 25 -2 35 0 9 3 1 5 -18 5 -19 0 -27 -2 -17 -5z"/>
<path d="M2551 3217 c17 -14 79 -48 79 -44 0 7 -65 47 -75 47 -5 0 -6 -1 -4
-3z"/>
<path d="M2418 3203 c6 -2 18 -2 25 0 6 3 1 5 -13 5 -14 0 -19 -2 -12 -5z"/>
<path d="M1524 3184 c-18 -14 -18 -14 6 -3 31 14 36 19 24 19 -6 0 -19 -7 -30
-16z"/>
<path d="M2474 3188 c25 -20 15 -45 -21 -51 l-28 -4 26 -2 c49 -2 64 53 18 67
-8 2 -5 -2 5 -10z"/>
<path d="M1730 3166 c6 -6 18 -5 32 1 21 10 21 10 -9 9 -19 -1 -28 -5 -23 -10z"/>
<path d="M1463 3144 l-28 -25 33 22 c17 13 32 24 32 26 0 8 -11 1 -37 -23z"/>
<path d="M2719 3091 c64 -64 87 -81 109 -80 25 1 24 2 -7 9 -22 5 -48 25 -78
59 -24 28 -58 60 -75 72 -16 12 6 -15 51 -60z"/>
<path d="M1671 3143 c0 -12 -9 -27 -18 -32 -10 -6 -13 -10 -8 -11 22 0 37 18
32 41 -4 23 -4 23 -6 2z"/>
<path d="M2198 3153 c23 -2 61 -2 85 0 23 2 4 4 -43 4 -47 0 -66 -2 -42 -4z"/>
<path d="M2078 3143 c12 -2 30 -2 40 0 9 3 -1 5 -23 4 -22 0 -30 -2 -17 -4z"/>
<path d="M2363 3143 c9 -2 25 -2 35 0 9 3 1 5 -18 5 -19 0 -27 -2 -17 -5z"/>
<path d="M2013 3133 c9 -2 23 -2 30 0 6 3 -1 5 -18 5 -16 0 -22 -2 -12 -5z"/>
<path d="M1958 3123 c6 -2 18 -2 25 0 6 3 1 5 -13 5 -14 0 -19 -2 -12 -5z"/>
<path d="M1347 3108 c5 -10 42 -9 68 1 14 6 6 8 -26 7 -26 0 -45 -4 -42 -8z"/>
<path d="M1918 3113 c7 -3 16 -2 19 1 4 3 -2 6 -13 5 -11 0 -14 -3 -6 -6z"/>
<path d="M1878 3103 c7 -3 16 -2 19 1 4 3 -2 6 -13 5 -11 0 -14 -3 -6 -6z"/>
<path d="M1792 3083 c-24 -8 -41 -17 -39 -19 2 -2 28 5 58 15 30 11 47 20 39
19 -8 0 -34 -6 -58 -15z"/>
<path d="M420 3068 c-45 -23 -93 -81 -105 -128 -3 -14 7 0 22 30 36 69 82 102
137 98 33 -3 43 -9 60 -37 15 -27 17 -37 8 -50 -7 -9 -17 -28 -23 -43 -11 -29
-27 -38 -55 -33 -11 2 -22 4 -26 4 -15 2 -8 33 13 62 24 35 19 36 -32 7 -41
-23 -65 -65 -54 -97 5 -17 15 -21 51 -21 57 0 49 -17 -11 -26 l-45 -6 0 -58 0
-58 37 -9 c45 -10 53 -29 19 -44 -24 -11 -26 -17 -26 -72 l0 -59 -37 28 c-20
15 -33 22 -29 16 4 -7 2 -12 -3 -12 -6 0 -11 8 -12 18 0 10 -3 12 -6 4 -8 -19
51 -133 88 -170 53 -53 86 -67 164 -66 82 0 122 21 149 78 34 71 10 211 -53
316 -35 58 -46 87 -71 189 -26 104 -44 139 -76 151 -34 13 -33 13 -84 -12z
m-43 -170 c-3 -8 -6 -5 -6 6 -1 11 2 17 5 13 3 -3 4 -12 1 -19z m141 -116 c2
-8 -8 -12 -30 -12 -31 1 -32 1 -13 15 21 17 37 15 43 -3z m32 -153 c0 -14 -7
-19 -24 -19 -34 0 -41 16 -15 34 26 18 39 13 39 -15z m-45 -125 c-11 -8 -26
-12 -33 -9 -8 3 -21 5 -30 6 -24 1 27 17 58 18 24 0 24 0 5 -15z"/>
<path d="M1555 3060 c-23 -24 -27 -34 -19 -47 6 -9 17 -18 25 -20 8 -3 7 0 -3
7 -26 16 -22 35 13 64 17 14 27 26 22 26 -5 0 -22 -14 -38 -30z"/>
<path d="M2852 3055 c0 -16 2 -22 5 -12 2 9 2 23 0 30 -3 6 -5 -1 -5 -18z"/>
<path d="M815 3035 c-14 -13 -25 -31 -25 -39 0 -31 24 -65 52 -75 18 -6 26 -6
23 -1 -4 6 -13 10 -20 10 -23 0 -47 45 -39 74 11 47 69 61 104 26 27 -27 25
-56 -5 -85 -13 -14 -20 -25 -15 -25 19 0 50 40 50 64 0 13 -9 35 -21 50 -27
34 -71 35 -104 1z"/>
<path d="M1660 3030 c-8 -5 -10 -10 -5 -10 6 0 17 5 25 10 8 5 11 10 5 10 -5
0 -17 -5 -25 -10z"/>
<path d="M2660 3011 c0 -5 8 -7 19 -4 23 6 84 -46 101 -87 7 -17 15 -29 17
-26 9 9 -27 64 -62 95 -34 29 -75 42 -75 22z"/>
<path d="M3305 2976 c-93 -43 -158 -141 -141 -211 21 -83 167 -73 253 17 38
40 74 103 69 120 -3 7 -7 25 -10 40 -7 31 -50 58 -93 58 -15 0 -51 -11 -78
-24z m102 -2 c2 -6 -9 -9 -29 -7 l-33 3 31 -10 c34 -11 51 -37 34 -54 -5 -5
-10 -21 -10 -34 0 -13 -4 -20 -10 -17 -5 3 -10 3 -10 -2 0 -4 -12 -26 -26 -48
-14 -22 -23 -32 -20 -22 3 9 1 17 -4 17 -6 0 -10 -7 -10 -15 0 -9 -10 -15 -26
-15 -14 0 -23 -4 -20 -8 3 -5 -9 -6 -26 -4 -19 3 -32 12 -35 23 -3 11 -9 19
-15 19 -5 0 -4 -9 3 -21 7 -15 8 -24 0 -32 -7 -7 -14 -2 -22 16 -33 72 58 191
166 218 38 9 57 7 62 -7z"/>
<path d="M3214 2865 c-9 -14 -15 -27 -13 -30 3 -2 12 10 21 26 21 36 15 39 -8
4z"/>
<path d="M2680 2960 c12 -16 24 -30 26 -30 3 0 -4 14 -16 30 -12 17 -24 30
-26 30 -3 0 4 -13 16 -30z"/>
<path d="M2732 2875 c12 -24 23 -43 26 -41 4 5 -36 86 -43 86 -3 0 5 -20 17
-45z"/>
<path d="M302 2890 c0 -14 2 -19 5 -12 2 6 2 18 0 25 -3 6 -5 1 -5 -13z"/>
<path d="M1270 2876 c0 -2 11 -6 25 -8 13 -3 22 -1 19 3 -5 9 -44 13 -44 5z"/>
<path d="M2801 2875 c1 -19 18 -51 18 -35 0 8 -4 22 -9 30 -5 8 -9 11 -9 5z"/>
<path d="M1216 2835 c-15 -19 -25 -35 -23 -35 2 0 17 16 34 35 17 19 28 35 23
35 -4 0 -20 -16 -34 -35z"/>
<path d="M292 2835 c0 -16 2 -22 5 -12 2 9 2 23 0 30 -3 6 -5 -1 -5 -18z"/>
<path d="M1310 2826 c0 -7 -7 -19 -16 -26 -8 -8 -20 -23 -26 -34 -5 -12 4 -5
20 14 28 31 41 60 27 60 -3 0 -5 -6 -5 -14z"/>
<path d="M2901 2826 c-7 -8 -11 -27 -8 -43 4 -27 4 -26 6 5 1 40 24 51 54 26
l22 -19 -19 23 c-22 26 -39 28 -55 8z"/>
<path d="M2767 2785 c3 -22 7 -42 9 -44 8 -9 2 45 -6 64 -7 14 -8 8 -3 -20z"/>
<path d="M2821 2804 c0 -11 3 -14 6 -6 3 7 2 16 -1 19 -3 4 -6 -2 -5 -13z"/>
<path d="M1160 2749 c-12 -23 -20 -43 -18 -45 3 -2 14 17 26 41 27 56 20 60
-8 4z"/>
<path d="M2971 2774 c0 -11 3 -14 6 -6 3 7 2 16 -1 19 -3 4 -6 -2 -5 -13z"/>
<path d="M2832 2760 c0 -14 2 -19 5 -12 2 6 2 18 0 25 -3 6 -5 1 -5 -13z"/>
<path d="M283 2720 c0 -25 2 -35 4 -22 2 12 2 32 0 45 -2 12 -4 2 -4 -23z"/>
<path d="M1245 2729 c-4 -6 -5 -12 -2 -15 2 -3 7 2 10 11 7 17 1 20 -8 4z"/>
<path d="M2902 2715 c0 -16 2 -22 5 -12 2 9 2 23 0 30 -3 6 -5 -1 -5 -18z"/>
<path d="M2982 2720 c0 -14 2 -19 5 -12 2 6 2 18 0 25 -3 6 -5 1 -5 -13z"/>
<path d="M2784 2630 c0 -52 1 -74 3 -47 2 26 2 68 0 95 -2 26 -3 4 -3 -48z"/>
<path d="M2842 2690 c0 -19 2 -27 5 -17 2 9 2 25 0 35 -3 9 -5 1 -5 -18z"/>
<path d="M1131 2674 c0 -11 3 -14 6 -6 3 7 2 16 -1 19 -3 4 -6 -2 -5 -13z"/>
<path d="M2993 2645 c0 -22 2 -30 4 -17 2 12 2 30 0 40 -3 9 -5 -1 -4 -23z"/>
<path d="M1221 2654 c0 -11 3 -14 6 -6 3 7 2 16 -1 19 -3 4 -6 -2 -5 -13z"/>
<path d="M2910 2625 c0 -30 -3 -35 -24 -35 -15 0 -26 7 -29 18 -3 13 -4 12 -3
-3 1 -15 9 -21 34 -23 31 -3 32 -2 32 37 0 23 -2 41 -5 41 -3 0 -5 -16 -5 -35z"/>
<path d="M1121 2634 c0 -11 3 -14 6 -6 3 7 2 16 -1 19 -3 4 -6 -2 -5 -13z"/>
<path d="M291 2614 c0 -11 3 -14 6 -6 3 7 2 16 -1 19 -3 4 -6 -2 -5 -13z"/>
<path d="M1299 2613 c-13 -16 -12 -17 3 -4 10 7 25 11 33 7 9 -3 13 -2 10 4
-10 15 -31 12 -46 -7z"/>
<path d="M1212 2600 c0 -14 2 -19 5 -12 2 6 2 18 0 25 -3 6 -5 1 -5 -13z"/>
<path d="M1113 2530 c0 -41 2 -58 4 -37 2 20 2 54 0 75 -2 20 -4 3 -4 -38z"/>
<path d="M1289 2573 c15 -30 14 -41 -6 -47 -14 -4 -14 -4 2 -3 25 3 30 27 10
52 -16 20 -16 19 -6 -2z"/>
<path d="M1220 2561 c0 -10 29 -36 34 -30 1 2 -6 12 -16 22 -10 9 -18 13 -18
8z"/>
<path d="M3003 2510 c0 -30 2 -43 4 -27 2 15 2 39 0 55 -2 15 -4 2 -4 -28z"/>
<path d="M2859 2523 c-13 -16 -12 -17 4 -4 9 7 17 15 17 17 0 8 -8 3 -21 -13z"/>
<path d="M2917 2530 c6 -8 13 -33 16 -55 l4 -40 1 41 c1 29 -3 46 -15 55 -16
12 -17 12 -6 -1z"/>
<path d="M1363 2490 c0 -25 2 -35 4 -22 2 12 2 32 0 45 -2 12 -4 2 -4 -23z"/>
<path d="M2791 2519 c-1 -9 7 -23 17 -30 15 -12 16 -12 6 1 -6 8 -14 22 -17
30 -5 13 -6 12 -6 -1z"/>
<path d="M1260 2476 c17 -10 27 -26 31 -53 l6 -38 2 37 c1 28 -4 41 -21 52
-12 9 -27 16 -33 16 -5 -1 1 -7 15 -14z"/>
<path d="M1211 2433 c1 -53 6 -49 11 10 2 20 0 37 -4 37 -4 0 -8 -21 -7 -47z"/>
<path d="M1122 2410 c0 -14 2 -19 5 -12 2 6 2 18 0 25 -3 6 -5 1 -5 -13z"/>
<path d="M1372 2400 c0 -14 2 -19 5 -12 2 6 2 18 0 25 -3 6 -5 1 -5 -13z"/>
<path d="M2992 2380 c0 -19 2 -27 5 -17 2 9 2 25 0 35 -3 9 -5 1 -5 -18z"/>
<path d="M1131 2364 c0 -11 3 -14 6 -6 3 7 2 16 -1 19 -3 4 -6 -2 -5 -13z"/>
<path d="M1302 2345 c0 -16 2 -22 5 -12 2 9 2 23 0 30 -3 6 -5 -1 -5 -18z"/>
<path d="M1382 2340 c0 -14 2 -19 5 -12 2 6 2 18 0 25 -3 6 -5 1 -5 -13z"/>
<path d="M1231 2330 c0 -14 28 -72 29 -59 0 4 -7 22 -15 40 -8 19 -14 27 -14
19z"/>
<path d="M2981 2314 c0 -11 3 -14 6 -6 3 7 2 16 -1 19 -3 4 -6 -2 -5 -13z"/>
<path d="M1391 2294 c0 -11 3 -14 6 -6 3 7 2 16 -1 19 -3 4 -6 -2 -5 -13z"/>
<path d="M1311 2284 c0 -11 3 -14 6 -6 3 7 2 16 -1 19 -3 4 -6 -2 -5 -13z"/>
<path d="M2882 2270 c0 -14 2 -19 5 -12 2 6 2 18 0 25 -3 6 -5 1 -5 -13z"/>
<path d="M2971 2274 c0 -11 3 -14 6 -6 3 7 2 16 -1 19 -3 4 -6 -2 -5 -13z"/>
<path d="M1160 2272 c0 -16 57 -72 74 -72 6 0 -2 9 -18 19 -16 11 -35 30 -42
43 -8 13 -13 17 -14 10z"/>
<path d="M1401 2254 c0 -11 3 -14 6 -6 3 7 2 16 -1 19 -3 4 -6 -2 -5 -13z"/>
<path d="M1322 2240 c0 -14 2 -19 5 -12 2 6 2 18 0 25 -3 6 -5 1 -5 -13z"/>
<path d="M1411 2220 c0 -8 4 -24 9 -35 5 -13 9 -14 9 -5 0 8 -4 24 -9 35 -5
13 -9 14 -9 5z"/>
<path d="M445 2184 c-20 -20 -16 -86 10 -184 15 -56 13 -36 -7 83 -14 77 -6
102 32 102 18 0 29 -11 47 -45 13 -25 21 -34 18 -20 -17 65 -67 97 -100 64z"/>
<path d="M1430 2155 c0 -5 5 -17 10 -25 5 -8 10 -10 10 -5 0 6 -5 17 -10 25
-5 8 -10 11 -10 5z"/>
<path d="M1450 2105 c0 -5 5 -17 10 -25 5 -8 10 -10 10 -5 0 6 -5 17 -10 25
-5 8 -10 11 -10 5z"/>
<path d="M552 2080 c0 -8 4 -26 8 -40 6 -20 8 -21 8 -5 0 11 -3 29 -8 40 -5
12 -8 14 -8 5z"/>
<path d="M1370 2075 c0 -5 5 -17 10 -25 5 -8 10 -10 10 -5 0 6 -5 17 -10 25
-5 8 -10 11 -10 5z"/>
<path d="M698 2053 c-9 -10 -18 -29 -22 -43 l-6 -25 13 26 c6 14 18 33 26 43
18 22 8 21 -11 -1z"/>
<path d="M739 2045 c17 -34 31 -51 31 -39 0 7 -9 22 -21 35 -16 19 -18 20 -10
4z"/>
<path d="M1390 2026 c0 -11 50 -106 55 -106 3 0 -7 24 -21 53 -28 55 -34 65
-34 53z"/>
<path d="M343 1965 c0 -33 2 -45 4 -27 2 18 2 45 0 60 -2 15 -4 0 -4 -33z"/>
<path d="M572 1985 c0 -16 2 -22 5 -12 2 9 2 23 0 30 -3 6 -5 -1 -5 -18z"/>
<path d="M1510 1980 c6 -11 13 -20 16 -20 2 0 0 9 -6 20 -6 11 -13 20 -16 20
-2 0 0 -9 6 -20z"/>
<path d="M777 1970 c3 -14 12 -41 20 -60 11 -30 12 -31 8 -6 -4 16 -13 43 -20
60 -11 23 -13 25 -8 6z"/>
<path d="M681 1964 c0 -11 3 -14 6 -6 3 7 2 16 -1 19 -3 4 -6 -2 -5 -13z"/>
<path d="M950 1959 c-7 -11 -13 -46 -15 -77 l-4 -57 9 60 c16 97 46 109 81 31
10 -22 19 -35 19 -28 0 7 -9 31 -20 52 -23 45 -52 53 -70 19z"/>
<path d="M241 1954 c0 -11 3 -14 6 -6 3 7 2 16 -1 19 -3 4 -6 -2 -5 -13z"/>
<path d="M582 1920 c0 -19 2 -27 5 -17 2 9 2 25 0 35 -3 9 -5 1 -5 -18z"/>
<path d="M1299 1933 c-11 -15 -11 -16 1 -5 26 22 45 13 73 -38 15 -27 32 -52
37 -55 5 -3 -6 21 -26 54 -38 64 -61 75 -85 44z"/>
<path d="M1538 1935 c6 -11 25 -36 42 -55 l32 -35 -33 45 c-40 55 -55 72 -41
45z"/>
<path d="M472 1925 c0 -11 4 -31 8 -45 6 -20 8 -21 8 -5 0 11 -4 31 -8 45 -6
20 -8 21 -8 5z"/>
<path d="M692 1915 c0 -16 2 -22 5 -12 2 9 2 23 0 30 -3 6 -5 -1 -5 -18z"/>
<path d="M1280 1904 c0 -6 7 -19 16 -30 14 -18 14 -18 3 6 -14 31 -19 36 -19
24z"/>
<path d="M1459 1893 c6 -10 22 -31 36 -48 20 -23 19 -18 -6 18 -32 46 -49 63
-30 30z"/>
<path d="M593 1845 c0 -22 2 -30 4 -17 2 12 2 30 0 40 -3 9 -5 -1 -4 -23z"/>
<path d="M351 1854 c0 -11 3 -14 6 -6 3 7 2 16 -1 19 -3 4 -6 -2 -5 -13z"/>
<path d="M702 1800 c-1 -41 -5 -86 -7 -100 l-6 -25 11 24 c6 14 9 59 7 100
l-3 76 -2 -75z"/>
<path d="M811 1863 c-1 -15 67 -209 86 -248 20 -38 43 -65 57 -65 6 0 3 5 -7
11 -24 14 -44 56 -93 194 -24 66 -43 115 -43 108z"/>
<path d="M492 1830 c0 -14 2 -19 5 -12 2 6 2 18 0 25 -3 6 -5 1 -5 -13z"/>
<path d="M1325 1825 c62 -107 188 -233 286 -284 33 -18 62 -31 64 -29 2 2 -25
18 -60 36 -78 41 -175 128 -235 212 -59 82 -76 102 -55 65z"/>
<path d="M1625 1821 c21 -24 95 -86 95 -79 0 2 -26 26 -57 53 -32 27 -49 39
-38 26z"/>
<path d="M2615 1797 c-28 -23 -61 -50 -75 -60 -24 -17 -24 -17 8 0 31 17 133
102 122 102 -3 0 -28 -19 -55 -42z"/>
<path d="M941 1809 c-1 -8 19 -55 44 -104 55 -107 57 -146 10 -156 -28 -6 -28
-7 -4 -8 59 -3 64 49 13 146 -20 37 -42 84 -49 103 -8 19 -14 28 -14 19z"/>
<path d="M1445 1788 c15 -21 33 -38 40 -38 16 0 45 33 44 51 0 8 -4 4 -9 -9
-16 -38 -38 -38 -71 -1 l-30 34 26 -37z"/>
<path d="M282 1780 c0 -14 2 -19 5 -12 2 6 2 18 0 25 -3 6 -5 1 -5 -13z"/>
<path d="M502 1770 c0 -19 2 -27 5 -17 2 9 2 25 0 35 -3 9 -5 1 -5 -18z"/>
<path d="M602 1775 c0 -16 2 -22 5 -12 2 9 2 23 0 30 -3 6 -5 -1 -5 -18z"/>
<path d="M380 1753 c0 -5 12 -20 28 -34 l27 -24 -25 30 c-14 17 -26 32 -27 34
-2 2 -3 0 -3 -6z"/>
<path d="M1547 1742 c-10 -10 -17 -25 -17 -33 1 -14 57 -60 115 -94 36 -21 14
-2 -49 43 -58 40 -67 59 -37 84 13 10 19 18 14 18 -6 0 -17 -8 -26 -18z"/>
<path d="M1601 1758 c2 -2 27 -23 54 -48 l50 -45 -45 48 c-24 26 -48 47 -54
47 -5 0 -7 -1 -5 -2z"/>
<path d="M2720 1738 c-43 -47 -12 -118 53 -118 32 0 67 24 67 46 0 4 -7 -2
-16 -14 -19 -28 -74 -30 -97 -4 -36 40 -9 102 44 102 32 0 50 -13 66 -47 11
-25 12 -25 7 -3 -15 61 -83 82 -124 38z"/>
<path d="M2340 1735 c-14 -8 -20 -14 -15 -14 6 0 21 6 35 14 14 8 21 14 15 14
-5 0 -21 -6 -35 -14z"/>
<path d="M611 1724 c0 -11 3 -14 6 -6 3 7 2 16 -1 19 -3 4 -6 -2 -5 -13z"/>
<path d="M1745 1718 c9 -15 13 -33 9 -39 -4 -8 -3 -9 4 -5 17 10 15 20 -9 47
l-20 24 16 -27z"/>
<path d="M498 1707 c-3 -19 -2 -25 4 -19 6 6 8 18 6 28 -3 14 -5 12 -10 -9z"/>
<path d="M2260 1705 c-19 -7 -28 -14 -20 -14 8 0 29 6 45 14 39 17 21 18 -25
0z"/>
<path d="M2460 1695 c-25 -13 -41 -24 -37 -25 11 0 87 39 87 45 0 7 0 7 -50
-20z"/>
<path d="M447 1689 c7 -7 15 -10 18 -7 3 3 -2 9 -12 12 -14 6 -15 5 -6 -5z"/>
<path d="M620 1694 c0 -7 9 -22 19 -35 19 -23 21 -23 35 -7 9 10 11 13 4 8
-19 -15 -26 -12 -42 18 -8 15 -15 22 -16 16z"/>
<path d="M2171 1676 c-9 -11 -10 -20 -1 -35 6 -12 13 -21 16 -21 2 0 0 9 -6
19 -14 27 -13 30 13 41 15 6 17 9 6 9 -9 1 -22 -5 -28 -13z"/>
<path d="M2380 1660 c-8 -5 -10 -10 -5 -10 6 0 17 5 25 10 8 5 11 10 5 10 -5
0 -17 -5 -25 -10z"/>
<path d="M2315 1640 c-13 -5 -14 -9 -5 -9 8 0 24 4 35 9 13 5 14 9 5 9 -8 0
-24 -4 -35 -9z"/>
<path d="M2253 1623 c9 -2 23 -2 30 0 6 3 -1 5 -18 5 -16 0 -22 -2 -12 -5z"/>
<path d="M3196 1572 c7 -4 19 -23 27 -42 l15 -35 1 38 c1 26 5 37 16 37 13 0
21 -27 15 -55 -1 -5 14 5 33 23 47 46 61 23 16 -24 l-34 -35 37 15 c49 21 58
20 58 -4 0 -17 -7 -20 -42 -20 l-43 0 39 -26 c32 -22 36 -28 23 -36 -11 -6
-25 -3 -42 8 -25 16 -25 16 -24 -12 1 -16 3 -21 6 -12 4 14 8 15 29 6 20 -9
28 -8 41 5 15 15 15 18 -8 36 l-24 20 28 1 c23 0 27 4 27 30 0 23 -5 30 -19
30 -14 0 -18 5 -14 18 2 10 -2 24 -10 30 -11 9 -18 8 -32 -8 -23 -25 -35 -25
-35 0 0 15 -7 20 -25 20 -14 0 -25 -5 -25 -12 0 -9 -3 -9 -12 0 -7 7 -17 12
-22 12 -7 0 -7 -3 0 -8z"/>
<path d="M1750 1560 c8 -5 20 -10 25 -10 6 0 3 5 -5 10 -8 5 -19 10 -25 10 -5
0 -3 -5 5 -10z"/>
<path d="M3142 1561 c-10 -6 -7 -13 15 -30 l28 -22 -27 6 c-26 5 -28 3 -28
-24 0 -21 6 -30 22 -35 13 -3 27 -1 32 4 7 7 0 10 -17 10 -20 0 -27 5 -27 20
0 18 2 18 42 4 l43 -15 -39 40 c-33 34 -36 40 -20 44 12 3 14 5 4 6 -8 0 -21
-3 -28 -8z"/>
<path d="M1808 1534 c28 -19 24 -36 -9 -45 -22 -6 -22 -7 -3 -8 12 -1 27 6 34
14 10 13 10 19 -5 35 -10 11 -23 20 -29 20 -6 0 0 -7 12 -16z"/>
<path d="M1728 1493 c6 -2 18 -2 25 0 6 3 1 5 -13 5 -14 0 -19 -2 -12 -5z"/>
<path d="M2447 1452 c-40 -45 -6 -122 53 -122 59 0 90 67 54 118 -20 28 -83
31 -107 4z m97 -8 c37 -36 7 -104 -45 -104 -36 0 -59 24 -59 60 0 16 7 36 16
44 8 9 28 16 44 16 16 0 36 -7 44 -16z"/>
<path d="M3137 1443 c-4 -3 -7 -13 -7 -21 0 -14 13 -13 54 3 18 8 18 7 2 -18
-17 -25 -17 -26 5 -38 19 -10 25 -9 40 10 21 26 29 27 29 1 0 -15 6 -20 28
-19 23 2 24 2 5 6 -18 3 -23 11 -23 34 0 16 -4 29 -10 29 -5 0 -10 -3 -10 -7
-1 -5 -9 -18 -20 -31 -14 -17 -24 -21 -35 -15 -14 8 -14 12 5 35 28 36 25 40
-16 23 -45 -19 -50 -19 -34 0 12 14 0 22 -13 8z"/>
<path d="M2802 1400 c-39 -9 -95 -60 -112 -101 -23 -54 -5 -98 65 -166 36 -34
90 -73 121 -88 145 -69 328 -59 380 20 14 22 14 27 -1 58 -9 20 -40 53 -68 76
-29 22 -89 69 -134 105 -106 82 -182 112 -251 96z m133 -34 c28 -12 70 -40 95
-60 24 -21 64 -52 89 -69 l44 -30 -22 -19 c-30 -24 -38 -23 -45 7 -7 27 -62
95 -77 95 -6 0 -18 -20 -29 -45 -11 -25 -24 -45 -30 -45 -5 0 -10 22 -10 49 0
68 -20 84 -60 46 l-29 -27 -7 37 c-8 46 -25 53 -70 26 -58 -35 -79 1 -21 38
43 28 109 27 172 -3z"/>
<path d="M3535 1380 c-44 -48 -10 -120 56 -120 28 0 42 6 53 22 22 30 20 81
-2 101 -26 24 -85 22 -107 -3z m105 -22 c13 -25 13 -31 0 -55 -30 -53 -110
-34 -110 25 0 63 79 84 110 30z"/>
<path d="M1843 1271 c-47 -12 -78 -35 -93 -70 -52 -125 167 -287 338 -250 164
35 138 207 -42 290 -66 30 -152 43 -203 30z m122 -16 c51 -9 112 -40 125 -65
9 -16 2 -15 -37 10 -27 16 -64 32 -83 35 l-35 6 38 -15 c57 -21 116 -64 129
-91 8 -19 8 -35 -1 -65 -6 -22 -15 -39 -19 -39 -24 4 -52 -2 -47 -10 3 -5 0
-13 -6 -17 -8 -4 -9 -3 -5 4 5 8 -5 10 -31 8 -55 -5 -121 18 -159 55 -19 18
-34 28 -34 22 0 -6 7 -16 15 -23 8 -7 15 -17 15 -23 0 -6 -14 2 -30 18 -52 50
-59 123 -16 164 22 21 96 42 126 36 8 -2 33 -6 55 -10z"/>
<path d="M1858 1233 c7 -3 16 -2 19 1 4 3 -2 6 -13 5 -11 0 -14 -3 -6 -6z"/>
<path d="M1805 1210 c-26 -28 -15 -31 12 -3 12 13 19 23 14 23 -4 0 -16 -9
-26 -20z"/>
<path d="M1782 1150 c0 -14 2 -19 5 -12 2 6 2 18 0 25 -3 6 -5 1 -5 -13z"/>
<path d="M1359 1182 c-20 -17 -21 -21 -8 -39 55 -77 343 -443 348 -443 3 0 16
9 29 18 l24 18 -182 232 c-99 128 -182 232 -184 232 -2 0 -14 -8 -27 -18z"/>
<path d="M895 964 c-8 -13 -15 -27 -15 -31 0 -4 51 -38 113 -75 61 -36 170
-101 240 -143 70 -42 134 -78 142 -81 8 -4 19 6 29 23 l14 29 -253 151 -254
151 -16 -24z"/>
<path d="M2307 662 l-269 -66 6 -30 c4 -16 8 -31 10 -33 3 -4 564 132 570 138
2 2 2 16 -1 32 -4 20 -11 27 -27 26 -11 0 -142 -30 -289 -67z"/>
<path d="M1801 624 c-34 -43 -26 -86 20 -110 35 -18 74 -10 94 19 53 76 -57
163 -114 91z m85 8 c26 -17 35 -51 22 -80 -23 -48 -100 -39 -111 13 -8 47 52
92 89 67z"/>
<path d="M3131 2028 c-1 -23 3 -28 22 -27 15 1 17 3 5 6 -9 2 -19 14 -21 26
-4 18 -5 17 -6 -5z"/>
<path d="M2660 1946 c0 -2 7 -7 16 -10 8 -3 12 -2 9 4 -6 10 -25 14 -25 6z"/>
<path d="M4652 4463 c1 -67 1 -67 7 -18 6 54 15 52 26 -8 4 -20 13 -37 20 -37
7 0 16 17 20 37 11 60 20 62 26 8 6 -49 6 -49 7 18 2 53 -1 67 -13 67 -8 0
-19 -16 -25 -40 -6 -22 -13 -40 -15 -40 -2 0 -9 18 -15 40 -6 24 -17 40 -25
40 -12 0 -15 -14 -13 -67z"/>
<path d="M5051 4467 l2 -64 31 0 c40 0 56 13 56 47 0 34 -22 54 -50 45 -16 -5
-20 -2 -20 14 0 12 -5 21 -10 21 -6 0 -10 -26 -9 -63z m64 -17 c0 -15 -6 -26
-16 -28 -19 -3 -31 21 -22 43 9 25 38 13 38 -15z"/>
<path d="M4802 4488 c-36 -36 4 -101 48 -78 29 15 25 20 -10 14 -19 -4 -30 -2
-30 5 0 6 14 11 30 11 34 0 40 19 14 44 -19 19 -36 20 -52 4z m48 -18 c0 -5
-9 -10 -20 -10 -11 0 -20 5 -20 10 0 6 9 10 20 10 11 0 20 -4 20 -10z"/>
<path d="M4890 4448 c0 -26 5 -48 10 -48 6 0 10 11 10 24 0 35 10 56 26 56 10
0 14 -12 14 -40 0 -51 18 -53 22 -2 2 25 8 37 18 37 10 0 16 -12 18 -37 4 -46
22 -51 22 -5 0 52 -12 61 -79 62 l-61 1 0 -48z"/>
<path d="M5160 4448 c0 -26 5 -48 10 -48 6 0 10 11 10 24 0 35 10 56 26 56 8
0 14 4 14 8 0 5 -13 9 -30 9 -29 0 -30 -2 -30 -49z"/>
<path d="M5240 4485 c-11 -13 -8 -14 21 -9 23 5 31 3 24 -4 -5 -5 -19 -12 -30
-14 -19 -3 -35 -47 -18 -49 70 -10 73 -8 73 30 0 56 -40 82 -70 46z m50 -45
c0 -12 -28 -25 -36 -17 -9 9 6 27 22 27 8 0 14 -5 14 -10z"/>
<path d="M5341 4445 l1 -50 10 43 c12 56 41 56 46 -1 2 -20 7 -37 12 -37 10 0
6 72 -4 89 -4 6 -20 9 -36 8 -29 -2 -30 -3 -29 -52z"/>
<path d="M5450 4485 c-11 -13 -8 -14 21 -9 23 5 31 3 24 -4 -5 -5 -19 -12 -30
-14 -19 -3 -35 -47 -18 -49 70 -10 73 -8 73 30 0 56 -40 82 -70 46z m50 -45
c0 -12 -28 -25 -36 -17 -9 9 6 27 22 27 8 0 14 -5 14 -10z"/>
<path d="M5196 4314 c-5 -14 -4 -15 9 -4 17 14 19 20 6 20 -5 0 -12 -7 -15
-16z"/>
<path d="M4760 4255 c0 -38 2 -66 5 -63 7 7 9 118 1 125 -3 3 -6 -24 -6 -62z"/>
<path d="M5267 4298 c-7 -20 7 -101 18 -105 8 -2 12 62 6 110 -2 12 -18 8 -24
-5z"/>
<path d="M4649 4265 c-1 -11 -2 -31 -3 -45 -1 -14 1 -36 5 -50 7 -25 7 -25 8
3 1 24 4 27 21 22 28 -9 50 11 50 45 0 34 -17 49 -52 47 -20 -2 -28 -8 -29
-22z m56 -25 c0 -15 -6 -26 -16 -28 -19 -3 -31 21 -22 43 9 25 38 13 38 -15z"/>
<path d="M4810 4275 c-11 -13 -8 -14 21 -9 23 5 31 3 24 -4 -5 -5 -19 -12 -30
-14 -19 -3 -35 -47 -18 -49 67 -9 73 -7 73 23 0 59 -40 89 -70 53z m50 -45 c0
-12 -28 -25 -36 -17 -9 9 6 27 22 27 8 0 14 -5 14 -10z"/>
<path d="M4909 4274 c-11 -14 -10 -18 6 -30 10 -8 25 -14 32 -14 7 0 13 -5 13
-11 0 -8 -11 -9 -31 -5 -27 5 -30 4 -19 -9 16 -20 44 -19 61 1 11 14 10 18 -6
30 -10 8 -25 14 -32 14 -7 0 -13 5 -13 11 0 7 10 9 25 5 27 -7 35 8 9 18 -24
9 -30 8 -45 -10z"/>
<path d="M5000 4238 c0 -56 17 -65 22 -11 2 27 8 39 21 41 14 3 17 -4 17 -37
0 -51 18 -54 22 -3 2 25 8 37 18 37 10 0 16 -12 18 -37 4 -46 22 -51 22 -5 0
52 -12 61 -79 62 l-61 1 0 -48z"/>
<path d="M5170 4275 c-11 -13 -8 -14 21 -9 23 5 31 3 24 -4 -5 -5 -19 -12 -30
-14 -19 -3 -35 -47 -18 -49 70 -10 73 -8 73 30 0 56 -40 82 -70 46z m50 -45
c0 -12 -28 -25 -36 -17 -9 9 6 27 22 27 8 0 14 -5 14 -10z"/>
<path d="M5330 4240 c0 -29 3 -50 7 -46 7 7 5 87 -3 95 -2 2 -4 -20 -4 -49z"/>
<path d="M5386 4274 c-9 -8 -16 -24 -16 -34 0 -21 25 -50 44 -50 19 0 40 27
27 34 -5 3 -11 1 -13 -6 -7 -19 -38 -1 -38 22 0 23 31 41 38 22 2 -7 8 -9 13
-6 13 7 -8 34 -27 34 -7 0 -20 -7 -28 -16z"/>
<path d="M5480 4275 c-11 -13 -8 -14 21 -9 23 5 31 3 24 -4 -5 -5 -19 -12 -30
-14 -19 -3 -35 -47 -18 -49 70 -10 73 -8 73 30 0 56 -40 82 -70 46z m50 -45
c0 -12 -28 -25 -36 -17 -9 9 6 27 22 27 8 0 14 -5 14 -10z"/>
<path d="M4630 4050 c-11 -11 -20 -31 -20 -45 0 -27 31 -65 54 -65 8 0 24 9
37 20 l24 20 -41 -6 c-45 -7 -61 9 -48 49 5 16 12 18 47 13 41 -7 41 -7 22 14
-23 25 -49 26 -75 0z"/>
<path d="M5131 4003 c2 -70 6 -63 11 20 2 26 0 47 -4 47 -5 0 -7 -30 -7 -67z"/>
<path d="M4756 4024 c-9 -8 -16 -24 -16 -34 0 -22 25 -50 45 -50 41 0 61 71
26 90 -27 14 -37 13 -55 -6z m49 -34 c0 -29 -32 -41 -41 -16 -9 24 4 48 23 44
12 -2 18 -12 18 -28z"/>
<path d="M4850 3988 c0 -56 17 -65 22 -11 2 27 8 39 21 41 14 3 17 -4 17 -37
0 -51 18 -54 22 -3 2 25 8 37 18 37 10 0 16 -12 18 -37 4 -46 22 -51 22 -5 0
52 -12 61 -79 62 l-61 1 0 -48z"/>
<path d="M5015 3974 c0 -34 3 -66 8 -70 4 -4 7 5 7 20 0 22 4 27 16 22 26 -10
54 12 54 43 0 35 -16 48 -55 48 l-30 0 0 -63z m60 16 c0 -15 -6 -26 -16 -28
-19 -3 -31 21 -22 43 9 25 38 13 38 -15z"/>
<path d="M5188 4029 c-25 -14 -24 -65 2 -79 14 -8 26 -8 40 0 29 15 25 20 -10
14 -19 -4 -30 -2 -30 5 0 6 14 11 30 11 34 0 40 19 14 44 -18 19 -23 19 -46 5z
m42 -19 c0 -5 -9 -10 -20 -10 -11 0 -20 5 -20 10 0 6 9 10 20 10 11 0 20 -4
20 -10z"/>
<path d="M5283 4016 c14 -21 14 -26 0 -45 -19 -28 -7 -43 13 -17 14 20 14 20
28 0 20 -26 32 -11 13 17 -14 19 -14 24 0 45 16 25 6 33 -15 12 -9 -9 -15 -9
-24 0 -21 21 -31 13 -15 -12z"/>
<path d="M5386 4024 c-9 -8 -16 -24 -16 -34 0 -22 25 -50 45 -50 41 0 61 71
26 90 -27 14 -37 13 -55 -6z m49 -34 c0 -29 -32 -41 -41 -16 -9 24 4 48 23 44
12 -2 18 -12 18 -28z"/>
<path d="M4843 3795 c0 -38 2 -53 4 -32 2 20 2 52 0 70 -2 17 -4 1 -4 -38z"/>
<path d="M4621 3817 c-14 -14 -14 -43 0 -69 8 -15 17 -18 36 -13 18 4 24 2 20
-7 -2 -8 -17 -12 -38 -10 -32 3 -33 2 -17 -14 22 -22 64 -12 72 18 3 13 6 41
6 64 0 39 -1 40 -34 41 -19 1 -39 -4 -45 -10z m53 -22 c8 -21 -3 -45 -20 -45
-8 0 -17 7 -20 15 -8 21 2 45 20 45 7 0 16 -7 20 -15z"/>
<path d="M4736 3814 c-9 -8 -16 -24 -16 -34 0 -22 25 -50 45 -50 20 0 45 28
45 50 0 22 -25 50 -45 50 -7 0 -21 -7 -29 -16z m49 -34 c0 -29 -32 -41 -41
-16 -9 24 4 48 23 44 12 -2 18 -12 18 -28z"/>
<path d="M4891 3817 c-14 -14 -14 -43 0 -69 8 -15 17 -18 36 -13 18 4 24 2 20
-7 -2 -8 -17 -12 -38 -10 -32 3 -33 2 -17 -14 22 -22 64 -12 72 18 3 13 6 41
6 64 0 39 -1 40 -34 41 -19 1 -39 -4 -45 -10z m53 -22 c8 -21 -3 -45 -20 -45
-8 0 -17 7 -20 15 -8 21 2 45 20 45 7 0 16 -7 20 -15z"/>
<path d="M5000 3780 c0 -29 3 -50 7 -46 7 7 5 87 -3 95 -2 2 -4 -20 -4 -49z"/>
<path d="M5058 3819 c-25 -14 -24 -65 2 -79 14 -8 26 -8 40 0 29 15 25 20 -10
14 -19 -4 -30 -2 -30 5 0 6 14 11 30 11 34 0 40 19 14 44 -18 19 -23 19 -46 5z
m42 -19 c0 -5 -9 -10 -20 -10 -11 0 -20 5 -20 10 0 6 9 10 20 10 11 0 20 -4
20 -10z"/>
<path d="M5150 3776 c0 -53 11 -57 15 -6 3 37 9 44 30 37 9 -4 15 -19 15 -42
0 -19 4 -35 9 -35 9 0 5 76 -5 92 -3 4 -18 6 -34 5 -29 -2 -30 -4 -30 -51z"/>
<path d="M5259 3814 c-11 -14 -10 -18 6 -30 10 -8 25 -14 32 -14 7 0 13 -5 13
-11 0 -8 -11 -9 -31 -5 -27 5 -30 4 -19 -9 16 -20 44 -19 61 1 11 14 10 18 -6
30 -10 8 -25 14 -32 14 -7 0 -13 5 -13 11 0 7 10 9 25 7 28 -6 34 6 9 16 -24
9 -30 8 -45 -10z"/>
<path d="M5368 3819 c-25 -14 -24 -65 2 -79 14 -8 26 -8 40 0 29 15 25 20 -10
14 -19 -4 -30 -2 -30 5 0 6 14 11 30 11 34 0 40 19 14 44 -18 19 -23 19 -46 5z
m42 -19 c0 -5 -9 -10 -20 -10 -11 0 -20 5 -20 10 0 6 9 10 20 10 11 0 20 -4
20 -10z"/>
<path d="M4650 3495 c0 -37 4 -65 10 -65 6 0 10 11 10 25 0 33 19 32 46 -2 12
-16 26 -25 30 -21 4 5 -1 17 -10 27 -16 18 -16 21 -1 44 15 23 15 26 0 41 -9
9 -32 16 -51 16 l-34 0 0 -65z m70 25 c0 -5 -11 -10 -25 -10 -14 0 -25 5 -25
10 0 6 11 10 25 10 14 0 25 -4 25 -10z"/>
<path d="M4780 3550 c0 -5 5 -10 11 -10 5 0 7 5 4 10 -3 6 -8 10 -11 10 -2 0
-4 -4 -4 -10z"/>
<path d="M4820 3497 l0 -64 33 0 c41 0 57 13 57 47 0 34 -22 54 -50 45 -16 -5
-20 -2 -20 14 0 12 -4 21 -10 21 -6 0 -10 -28 -10 -63z m65 -17 c0 -15 -6 -26
-16 -28 -19 -3 -31 21 -22 43 9 25 38 13 38 -15z"/>
<path d="M4780 3482 c0 -29 4 -52 8 -52 8 0 5 91 -4 99 -2 2 -4 -19 -4 -47z"/>
<path d="M4946 3514 c-9 -8 -16 -24 -16 -34 0 -22 25 -50 45 -50 20 0 45 28
45 50 0 22 -25 50 -45 50 -7 0 -21 -7 -29 -16z m49 -34 c0 -29 -32 -41 -41
-16 -9 24 4 48 23 44 12 -2 18 -12 18 -28z"/>
<path d="M5051 3521 c-20 -13 -6 -39 24 -47 37 -9 31 -28 -6 -20 -27 5 -30 4
-19 -9 16 -20 44 -19 61 1 11 14 10 18 -6 30 -10 8 -25 14 -32 14 -7 0 -13 5
-13 11 0 7 10 9 25 5 27 -7 35 8 9 18 -20 8 -26 7 -43 -3z"/>
<path d="M5149 3514 c-11 -14 -10 -18 6 -30 10 -8 25 -14 32 -14 7 0 13 -5 13
-11 0 -8 -11 -9 -31 -5 -27 5 -30 4 -19 -9 16 -20 44 -19 61 1 11 14 10 18 -6
30 -10 8 -25 14 -32 14 -7 0 -13 5 -13 11 0 7 10 9 25 7 28 -6 34 6 9 16 -24
9 -30 8 -45 -10z"/>
<path d="M5256 3514 c-9 -8 -16 -24 -16 -34 0 -22 25 -50 45 -50 41 0 61 71
26 90 -27 14 -37 13 -55 -6z m49 -34 c0 -29 -32 -41 -41 -16 -9 24 4 48 23 44
12 -2 18 -12 18 -28z"/>
<path d="M5350 3478 c0 -56 17 -65 22 -11 2 27 8 39 21 41 14 3 17 -4 17 -37
0 -51 18 -54 22 -3 2 25 8 37 18 37 10 0 16 -12 18 -37 4 -46 22 -51 22 -5 0
52 -12 61 -79 62 l-61 1 0 -48z"/>
<path d="M5526 3514 c-9 -8 -16 -24 -16 -34 0 -22 25 -50 45 -50 20 0 45 28
45 50 0 22 -25 50 -45 50 -7 0 -21 -7 -29 -16z m49 -34 c0 -29 -32 -41 -41
-16 -9 24 4 48 23 44 12 -2 18 -12 18 -28z"/>
<path d="M4670 3250 c-11 -11 -20 -31 -20 -45 0 -27 31 -65 54 -65 8 0 24 9
37 20 l24 20 -41 -6 c-45 -7 -61 9 -48 49 5 16 12 18 47 13 41 -7 41 -7 22 14
-23 25 -49 26 -75 0z"/>
<path d="M5120 3205 c0 -38 3 -65 7 -62 7 7 5 118 -2 126 -3 2 -5 -26 -5 -64z"/>
<path d="M4837 3248 c-7 -20 7 -101 18 -105 8 -2 12 62 6 110 -2 12 -18 8 -24
-5z"/>
<path d="M4790 3192 c0 -29 3 -52 8 -52 9 0 9 87 -1 96 -4 4 -7 -16 -7 -44z"/>
<path d="M4906 3224 c-9 -8 -16 -24 -16 -34 0 -22 25 -50 45 -50 20 0 45 28
45 50 0 22 -25 50 -45 50 -7 0 -21 -7 -29 -16z m49 -34 c0 -16 -6 -26 -18 -28
-19 -4 -32 20 -23 44 9 25 41 13 41 -16z"/>
<path d="M5009 3235 c-1 0 -2 -30 -4 -67 -1 -38 2 -68 6 -68 5 0 9 12 9 26 0
21 3 24 20 19 28 -9 50 11 50 45 0 34 -17 49 -52 47 -16 -1 -28 -2 -29 -2z
m56 -45 c0 -15 -6 -26 -16 -28 -19 -3 -31 21 -22 43 9 25 38 13 38 -15z"/>
<path d="M5170 3225 c-11 -13 -8 -14 21 -9 23 5 31 3 24 -4 -5 -5 -19 -12 -30
-14 -19 -3 -35 -47 -18 -49 67 -9 73 -7 73 23 0 59 -40 89 -70 53z m50 -45 c0
-12 -28 -25 -36 -17 -9 9 6 27 22 27 8 0 14 -5 14 -10z"/>
<path d="M5271 3231 c-20 -13 -6 -39 24 -47 37 -9 31 -28 -6 -20 -27 5 -30 4
-19 -9 16 -20 44 -19 61 1 11 14 10 18 -6 30 -10 8 -25 14 -32 14 -7 0 -13 5
-13 11 0 7 10 9 25 5 27 -7 35 8 9 18 -20 8 -26 7 -43 -3z"/>
<path d="M5360 3188 c0 -56 17 -65 22 -11 2 27 8 39 21 41 14 3 17 -4 17 -37
0 -51 18 -54 22 -3 2 25 8 37 18 37 10 0 16 -12 18 -37 4 -46 22 -51 22 -5 0
52 -12 61 -79 62 l-61 1 0 -48z"/>
<path d="M5530 3225 c-11 -13 -8 -14 21 -9 23 5 31 3 24 -4 -5 -5 -19 -12 -30
-14 -19 -3 -35 -47 -18 -49 67 -9 73 -7 73 23 0 59 -40 89 -70 53z m50 -45 c0
-12 -28 -25 -36 -17 -9 9 6 27 22 27 8 0 14 -5 14 -10z"/>
<path d="M4630 2865 l0 -65 40 0 c29 0 40 4 40 15 0 10 -10 15 -30 15 -29 0
-30 1 -30 50 0 28 -4 50 -10 50 -6 0 -10 -28 -10 -65z"/>
<path d="M4740 2850 c0 -29 2 -51 4 -49 8 8 10 88 3 95 -4 4 -7 -17 -7 -46z"/>
<path d="M4789 2884 c-11 -14 -10 -18 6 -30 10 -8 25 -14 32 -14 7 0 13 -5 13
-11 0 -8 -11 -9 -32 -5 -31 6 -32 5 -16 -11 14 -14 22 -15 43 -5 33 15 32 31
-5 45 -36 14 -40 32 -5 23 27 -7 35 8 9 18 -24 9 -30 8 -45 -10z"/>
<path d="M4896 2884 c-9 -8 -16 -24 -16 -34 0 -22 25 -50 45 -50 41 0 61 71
26 90 -27 14 -37 13 -55 -6z m49 -34 c0 -29 -32 -41 -41 -16 -9 24 4 48 23 44
12 -2 18 -12 18 -28z"/>
<path d="M4999 2884 c-11 -14 -10 -18 6 -30 10 -8 25 -14 32 -14 7 0 13 -5 13
-11 0 -8 -11 -9 -31 -5 -27 5 -30 4 -19 -9 16 -20 44 -19 61 1 11 14 10 18 -6
30 -10 8 -25 14 -32 14 -7 0 -13 5 -13 11 0 7 10 9 25 5 27 -7 35 8 9 18 -24
9 -30 8 -45 -10z"/>
<path d="M5099 2884 c-11 -14 -10 -18 6 -30 10 -8 25 -14 32 -14 7 0 13 -5 13
-11 0 -8 -11 -9 -31 -5 -27 5 -30 4 -19 -9 16 -20 44 -19 61 1 11 14 10 18 -6
30 -10 8 -25 14 -32 14 -7 0 -13 5 -13 11 0 7 10 9 25 7 28 -6 34 6 9 16 -24
9 -30 8 -45 -10z"/>
<path d="M5206 2884 c-9 -8 -16 -24 -16 -34 0 -22 25 -50 45 -50 20 0 45 28
45 50 0 22 -25 50 -45 50 -7 0 -21 -7 -29 -16z m49 -34 c0 -16 -6 -26 -18 -28
-19 -4 -32 20 -23 44 9 25 41 13 41 -16z"/>
<path d="M5300 2848 c0 -56 17 -65 22 -11 2 27 8 39 21 41 14 3 17 -4 17 -37
0 -51 18 -54 22 -3 2 25 8 37 18 37 10 0 16 -12 18 -37 4 -46 22 -51 22 -5 0
52 -12 61 -79 62 l-61 1 0 -48z"/>
<path d="M5476 2884 c-9 -8 -16 -24 -16 -34 0 -22 25 -50 45 -50 20 0 45 28
45 50 0 22 -25 50 -45 50 -7 0 -21 -7 -29 -16z m49 -34 c0 -29 -32 -41 -41
-16 -9 24 4 48 23 44 12 -2 18 -12 18 -28z"/>
<path d="M4632 2583 c1 -67 1 -67 7 -18 6 54 15 52 26 -8 9 -48 31 -48 40 0
11 60 20 62 26 8 6 -49 6 -49 7 18 2 52 -1 67 -12 67 -9 0 -20 -19 -28 -47
l-14 -48 -12 48 c-8 29 -18 47 -27 47 -12 0 -15 -14 -13 -67z"/>
<path d="M4780 2640 c0 -5 5 -10 11 -10 5 0 7 5 4 10 -3 6 -8 10 -11 10 -2 0
-4 -4 -4 -10z"/>
<path d="M5116 2641 c-3 -5 5 -8 19 -8 14 0 22 3 19 8 -3 5 -11 9 -19 9 -8 0
-16 -4 -19 -9z"/>
<path d="M5380 2629 c0 -16 -4 -19 -20 -14 -28 9 -50 -11 -50 -46 0 -33 11
-41 56 -45 l34 -2 0 64 c0 36 -4 64 -10 64 -5 0 -10 -9 -10 -21z m-6 -44 c8
-21 -3 -45 -20 -45 -8 0 -17 7 -20 15 -8 21 2 45 20 45 7 0 16 -7 20 -15z"/>
<path d="M4827 2628 c-7 -20 7 -101 18 -105 8 -2 12 62 6 110 -2 12 -18 8 -24
-5z"/>
<path d="M4783 2570 c0 -30 2 -43 4 -27 2 15 2 39 0 55 -2 15 -4 2 -4 -28z"/>
<path d="M4896 2604 c-9 -8 -16 -24 -16 -34 0 -22 25 -50 45 -50 20 0 45 28
45 50 0 22 -25 50 -45 50 -7 0 -21 -7 -29 -16z m49 -34 c0 -29 -32 -41 -41
-16 -9 24 4 48 23 44 12 -2 18 -12 18 -28z"/>
<path d="M5006 2604 c-9 -8 -16 -24 -16 -34 0 -21 25 -50 44 -50 19 0 40 27
27 34 -5 3 -11 1 -13 -6 -7 -19 -38 -1 -38 22 0 23 31 41 38 22 2 -7 8 -9 13
-6 13 7 -8 34 -27 34 -7 0 -20 -7 -28 -16z"/>
<path d="M5106 2604 c-9 -8 -16 -24 -16 -34 0 -22 25 -50 45 -50 20 0 45 28
45 50 0 22 -25 50 -45 50 -7 0 -21 -7 -29 -16z m49 -34 c0 -16 -6 -26 -18 -28
-19 -4 -32 20 -23 44 9 25 41 13 41 -16z"/>
<path d="M5211 2565 l1 -50 10 43 c13 57 41 55 48 -3 3 -22 8 -35 11 -30 4 6
4 28 0 50 -6 37 -9 40 -39 40 l-32 1 1 -51z"/>
<path d="M5422 2568 c1 -48 18 -70 18 -24 0 35 10 56 26 56 8 0 14 4 14 8 0 5
-13 9 -30 9 -29 0 -30 -1 -28 -49z"/>
<path d="M5503 2570 c0 -30 2 -43 4 -27 2 15 2 39 0 55 -2 15 -4 2 -4 -28z"/>
<path d="M5550 2605 c-11 -13 -8 -14 21 -9 23 5 31 3 24 -4 -5 -5 -19 -12 -30
-14 -19 -3 -35 -47 -18 -49 70 -10 73 -8 73 30 0 56 -40 82 -70 46z m50 -45
c0 -12 -28 -25 -36 -17 -9 9 6 27 22 27 8 0 14 -5 14 -10z"/>
<path d="M5026 2284 c-5 -14 -4 -15 9 -4 17 14 19 20 6 20 -5 0 -12 -7 -15
-16z"/>
<path d="M4612 2223 c1 -49 3 -56 5 -25 2 23 7 42 11 42 4 0 17 -18 30 -40 12
-22 27 -40 32 -40 6 0 10 29 10 65 0 37 -4 65 -10 65 -5 0 -10 -19 -10 -42 l0
-43 -28 42 c-15 24 -30 43 -34 43 -5 0 -7 -30 -6 -67z"/>
<path d="M4950 2225 c0 -38 3 -66 6 -62 7 7 7 117 -1 125 -3 3 -5 -25 -5 -63z"/>
<path d="M5213 2225 c0 -38 2 -53 4 -32 2 20 2 52 0 70 -2 17 -4 1 -4 -38z"/>
<path d="M4739 2256 c-3 -3 -3 -25 0 -48 6 -41 8 -43 39 -43 l32 -1 -1 51 c-1
27 -3 41 -6 30 -2 -11 -6 -30 -9 -42 -2 -13 -11 -23 -19 -23 -13 0 -19 14 -27
63 -2 11 -6 16 -9 13z"/>
<path d="M4856 2244 c-9 -8 -16 -24 -16 -34 0 -21 25 -50 44 -50 19 0 40 27
27 34 -5 3 -11 1 -13 -6 -7 -19 -38 -1 -38 22 0 23 31 41 38 22 2 -7 8 -9 13
-6 13 7 -8 34 -27 34 -7 0 -20 -7 -28 -16z"/>
<path d="M5008 2249 c-25 -14 -24 -65 2 -79 14 -8 26 -8 40 0 29 15 25 20 -10
14 -19 -4 -30 -2 -30 5 0 6 14 11 30 11 34 0 40 19 14 44 -18 19 -23 19 -46 5z
m42 -19 c0 -5 -9 -10 -20 -10 -11 0 -20 5 -20 10 0 6 9 10 20 10 11 0 20 -4
20 -10z"/>
<path d="M5106 2244 c-9 -8 -16 -24 -16 -34 0 -22 25 -50 45 -50 20 0 45 28
45 50 0 22 -25 50 -45 50 -7 0 -21 -7 -29 -16z m49 -34 c0 -16 -6 -26 -18 -28
-19 -4 -32 20 -23 44 9 25 41 13 41 -16z"/>
<path d="M5266 2244 c-9 -8 -16 -24 -16 -34 0 -22 25 -50 45 -50 20 0 45 28
45 50 0 22 -25 50 -45 50 -7 0 -21 -7 -29 -16z m49 -34 c0 -29 -32 -41 -41
-16 -9 24 4 48 23 44 12 -2 18 -12 18 -28z"/>
<path d="M4787 1983 c-4 -3 -7 -11 -7 -17 0 -6 5 -5 12 2 6 6 9 14 7 17 -3 3
-9 2 -12 -2z"/>
<path d="M4621 1913 c1 -38 4 -54 6 -38 8 58 13 61 39 17 14 -23 29 -42 35
-42 5 0 9 29 9 65 0 37 -4 65 -10 65 -5 0 -10 -19 -10 -42 l-1 -43 -25 43
c-14 23 -30 42 -35 42 -5 0 -8 -30 -8 -67z"/>
<path d="M4960 1917 c0 -37 4 -67 9 -67 9 0 6 118 -3 127 -3 4 -6 -24 -6 -60z"/>
<path d="M4754 1905 c1 -49 1 -50 34 -50 l32 -1 -1 51 c-1 27 -3 41 -6 30 -2
-11 -6 -30 -9 -43 -8 -39 -38 -23 -45 23 -7 38 -7 38 -5 -10z"/>
<path d="M4866 1934 c-9 -8 -16 -24 -16 -34 0 -21 25 -50 44 -50 19 0 40 27
27 34 -5 3 -11 1 -13 -6 -7 -19 -38 -1 -38 22 0 23 31 41 38 22 2 -7 8 -9 13
-6 13 7 -8 34 -27 34 -7 0 -20 -7 -28 -16z"/>
<path d="M5018 1939 c-25 -14 -24 -65 2 -79 14 -8 26 -8 40 0 29 15 25 20 -10
14 -19 -4 -30 -2 -30 5 0 6 14 11 30 11 34 0 40 19 14 44 -18 19 -23 19 -46 5z
m42 -19 c0 -5 -9 -10 -20 -10 -11 0 -20 5 -20 10 0 6 9 10 20 10 11 0 20 -4
20 -10z"/>
<path d="M5116 1934 c-9 -8 -16 -24 -16 -34 0 -22 25 -50 45 -50 20 0 45 28
45 50 0 22 -25 50 -45 50 -7 0 -21 -7 -29 -16z m49 -34 c0 -29 -32 -41 -41
-16 -9 24 4 48 23 44 12 -2 18 -12 18 -28z"/>
<path d="M5120 1584 c0 -8 5 -12 10 -9 6 3 10 10 10 16 0 5 -4 9 -10 9 -5 0
-10 -7 -10 -16z"/>
<path d="M4660 1570 c-11 -11 -20 -31 -20 -45 0 -27 31 -65 54 -65 8 0 24 9
37 20 l24 20 -41 -6 c-45 -7 -61 9 -48 49 5 16 12 18 48 13 l41 -6 -24 20
c-29 25 -46 25 -71 0z"/>
<path d="M5283 1525 c0 -38 2 -53 4 -32 2 20 2 52 0 70 -2 17 -4 1 -4 -38z"/>
<path d="M4987 1568 c-7 -20 7 -101 18 -105 8 -2 12 62 6 110 -2 12 -18 8 -24
-5z"/>
<path d="M4788 1549 c-25 -14 -24 -65 2 -79 14 -8 26 -8 40 0 29 15 25 20 -10
14 -19 -4 -30 -2 -30 5 0 6 14 11 30 11 34 0 40 19 14 44 -18 19 -23 19 -46 5z
m42 -19 c0 -5 -9 -10 -20 -10 -11 0 -20 5 -20 10 0 6 9 10 20 10 11 0 20 -4
20 -10z"/>
<path d="M4881 1505 c1 -50 1 -50 9 -12 8 44 14 51 35 44 9 -4 15 -19 15 -42
0 -19 4 -35 9 -35 10 0 8 70 -3 88 -3 6 -20 10 -36 9 -29 -2 -30 -3 -29 -52z"/>
<path d="M5043 1508 c0 -26 4 -48 9 -48 4 0 8 11 8 24 0 35 10 56 26 56 8 0
14 4 14 8 0 5 -13 9 -29 9 -28 0 -29 -2 -28 -49z"/>
<path d="M5123 1510 c0 -30 2 -43 4 -27 2 15 2 39 0 55 -2 15 -4 2 -4 -28z"/>
<path d="M5176 1544 c-9 -8 -16 -24 -16 -34 0 -22 25 -50 45 -50 20 0 45 28
45 50 0 22 -25 50 -45 50 -7 0 -21 -7 -29 -16z m49 -34 c0 -29 -32 -41 -41
-16 -9 24 4 48 23 44 12 -2 18 -12 18 -28z"/>
<path d="M5336 1544 c-9 -8 -16 -24 -16 -34 0 -22 25 -50 45 -50 20 0 45 28
45 50 0 22 -25 50 -45 50 -7 0 -21 -7 -29 -16z m49 -34 c0 -29 -32 -41 -41
-16 -9 24 4 48 23 44 12 -2 18 -12 18 -28z"/>
<path d="M5439 1544 c-11 -14 -10 -18 6 -30 10 -8 25 -14 32 -14 7 0 13 -5 13
-11 0 -8 -11 -9 -31 -5 -27 5 -30 4 -19 -9 16 -20 44 -19 61 1 11 14 10 18 -6
30 -10 8 -25 14 -32 14 -7 0 -13 5 -13 11 0 7 10 9 25 5 27 -7 35 8 9 18 -24
9 -30 8 -45 -10z"/>
<path d="M5195 989 c-11 -17 1 -21 15 -4 8 9 8 15 2 15 -6 0 -14 -5 -17 -11z"/>
<path d="M4622 923 c1 -67 1 -67 7 -18 6 54 15 52 26 -8 9 -48 31 -48 40 0 11
60 20 62 26 8 6 -49 6 -49 7 18 2 53 -1 67 -13 67 -8 0 -19 -16 -25 -40 -6
-22 -13 -40 -15 -40 -2 0 -9 18 -15 40 -6 24 -17 40 -25 40 -12 0 -15 -14 -13
-67z"/>
<path d="M4770 980 c0 -5 5 -10 10 -10 6 0 10 5 10 10 0 6 -4 10 -10 10 -5 0
-10 -4 -10 -10z"/>
<path d="M5261 927 l1 -64 32 0 c40 0 56 13 56 47 0 34 -22 54 -50 45 -16 -5
-20 -2 -20 14 0 12 -4 21 -10 21 -5 0 -9 -28 -9 -63z m64 -17 c0 -15 -6 -26
-16 -28 -19 -3 -31 21 -22 43 9 25 38 13 38 -15z"/>
<path d="M5491 923 c2 -70 6 -63 11 20 2 26 0 47 -4 47 -5 0 -7 -30 -7 -67z"/>
<path d="M5097 968 c-7 -20 7 -101 18 -105 8 -2 12 62 6 110 -2 12 -18 8 -24
-5z"/>
<path d="M4773 910 c0 -30 2 -43 4 -27 2 15 2 39 0 55 -2 15 -4 2 -4 -28z"/>
<path d="M4826 944 c-9 -8 -16 -24 -16 -34 0 -21 25 -50 44 -50 19 0 40 27 27
34 -5 3 -11 1 -13 -6 -7 -19 -38 -1 -38 22 0 23 31 41 38 22 2 -7 8 -9 13 -6
13 7 -8 34 -27 34 -7 0 -20 -7 -28 -16z"/>
<path d="M4910 908 c0 -26 5 -48 10 -48 6 0 10 11 10 24 0 35 10 56 26 56 8 0
14 4 14 8 0 5 -13 9 -30 9 -29 0 -30 -2 -30 -49z"/>
<path d="M4996 944 c-9 -8 -16 -24 -16 -34 0 -22 25 -50 45 -50 20 0 45 28 45
50 0 22 -25 50 -45 50 -7 0 -21 -7 -29 -16z m49 -34 c0 -29 -32 -41 -41 -16
-9 24 4 48 23 44 12 -2 18 -12 18 -28z"/>
<path d="M5164 915 c1 -50 1 -50 34 -50 18 1 32 4 32 8 -1 62 -3 88 -7 72 -2
-11 -6 -30 -9 -43 -8 -39 -38 -23 -45 23 -7 38 -7 38 -5 -10z"/>
<path d="M5378 936 c-10 -48 6 -76 42 -73 29 2 30 3 29 52 -1 28 -3 41 -6 30
-2 -11 -6 -30 -9 -42 -2 -13 -11 -23 -19 -23 -14 0 -19 12 -28 65 -2 15 -4 13
-9 -9z"/>
<path d="M5546 944 c-9 -8 -16 -24 -16 -34 0 -22 25 -50 45 -50 20 0 45 28 45
50 0 22 -25 50 -45 50 -7 0 -21 -7 -29 -16z m49 -34 c0 -29 -32 -41 -41 -16
-9 24 4 48 23 44 12 -2 18 -12 18 -28z"/>
<path d="M5649 944 c-11 -14 -10 -18 6 -30 10 -8 25 -14 32 -14 7 0 13 -5 13
-11 0 -8 -11 -9 -31 -5 -27 5 -30 4 -19 -9 16 -20 44 -19 61 1 11 14 10 18 -6
30 -10 8 -25 14 -32 14 -7 0 -13 5 -13 11 0 7 10 9 25 5 27 -7 35 8 9 18 -24
9 -30 8 -45 -10z"/>
<path d="M3698 883 c156 -2 408 -2 560 0 152 1 25 2 -283 2 -308 0 -433 -1
-277 -2z"/>
<path d="M450 234 c0 -8 5 -12 10 -9 6 3 10 10 10 16 0 5 -4 9 -10 9 -5 0 -10
-7 -10 -16z"/>
<path d="M1896 234 c-5 -14 -4 -15 9 -4 17 14 19 20 6 20 -5 0 -12 -7 -15 -16z"/>
<path d="M160 175 c0 -37 4 -65 10 -65 6 0 10 11 10 25 0 33 19 32 46 -2 12
-16 26 -25 30 -21 4 5 -1 17 -10 27 -16 18 -16 21 -1 44 15 23 15 26 0 41 -9
9 -32 16 -51 16 l-34 0 0 -65z m70 25 c0 -5 -11 -10 -25 -10 -14 0 -25 5 -25
10 0 6 11 10 25 10 14 0 25 -4 25 -10z"/>
<path d="M392 223 c-11 -22 -1 -105 13 -110 7 -2 10 19 9 58 -2 67 -8 80 -22
52z"/>
<path d="M710 175 c0 -38 3 -65 7 -62 7 8 5 119 -3 126 -2 2 -4 -26 -4 -64z"/>
<path d="M1190 219 c0 -16 -4 -19 -20 -14 -28 9 -50 -11 -50 -46 0 -33 11 -41
56 -45 l34 -2 0 64 c0 36 -4 64 -10 64 -5 0 -10 -9 -10 -21z m-6 -44 c8 -21
-3 -45 -20 -45 -18 0 -28 24 -20 45 3 8 12 15 20 15 7 0 16 -7 20 -15z"/>
<path d="M1460 177 c0 -37 4 -67 9 -67 8 0 3 120 -5 129 -2 2 -4 -26 -4 -62z"/>
<path d="M2343 175 c0 -38 2 -53 4 -32 2 20 2 52 0 70 -2 17 -4 1 -4 -38z"/>
<path d="M1967 218 c-7 -20 7 -101 18 -105 8 -2 12 62 6 110 -2 12 -18 8 -24
-5z"/>
<path d="M298 199 c-25 -14 -24 -65 2 -79 14 -8 26 -8 40 0 29 15 25 20 -10
14 -19 -4 -30 -2 -30 5 0 6 14 11 30 11 34 0 40 19 14 44 -18 19 -23 19 -46 5z
m42 -19 c0 -5 -9 -10 -20 -10 -11 0 -20 5 -20 10 0 6 9 10 20 10 11 0 20 -4
20 -10z"/>
<path d="M450 161 c0 -30 3 -52 6 -49 10 10 12 75 3 89 -6 9 -9 -5 -9 -40z"/>
<path d="M506 194 c-9 -8 -16 -24 -16 -34 0 -21 25 -50 44 -50 19 0 40 27 27
34 -5 3 -11 1 -13 -6 -7 -19 -38 -1 -38 22 0 23 31 41 38 22 2 -7 8 -9 13 -6
13 7 -8 34 -27 34 -7 0 -20 -7 -28 -16z"/>
<path d="M599 200 c-3 -8 -3 -31 1 -50 4 -32 8 -35 38 -35 l32 -1 -1 51 c-1
27 -3 41 -6 30 -2 -11 -6 -30 -9 -43 -8 -39 -38 -23 -44 23 -3 22 -8 33 -11
25z"/>
<path d="M766 194 c-9 -8 -16 -24 -16 -34 0 -22 25 -50 45 -50 20 0 45 28 45
50 0 22 -25 50 -45 50 -7 0 -21 -7 -29 -16z m49 -34 c0 -16 -6 -26 -18 -28
-19 -4 -32 20 -23 44 9 25 41 13 41 -16z"/>
<path d="M928 199 c-25 -14 -24 -65 2 -79 14 -8 26 -8 40 0 29 15 25 20 -10
14 -19 -4 -30 -2 -30 5 0 6 14 11 30 11 34 0 40 19 14 44 -18 19 -23 19 -46 5z
m42 -19 c0 -5 -9 -10 -20 -10 -11 0 -20 5 -20 10 0 6 9 10 20 10 11 0 20 -4
20 -10z"/>
<path d="M1021 155 c1 -50 1 -50 9 -12 8 44 14 51 35 44 9 -4 15 -19 15 -42 0
-19 3 -35 8 -35 9 0 8 72 -2 88 -4 6 -20 10 -36 9 -29 -2 -30 -3 -29 -52z"/>
<path d="M1246 194 c-9 -8 -16 -24 -16 -34 0 -22 25 -50 45 -50 20 0 45 28 45
50 0 22 -25 50 -45 50 -7 0 -21 -7 -29 -16z m49 -34 c0 -29 -32 -41 -41 -16
-9 24 4 48 23 44 12 -2 18 -12 18 -28z"/>
<path d="M1349 180 c-1 -14 -2 -37 -3 -52 -1 -14 1 -34 5 -45 6 -14 8 -12 8
10 1 24 4 27 21 22 28 -9 50 11 50 45 0 34 -17 49 -52 47 -22 -2 -28 -7 -29
-27z m56 -20 c0 -28 -29 -40 -38 -15 -9 22 3 46 22 43 10 -2 16 -13 16 -28z"/>
<path d="M1510 195 c-11 -13 -8 -14 21 -9 23 5 31 3 24 -4 -5 -5 -19 -12 -30
-14 -19 -3 -35 -47 -18 -49 67 -9 73 -7 73 23 0 59 -40 89 -70 53z m50 -45 c0
-12 -28 -25 -36 -17 -9 9 6 27 22 27 8 0 14 -5 14 -10z"/>
<path d="M1609 194 c-11 -14 -10 -18 6 -30 10 -8 25 -14 32 -14 7 0 13 -5 13
-11 0 -8 -11 -9 -31 -5 -27 5 -30 4 -19 -9 16 -20 44 -19 61 1 11 14 10 18 -6
30 -10 8 -25 14 -32 14 -7 0 -13 5 -13 11 0 7 10 9 25 5 27 -7 35 8 9 18 -24
9 -30 8 -45 -10z"/>
<path d="M1700 158 c0 -56 17 -65 22 -11 2 27 8 39 21 41 14 3 17 -4 17 -37 0
-51 18 -54 22 -3 2 25 8 37 18 37 10 0 16 -12 18 -37 4 -46 22 -51 22 -5 0 52
-12 61 -79 62 l-61 1 0 -48z"/>
<path d="M1870 195 c-11 -13 -8 -14 21 -9 23 5 31 3 24 -4 -5 -5 -19 -12 -30
-14 -19 -3 -35 -47 -18 -49 67 -9 73 -7 73 23 0 59 -40 89 -70 53z m50 -45 c0
-12 -28 -25 -36 -17 -9 9 6 27 22 27 8 0 14 -5 14 -10z"/>
<path d="M2031 160 c1 -55 1 -55 10 -17 6 24 5 45 -1 55 -7 12 -9 2 -9 -38z"/>
<path d="M2086 194 c-9 -8 -16 -24 -16 -34 0 -21 25 -50 44 -50 19 0 40 27 27
34 -5 3 -11 1 -13 -6 -7 -19 -38 -1 -38 22 0 23 31 41 38 22 2 -7 8 -9 13 -6
13 7 -8 34 -27 34 -7 0 -20 -7 -28 -16z"/>
<path d="M2186 194 c-9 -8 -16 -24 -16 -34 0 -22 25 -50 45 -50 20 0 45 28 45
50 0 22 -25 50 -45 50 -7 0 -21 -7 -29 -16z m49 -34 c0 -16 -6 -26 -18 -28
-19 -4 -32 20 -23 44 9 25 41 13 41 -16z"/>
<path d="M2391 160 c1 -55 1 -55 9 -15 4 22 4 47 -1 55 -5 10 -8 -5 -8 -40z"/>
<path d="M2441 201 c-20 -13 -6 -39 24 -47 37 -9 31 -28 -6 -20 -27 5 -30 4
-19 -9 16 -20 44 -19 61 1 11 14 10 18 -6 30 -10 8 -25 14 -32 14 -7 0 -13 5
-13 11 0 7 10 9 25 5 27 -7 35 8 9 18 -20 8 -26 7 -43 -3z"/>
<path d="M2546 194 c-9 -8 -16 -24 -16 -34 0 -22 25 -50 45 -50 20 0 45 28 45
50 0 22 -25 50 -45 50 -7 0 -21 -7 -29 -16z m49 -34 c0 -16 -6 -26 -18 -28
-19 -4 -32 20 -23 44 9 25 41 13 41 -16z"/>
</g>
</svg>
