<?xml version="1.0" standalone="no"?>
<!DOCTYPE svg PUBLIC "-//W3C//DTD SVG 20010904//EN"
 "http://www.w3.org/TR/2001/REC-SVG-20010904/DTD/svg10.dtd">
<svg version="1.0" xmlns="http://www.w3.org/2000/svg"
 width="500.000000pt" height="221.000000pt" viewBox="0 0 500.000000 221.000000"
 preserveAspectRatio="xMidYMid meet">

<g transform="translate(0.000000,221.000000) scale(0.100000,-0.100000)"
fill="#000000" stroke="none">
<path d="M3078 2203 c12 -2 30 -2 40 0 9 3 -1 5 -23 4 -22 0 -30 -2 -17 -4z"/>
<path d="M1263 2185 c-22 -42 -23 -77 -7 -135 14 -50 14 -65 4 -90 -7 -17 -17
-33 -23 -37 -6 -4 -7 -1 -2 7 6 9 4 11 -5 5 -8 -5 -18 -1 -28 11 -13 18 -14
18 -7 -5 5 -17 4 -21 -5 -16 -6 4 -10 18 -7 31 2 13 -1 22 -7 21 -7 -1 -10 11
-8 31 2 25 -1 31 -10 25 -7 -4 -16 -8 -20 -9 -5 -1 -11 -2 -14 -3 -4 0 -1 -7
5 -15 7 -8 11 -40 10 -75 -2 -54 -4 -59 -18 -49 -26 20 -27 22 -8 15 10 -4 16
-3 13 2 -3 4 -23 7 -45 5 -29 -2 -41 2 -46 14 -5 14 -7 14 -16 2 -8 -11 -9 -4
-6 25 3 34 -1 44 -32 74 -51 51 -69 47 -22 -5 44 -47 53 -86 24 -103 -17 -10
-17 -11 2 -16 27 -8 69 -98 62 -133 -4 -23 -2 -22 28 14 20 23 29 41 22 43 -7
2 -18 13 -25 23 -7 10 -17 16 -22 13 -9 -6 -21 20 -13 29 11 10 48 7 61 -6 7
-7 12 -23 12 -38 1 -25 1 -25 33 10 18 20 43 44 57 55 14 11 -2 -9 -35 -45
-53 -57 -193 -226 -230 -277 -7 -10 -16 -16 -19 -13 -3 4 5 17 17 31 55 61 56
63 14 56 -23 -3 -35 -2 -31 4 3 5 2 8 -3 7 -12 -4 -53 34 -47 44 3 4 -2 11
-10 14 -9 3 -14 10 -11 14 3 4 -2 13 -10 20 -33 27 -7 -28 37 -79 44 -50 52
-79 31 -104 -10 -11 -12 -17 -4 -12 9 5 12 3 9 -6 -3 -8 -11 -14 -19 -15 -15
0 -69 27 -70 36 0 3 -2 18 -4 34 -5 37 -25 59 -25 28 0 -12 5 -22 11 -22 5 0
8 -4 5 -9 -3 -5 1 -25 9 -45 28 -68 7 -109 -36 -70 -19 17 -20 17 -14 -2 6
-17 6 -17 -5 -1 -6 9 -8 22 -4 29 5 7 3 8 -6 3 -10 -6 -12 -4 -7 8 4 12 2 14
-10 10 -12 -5 -14 -3 -8 7 5 8 10 39 11 69 l3 56 -18 -40 c-17 -36 -17 -42 -3
-57 8 -10 11 -18 6 -18 -5 0 -18 13 -28 29 -11 16 -27 27 -35 26 -9 -2 -23 -4
-31 -5 -8 0 -1 -7 15 -14 51 -22 55 -33 39 -106 -18 -80 -18 -77 -1 -123 l14
-38 84 97 c49 58 79 99 71 102 -6 2 -12 8 -12 14 0 6 6 6 15 -2 8 -6 19 -9 25
-5 20 13 9 -6 -29 -48 -158 -173 -322 -398 -352 -483 -27 -75 -27 -193 -2
-237 26 -45 104 -94 190 -119 40 -12 73 -26 73 -31 0 -4 -8 -6 -17 -3 -10 3
-38 10 -62 16 -67 17 -148 59 -181 93 -69 71 -68 182 3 326 26 51 60 111 77
134 l30 41 -29 12 c-21 9 -31 21 -34 41 l-4 28 -2 -28 c0 -15 6 -39 15 -53 25
-38 7 -42 -27 -6 -40 42 -47 41 -13 -3 15 -20 24 -38 20 -42 -3 -3 -6 -1 -6 6
0 7 -5 9 -10 6 -6 -4 -10 -3 -9 2 4 23 -4 35 -36 50 -24 12 -31 19 -23 25 8 5
1 8 -19 8 -17 0 -35 -5 -38 -10 -3 -5 -12 -10 -18 -10 -7 0 -6 4 3 10 24 15 2
12 -30 -5 -36 -18 -41 -40 -7 -28 12 4 43 8 70 7 52 -1 81 -20 91 -60 4 -14
10 -23 14 -20 4 2 6 -11 4 -30 -5 -41 -10 -42 -47 -10 -16 14 -32 23 -36 20
-4 -2 -10 3 -13 11 -3 8 -11 14 -18 13 -7 -2 -12 2 -11 9 1 6 -3 16 -11 22 -9
8 -13 7 -13 -5 0 -9 20 -32 44 -52 50 -42 60 -78 17 -62 -14 6 -37 7 -51 4
-19 -5 -24 -4 -19 5 6 9 0 10 -20 5 -16 -4 -25 -3 -21 3 3 5 -4 20 -17 34 -18
19 -21 30 -15 51 5 20 3 32 -7 43 -14 13 -13 16 8 24 13 6 17 10 11 10 -7 1
-13 12 -13 24 0 13 -18 49 -41 80 -22 32 -36 57 -32 57 4 0 1 4 -7 10 -9 6
-15 29 -16 69 -2 35 1 59 7 56 5 -3 6 2 2 11 -4 11 -2 15 4 11 13 -8 46 27 36
37 -4 4 0 4 10 0 9 -3 17 -2 17 2 0 5 25 7 55 6 35 -3 55 0 55 7 0 15 -99 14
-130 -2 -14 -7 -25 -18 -25 -24 0 -17 -15 -29 -15 -12 -1 27 -30 -41 -36 -84
-7 -46 17 -109 51 -137 23 -19 45 -65 45 -94 0 -22 -56 -103 -107 -154 -7 -7
-18 -31 -24 -52 -10 -34 -9 -47 10 -96 22 -58 28 -99 12 -90 -10 6 -65 -53
-57 -61 3 -3 18 4 34 16 38 26 42 26 42 -1 0 -28 -20 -57 -87 -126 -49 -50
-93 -135 -93 -180 0 -38 23 -95 51 -127 32 -36 82 -55 184 -72 l50 -8 -3 -61
c-5 -92 22 -95 32 -4 5 49 12 51 83 24 36 -14 72 -23 80 -20 9 4 11 1 7 -6 -5
-7 1 -9 19 -6 16 3 24 1 20 -5 -13 -21 80 1 101 24 19 21 19 22 1 8 -18 -13
-19 -12 -8 2 7 9 9 20 5 25 -4 4 1 2 11 -5 15 -12 21 -11 42 9 14 13 25 30 25
37 0 8 -11 3 -26 -14 -15 -15 -22 -21 -15 -12 8 11 7 19 -2 29 -9 10 -9 11 0
6 8 -5 17 3 24 21 6 15 16 39 21 53 6 14 17 37 24 51 7 14 10 30 6 34 -4 5 -1
4 7 0 11 -6 13 -4 8 8 -3 9 -3 16 1 14 12 -3 72 69 64 77 -4 4 -2 6 5 4 6 -2
25 12 42 31 51 57 45 28 -7 -35 -53 -66 -99 -137 -131 -203 -18 -39 -19 -42
-2 -27 17 16 19 14 26 -31 16 -103 12 -127 -27 -172 -43 -47 -53 -76 -43 -127
8 -44 20 -34 29 21 4 28 3 34 -4 20 -8 -20 -9 -20 -9 1 -1 11 14 36 32 55 17
20 23 24 12 10 l-20 -26 27 24 c15 13 26 27 23 30 -6 10 33 57 41 49 3 -4 8
-22 10 -40 5 -42 20 -56 26 -24 3 14 2 23 -3 21 -12 -8 -22 80 -15 122 9 48
61 156 88 180 16 14 14 7 -9 -32 -15 -27 -34 -63 -41 -79 -12 -27 -12 -28 4
-15 16 13 17 12 10 -6 -5 -11 -10 -51 -13 -90 -4 -54 -1 -75 11 -90 14 -19 15
-15 16 51 0 71 31 174 52 174 5 0 7 4 4 9 -3 4 9 5 26 2 48 -10 56 -46 24
-110 -33 -64 -33 -111 0 -167 29 -49 42 -56 39 -22 -2 13 -7 22 -13 21 -6 -2
-11 5 -11 15 -1 9 -3 45 -6 80 -2 36 0 60 5 57 5 -3 7 4 5 15 -2 11 1 20 7 20
6 0 8 3 5 6 -4 4 7 22 24 42 17 19 28 40 25 47 -2 7 2 16 10 19 8 3 15 16 15
28 1 19 3 17 8 -7 4 -16 12 -29 18 -28 7 2 10 -6 8 -19 -10 -52 74 -128 142
-128 16 0 34 -4 41 -10 9 -7 9 -7 2 2 -5 7 -10 20 -10 29 0 9 -7 20 -16 23 -8
3 -12 11 -8 17 4 7 3 9 -3 6 -6 -4 -14 0 -17 9 -3 8 -2 13 3 10 10 -6 2 45
-10 59 -4 6 -8 20 -8 30 0 11 -3 38 -6 60 -6 32 -3 44 10 55 26 22 55 -19 55
-78 0 -25 3 -42 7 -39 9 10 5 85 -7 107 -6 11 -6 21 -1 24 5 3 12 -9 15 -27 6
-30 11 -34 59 -45 73 -17 102 -15 58 4 -18 8 -40 13 -47 10 -8 -3 -14 -1 -14
4 0 5 -9 7 -20 5 -12 -2 -20 2 -20 10 0 23 -22 65 -31 59 -16 -10 -9 17 9 37
18 18 59 18 47 -1 -5 -8 11 -21 75 -62 24 -17 36 -34 42 -59 7 -38 47 -113 55
-105 3 2 0 14 -7 25 -6 12 -8 21 -5 21 3 0 1 9 -5 21 -9 17 -8 23 7 36 10 8
13 12 6 9 -6 -4 -14 -2 -18 4 -4 6 -11 7 -17 4 -7 -5 -9 -1 -5 9 4 10 2 16 -5
14 -6 -1 -17 8 -23 20 -7 13 -15 20 -18 16 -4 -3 -7 -1 -7 6 0 7 -4 10 -9 6
-9 -5 -26 12 -26 27 0 3 -4 10 -9 15 -5 5 -6 3 -2 -5 4 -6 3 -12 -2 -12 -5 0
-15 12 -23 27 -11 20 -11 27 -1 30 6 3 12 15 12 28 0 14 14 40 30 58 17 19 30
44 30 56 0 47 90 14 145 -54 36 -43 115 -96 115 -77 0 5 -20 22 -45 37 -25 16
-58 46 -75 66 -16 21 -45 43 -65 49 -19 6 -35 16 -35 21 0 6 -6 7 -12 3 -10
-5 -10 -4 -1 6 6 7 9 18 7 25 -10 24 14 25 51 4 31 -18 45 -21 93 -15 99 13
122 5 122 -40 0 -13 4 -24 8 -24 7 0 8 39 2 48 -2 1 -3 8 -4 15 -1 6 -7 11
-14 10 -7 -2 -12 1 -12 7 0 5 -7 6 -17 3 -11 -4 -14 -3 -9 6 6 9 -1 11 -26 7
-82 -14 -133 -16 -118 -5 13 9 12 10 -3 5 -10 -3 -26 -2 -36 4 -36 19 -1 111
39 102 9 -1 24 5 35 14 17 13 17 15 3 10 -10 -3 -18 -3 -18 0 0 11 56 53 66
50 6 -2 19 9 28 25 21 35 8 38 -23 5 -17 -18 -32 -24 -57 -22 -50 4 -61 18
-55 68 l6 43 61 -3 c34 -2 64 1 68 6 3 6 -11 10 -35 10 -45 1 -79 24 -79 54 0
17 4 17 50 -7 53 -27 80 -32 80 -14 0 7 -9 9 -22 6 -22 -6 -22 -6 -4 8 17 13
18 15 3 15 -9 0 -17 3 -17 8 1 21 20 29 63 27 68 -3 58 11 -14 18 -101 9 -168
69 -170 154 l-1 38 -9 -45 c-6 -29 -5 -68 2 -110 12 -71 2 -158 -25 -207 -14
-26 -15 -27 -16 -5 0 16 -6 22 -22 21 -17 -1 -19 -2 -5 -6 22 -6 22 -13 -9
-108 -46 -144 -103 -279 -134 -317 -53 -65 -176 -107 -312 -108 -59 0 -67 2
-61 17 5 13 2 15 -11 10 -9 -4 -15 -3 -12 2 9 14 -31 20 -45 7 -10 -9 -10 -7
0 6 12 16 16 16 48 3 20 -8 59 -14 87 -13 l51 1 -55 7 c-30 4 -51 7 -46 8 5 1
3 9 -4 17 -16 19 -51 19 -76 0 -10 -8 -32 -15 -49 -15 -24 -1 -26 -3 -11 -9
41 -16 -6 -23 -67 -11 -208 43 -257 154 -158 355 40 81 99 161 270 367 51 62
109 133 130 158 154 190 263 305 313 331 52 27 161 26 206 -1 39 -24 69 -70
77 -120 3 -20 -1 -83 -9 -140 -20 -130 -20 -180 -1 -207 24 -35 79 -63 122
-63 34 0 40 3 39 20 -1 24 -8 26 -45 10 -24 -9 -35 -9 -60 5 -48 24 -66 71
-54 137 l9 53 1 -63 c0 -69 23 -114 59 -120 24 -3 107 32 97 41 -3 4 -4 7 0 7
13 0 75 -47 104 -80 42 -47 51 -34 13 18 -20 28 -35 40 -45 36 -10 -4 -15 -2
-13 6 3 14 -49 33 -64 24 -16 -10 -59 6 -52 18 4 7 3 8 -5 4 -6 -4 -9 -11 -6
-16 9 -14 -35 -19 -49 -4 -19 19 -28 81 -17 124 8 33 9 31 11 -25 1 -33 4 -52
7 -42 4 16 15 21 41 18 6 -1 12 3 12 8 0 17 81 33 129 26 25 -4 56 -16 68 -27
16 -15 21 -16 19 -5 -4 26 -28 48 -47 42 -22 -7 -99 14 -99 28 0 5 -7 4 -15
-3 -11 -9 -15 -9 -15 -1 0 6 8 15 18 18 29 11 76 53 58 53 -8 0 -38 -22 -66
-50 -49 -48 -69 -62 -54 -38 5 7 2 9 -9 5 -10 -4 -18 1 -22 14 -4 10 -11 19
-16 19 -11 0 -12 40 -1 40 4 0 16 12 26 27 11 14 13 23 6 18 -9 -6 -11 -4 -6
4 5 7 15 10 23 7 8 -3 24 0 35 8 18 13 17 14 -21 9 -49 -7 -55 10 -16 47 14
13 23 25 21 27 -8 8 -55 -21 -59 -36 -2 -9 -2 -5 0 9 2 14 5 33 6 43 1 10 7
15 15 12 8 -3 10 0 6 7 -5 7 -2 9 8 6 9 -4 21 4 32 23 15 25 15 28 1 23 -8 -3
-15 -10 -15 -15 0 -5 -13 -15 -29 -23 -25 -13 -31 -14 -41 -1 -6 8 -9 22 -6
33 5 15 1 18 -25 16 -42 -3 -46 -10 -21 -37 11 -12 25 -35 31 -50 12 -32 13
-156 1 -202 -4 -16 -5 16 -2 72 5 96 4 103 -22 147 -14 25 -36 52 -49 61 l-22
17 25 -7 25 -6 -25 21 c-22 19 -22 20 -3 11 29 -14 33 -14 27 3 -3 8 3 19 15
26 12 6 21 8 21 4 0 -3 7 -1 15 6 9 7 14 19 11 26 -3 7 2 18 10 25 20 16 37
49 26 49 -4 0 -19 -18 -32 -39 -15 -23 -42 -48 -66 -59 -50 -24 -69 -17 -55
21 15 40 4 33 -13 -8 -10 -22 -22 -35 -33 -34 -16 0 -16 1 2 8 17 7 16 9 -9
15 -25 6 -27 8 -12 19 10 7 18 19 20 27 6 31 18 50 29 43 6 -3 7 -1 3 6 -11
17 -32 -3 -57 -51 -14 -28 -26 -38 -43 -38 -20 0 -23 4 -18 22 4 16 2 19 -8
13 -9 -6 -12 -4 -8 7 4 8 2 21 -2 29 -14 22 -21 4 -10 -25 7 -18 7 -34 0 -46
-7 -13 -6 -20 3 -23 9 -4 9 -6 0 -6 -6 -1 -14 3 -18 9 -3 5 -12 7 -20 3 -11
-4 -15 2 -14 23 0 26 1 27 10 9 7 -16 8 -14 3 10 -3 17 -12 37 -21 47 -16 17
-15 98 1 109 5 4 6 13 4 20 -3 10 -8 8 -15 -6z m15 -150 c-3 -3 -9 2 -12 12
-6 14 -5 15 5 6 7 -7 10 -15 7 -18z m-127 -32 c13 -16 12 -17 -3 -4 -10 7 -18
15 -18 17 0 8 8 3 21 -13z m247 -30 c-10 -2 -26 -2 -35 0 -10 3 -2 5 17 5 19
0 27 -2 18 -5z m-230 -42 c-1 -16 -5 -28 -9 -26 -6 5 0 55 7 55 3 0 3 -13 2
-29z m314 1 c8 -8 1 -8 -28 -1 -47 14 -131 6 -172 -15 -35 -18 -75 -56 -157
-150 -33 -38 -64 -74 -70 -80 -5 -6 -48 -58 -95 -116 -82 -103 -230 -280 -240
-290 -17 -15 -103 -134 -128 -176 -76 -129 -94 -257 -47 -326 30 -45 73 -71
150 -92 33 -10 68 -20 79 -23 10 -3 14 -9 9 -14 -10 -10 -89 10 -158 40 -185
82 -181 254 12 511 44 59 135 169 364 441 247 294 272 313 397 306 40 -2 78
-9 84 -15z m137 -111 c0 -10 -4 -7 -10 8 -5 14 -13 30 -17 36 -4 6 1 2 11 -8
9 -11 17 -27 16 -36z m-539 -15 c0 -6 -7 -2 -15 8 -8 11 -15 25 -15 30 0 6 7
2 15 -8 8 -11 15 -25 15 -30z m547 -88 c-3 -8 -6 -5 -6 6 -1 11 2 17 5 13 3
-3 4 -12 1 -19z m-677 -78 c0 -5 -2 -10 -4 -10 -3 0 -8 5 -11 10 -3 6 -1 10 4
10 6 0 11 -4 11 -10z m703 -74 c4 -10 0 -12 -14 -9 -10 3 -16 9 -13 14 8 13
21 11 27 -5z m-932 -51 c0 6 11 -12 24 -39 25 -53 25 -69 -2 -59 -12 5 -14 3
-8 -8 8 -12 6 -12 -8 0 -19 15 -23 26 -5 15 7 -5 8 -3 4 5 -5 7 -14 10 -22 7
-10 -4 -14 2 -13 22 0 24 1 25 10 7 7 -15 8 -8 4 25 -4 32 -2 41 5 30 5 -8 10
-10 11 -5z m-534 -27 c-3 -8 -6 -5 -6 6 -1 11 2 17 5 13 3 -3 4 -12 1 -19z
m603 -18 c0 -5 -5 -10 -11 -10 -5 0 -7 5 -4 10 3 6 8 10 11 10 2 0 4 -4 4 -10z
m1041 -57 c13 -16 12 -17 -3 -4 -10 7 -18 15 -18 17 0 8 8 3 21 -13z m-1561
-213 c0 -5 -5 -10 -11 -10 -5 0 -7 5 -4 10 3 6 8 10 11 10 2 0 4 -4 4 -10z
m-2 -57 c1 -14 9 -35 19 -45 18 -20 77 -39 107 -34 12 2 15 1 8 -1 -8 -3 0
-12 20 -22 45 -25 51 -66 11 -82 -15 -6 -49 -9 -75 -7 -25 2 -44 0 -41 -4 2
-5 -7 -8 -21 -8 -14 0 -26 -2 -26 -4 0 -15 73 -73 110 -87 25 -9 47 -25 48
-34 5 -24 -34 -62 -84 -81 -48 -18 -79 -14 -110 14 -20 19 -21 19 -33 0 -7
-11 -8 -17 -3 -14 5 3 17 -3 27 -14 18 -20 18 -21 -1 -35 -10 -9 -26 -20 -35
-25 -35 -20 -68 -140 -39 -140 11 0 15 8 24 51 3 14 22 42 43 63 43 43 46 43
158 2 39 -14 70 -31 70 -38 0 -20 -84 -47 -150 -48 -55 -1 -58 -2 -41 -15 22
-17 105 -19 176 -5 25 4 47 6 49 4 8 -8 -54 -66 -91 -85 -38 -19 -81 -66 -73
-79 3 -4 14 -10 25 -13 11 -3 18 -1 15 3 -11 17 9 40 58 69 29 17 63 39 76 48
l24 17 -17 -31 c-17 -33 -22 -73 -8 -73 4 0 17 18 30 40 22 39 44 51 57 30 4
-6 2 -17 -4 -24 -9 -10 -8 -15 4 -20 9 -3 13 -2 10 4 -10 17 13 47 60 79 34
23 42 25 32 10 -6 -10 -19 -22 -28 -24 -9 -3 -24 -14 -34 -25 -16 -18 -17 -20
-2 -20 10 0 17 -4 17 -9 0 -21 -50 -67 -86 -80 -22 -7 -47 -20 -57 -29 -14
-12 -22 -13 -43 -3 -15 6 -29 10 -31 7 -8 -7 88 -40 121 -40 18 -1 33 -6 33
-11 0 -6 -18 -9 -41 -8 -23 2 -52 4 -65 4 -18 1 -21 3 -10 10 11 7 9 9 -8 9
-12 0 -24 4 -28 10 -3 5 -13 6 -22 3 -12 -5 -14 -3 -8 7 6 10 3 12 -13 8 -12
-4 -20 -1 -19 4 1 6 -11 15 -28 20 -35 10 -178 39 -215 43 -14 1 -25 7 -25 13
0 6 -3 14 -8 18 -4 4 -7 1 -7 -6 0 -7 -3 -10 -6 -7 -4 4 -1 14 6 22 10 12 11
18 1 28 -10 9 -11 8 -5 -6 6 -17 5 -18 -15 -6 -12 8 -17 15 -11 17 6 2 6 10 0
23 -7 13 -7 19 0 19 5 0 10 7 10 16 0 8 -5 12 -10 9 -6 -3 -10 1 -10 9 0 9 5
15 10 14 15 -4 42 60 29 67 -12 8 -12 25 2 25 5 0 7 -6 3 -12 -4 -7 2 -5 13 5
12 10 24 30 27 43 4 14 11 22 17 18 14 -8 51 27 45 43 -3 7 0 12 6 10 6 -1 13
4 16 12 3 9 0 11 -8 6 -7 -4 -5 6 5 25 12 24 14 42 9 73 -5 23 -9 47 -9 52 -1
6 -9 25 -18 43 -19 35 -13 43 10 15 13 -16 13 -16 4 4 -6 12 -16 23 -21 25 -7
2 -5 17 5 42 9 21 11 35 6 31 -6 -3 -11 -13 -11 -22 0 -9 -3 -13 -7 -10 -9 9
18 58 29 51 7 -5 9 0 8 21 -1 7 53 54 60 55 3 0 7 -12 8 -27z m1187 -100
c-113 -362 -191 -422 -527 -414 -16 1 -28 5 -28 10 0 5 55 11 123 13 167 7
247 40 302 128 25 40 105 224 105 243 0 5 10 36 21 68 37 100 39 65 4 -48z
m-1145 62 c11 -13 10 -14 -4 -9 -9 3 -16 10 -16 15 0 13 6 11 20 -6z m1263
-20 c1 -6 -10 -11 -25 -13 -30 -4 -31 -2 -22 22 6 16 44 9 47 -9z m-63 5 c0
-18 -67 -206 -95 -263 -39 -84 -113 -160 -193 -198 -63 -31 -75 -33 -200 -37
-91 -3 -137 -1 -145 7 -8 8 14 11 84 11 207 1 315 38 384 135 40 57 85 157
126 284 13 39 27 71 31 71 4 0 8 -4 8 -10z m-1116 -175 c21 -9 36 -21 33 -28
-4 -13 -37 -11 -76 6 -14 5 -29 10 -33 9 -4 -1 -5 5 -2 13 8 19 32 19 78 0z
m541 -203 c-3 -3 -11 0 -18 7 -9 10 -8 11 6 5 10 -3 15 -9 12 -12z m-495 -18
c0 -25 -2 -26 -37 -19 -50 9 -62 22 -32 34 46 19 69 14 69 -15z m351 -77 c-10
-9 -11 -8 -5 6 3 10 9 15 12 12 3 -3 0 -11 -7 -18z m443 -140 c5 -29 11 -82
18 -147 2 -20 -2 -25 -20 -26 -12 -1 -20 1 -17 4 2 3 -5 14 -18 24 -12 11 -22
23 -22 26 -1 4 -6 17 -13 30 -7 13 -11 35 -9 50 4 25 4 25 6 -5 2 -57 21 -48
21 11 0 30 3 61 6 70 10 25 42 1 48 -37z m-87 1 c-3 -7 -5 -2 -5 12 0 14 2 19
5 13 2 -7 2 -19 0 -25z m367 -4 c3 -8 2 -12 -4 -9 -6 3 -10 10 -10 16 0 14 7
11 14 -7z m-454 -54 c0 -5 -4 -10 -10 -10 -5 0 -10 5 -10 10 0 6 5 10 10 10 6
0 10 -4 10 -10z m-240 -52 c-5 -18 -13 -49 -19 -68 -10 -32 -10 -31 -6 19 4
44 17 81 30 81 2 0 -1 -15 -5 -32z m-206 -39 c-26 -25 -37 -30 -70 -27 l-39 4
30 12 c17 6 41 18 55 26 44 25 56 18 24 -15z m-324 11 c11 -7 5 -8 -20 -4 -43
8 -51 14 -19 14 13 0 31 -5 39 -10z m713 -170 c3 -11 1 -18 -4 -14 -5 3 -9 12
-9 20 0 20 7 17 13 -6z"/>
<path d="M230 1006 c0 -3 8 -18 18 -34 11 -19 22 -27 33 -23 12 5 8 12 -18 34
-18 16 -33 26 -33 23z"/>
<path d="M204 935 c5 -11 12 -51 16 -90 l7 -70 2 59 c0 38 7 66 17 77 12 13
12 19 3 25 -8 4 -10 3 -5 -4 11 -18 -10 -14 -30 6 -17 16 -17 16 -10 -3z"/>
<path d="M188 383 c6 -2 18 -2 25 0 6 3 1 5 -13 5 -14 0 -19 -2 -12 -5z"/>
<path d="M2945 2159 c-98 -48 -131 -70 -200 -131 -29 -25 -62 -49 -72 -52 -11
-3 -26 -21 -35 -39 -8 -18 -28 -39 -44 -47 -64 -32 -192 -121 -237 -166 -62
-59 -117 -145 -117 -181 0 -18 -8 -33 -21 -41 -13 -8 -18 -19 -15 -29 4 -9 -1
-24 -10 -34 -11 -12 -14 -25 -9 -36 5 -10 9 -33 10 -50 1 -18 10 -42 19 -52
13 -15 16 -28 11 -51 -6 -27 -4 -32 14 -37 12 -3 21 -12 21 -19 0 -8 11 -20
25 -26 18 -8 25 -19 25 -40 0 -18 6 -31 18 -34 9 -4 64 -29 121 -56 180 -86
337 -130 526 -147 163 -15 274 -32 281 -42 5 -8 -40 -32 -101 -53 -34 -12 1
-23 115 -35 102 -11 157 -6 162 14 1 6 -18 23 -41 39 -31 21 -39 31 -30 36 8
4 146 10 308 12 290 5 294 5 270 -14 -49 -38 -69 -57 -69 -66 0 -43 427 5 540
61 58 28 58 47 0 62 -59 15 -92 33 -87 48 4 13 92 35 148 36 43 1 168 32 253
63 44 16 74 36 109 72 71 74 89 117 65 155 -10 17 -8 23 12 39 23 19 23 20 7
45 -15 23 -15 26 3 42 13 12 18 25 14 40 -4 16 0 26 13 33 15 9 16 14 5 31
-14 25 0 28 22 5 21 -20 20 -22 -6 -44 -20 -16 -21 -20 -8 -35 10 -12 11 -19
4 -22 -6 -2 -19 -9 -28 -16 -14 -11 -14 -15 -1 -41 15 -27 14 -31 -6 -52 -21
-23 -21 -25 -5 -43 10 -11 13 -21 7 -25 -5 -3 -12 -20 -16 -36 -4 -17 -10 -30
-14 -30 -4 0 -21 -20 -38 -43 -53 -75 -168 -124 -357 -153 -56 -8 -109 -17
-119 -20 -32 -10 0 -32 64 -45 58 -11 59 -12 42 -31 -37 -41 -135 -76 -293
-104 -120 -21 -343 -25 -362 -6 -11 12 -10 16 7 28 52 35 60 44 48 52 -7 4
-45 5 -85 1 -40 -4 -148 -8 -240 -8 -107 -1 -168 -5 -168 -11 0 -6 20 -20 45
-32 51 -25 54 -32 23 -49 -33 -18 -292 -7 -341 14 -21 9 -37 22 -35 29 3 7 26
18 52 24 95 24 81 31 -86 44 -75 5 -176 17 -224 25 -143 25 -339 94 -416 147
-15 11 -51 27 -80 37 -44 15 -53 22 -53 42 0 16 -11 31 -32 44 -18 11 -32 25
-33 32 0 7 -8 16 -17 22 -14 8 -16 14 -7 38 10 28 -4 74 -26 88 -4 3 -6 13 -4
23 3 9 -1 26 -9 36 -13 17 -15 12 -21 -50 -4 -38 -7 -78 -7 -89 1 -11 1 -45 2
-75 1 -61 15 -120 30 -120 13 0 49 -85 49 -114 0 -13 14 -40 30 -61 17 -21 30
-41 30 -46 0 -28 103 -149 222 -262 76 -71 150 -151 164 -176 69 -119 159
-194 274 -227 30 -9 80 -29 110 -44 75 -38 203 -77 269 -82 30 -3 123 -1 205
4 83 5 162 9 175 8 35 0 21 9 -30 20 l-44 9 50 -5 c28 -4 61 -7 75 -9 35 -4
191 26 185 35 -2 4 7 5 20 2 14 -2 25 0 25 7 0 5 7 8 15 5 8 -4 15 -1 15 5 0
6 6 8 14 5 7 -3 16 2 19 10 4 9 12 16 19 16 9 0 9 -3 -2 -11 -12 -9 -12 -10 3
-5 11 3 30 9 43 12 13 3 21 11 17 17 -4 6 0 8 11 4 21 -8 120 32 192 78 65 42
264 239 328 325 42 58 43 60 8 20 -97 -109 -132 -144 -132 -133 0 7 10 22 23
33 l22 22 -36 -17 c-28 -14 -35 -22 -33 -41 1 -13 -1 -22 -6 -19 -4 2 -6 16
-5 30 2 14 -2 25 -8 25 -6 0 -4 7 5 17 14 13 20 14 32 4 12 -10 19 -6 38 26
60 98 88 191 88 292 0 71 3 83 26 110 14 17 30 31 35 31 6 0 20 9 32 20 12 11
29 19 39 18 9 -2 24 6 33 17 10 13 14 15 13 5 -2 -10 4 -14 17 -12 15 2 17 1
6 -6 -7 -6 -10 -15 -7 -21 4 -6 3 -11 -1 -11 -14 0 -35 -68 -28 -91 4 -13 3
-19 -3 -15 -5 3 -12 -13 -15 -36 -3 -23 -19 -68 -36 -100 -16 -32 -28 -58 -26
-58 12 0 58 97 84 177 17 51 38 107 47 124 33 65 90 257 82 278 -4 12 -4 21 1
21 11 0 44 138 37 156 -3 8 -1 14 3 14 14 0 22 30 12 49 -5 9 -21 23 -34 30
-14 8 -23 19 -20 27 2 7 -7 23 -21 35 -19 17 -26 33 -27 63 -2 68 -13 100 -37
112 -12 6 -35 22 -50 35 -25 22 -25 22 2 -9 17 -17 35 -32 42 -32 19 0 24 -13
30 -81 2 -35 10 -70 17 -78 10 -11 9 -13 -3 -9 -22 7 -53 68 -41 82 18 21 0
67 -30 78 -16 5 -29 16 -29 24 0 15 -56 44 -85 44 -8 0 -40 20 -69 44 -75 61
-322 181 -421 206 -44 10 -122 24 -174 30 l-94 12 -25 -27 -25 -27 -146 4
c-104 3 -157 9 -183 21 -42 18 -46 28 -23 51 14 14 13 16 -11 22 -14 4 -79 4
-143 1 -71 -4 -108 -3 -96 3 16 7 13 9 -17 9 -31 1 -37 -2 -35 -19 1 -11 9
-22 19 -26 26 -8 144 -144 125 -144 -2 0 -24 26 -49 59 -75 96 -177 127 -253
77 -63 -41 -123 -175 -139 -308 -7 -57 -7 -58 26 -78 36 -22 25 -27 -17 -8
-32 14 -33 50 -5 164 26 112 60 183 104 221 37 33 54 40 116 46 32 4 31 4 -8
5 -58 3 -116 -29 -154 -83 -22 -31 -34 -41 -40 -32 -4 6 -8 8 -8 4 0 -5 -7 -1
-16 8 -32 32 9 96 79 122 18 6 25 12 17 12 -8 0 -51 -18 -95 -40z m559 -9 c17
0 21 -6 21 -30 0 -16 -4 -30 -8 -30 -5 0 -43 12 -85 27 -76 28 -77 28 -42 34
19 4 48 5 64 3 16 -2 38 -4 50 -4z m-164 -32 c0 -13 -23 -5 -28 10 -2 7 2 10
12 6 9 -3 16 -11 16 -16z m-430 -12 c-5 -15 -5 -37 1 -58 13 -45 11 -58 -5
-58 -10 0 -17 15 -21 43 -7 43 7 97 25 97 6 0 6 -9 0 -24z m505 -27 c20 -18
47 -51 61 -75 14 -23 31 -48 39 -54 21 -18 19 -35 -2 -19 -15 11 -16 11 -6 0
6 -7 9 -20 6 -28 -5 -12 -9 -11 -24 3 -10 9 -16 20 -14 25 3 4 0 11 -6 15 -7
4 -9 3 -6 -3 4 -6 0 -13 -8 -17 -8 -3 -14 -2 -13 2 2 12 -30 78 -57 118 -45
66 -29 84 30 33z m20 21 c3 -6 -1 -7 -9 -4 -18 7 -21 14 -7 14 6 0 13 -4 16
-10z m695 -16 c113 -20 167 -38 280 -94 122 -61 197 -105 238 -141 30 -27 46
-34 97 -41 11 -2 25 -14 32 -28 7 -14 23 -27 35 -30 19 -5 23 -13 24 -50 1
-25 2 -49 4 -55 1 -5 2 -13 1 -17 0 -4 11 -16 24 -26 16 -13 24 -28 23 -43 -2
-14 4 -27 17 -33 47 -26 50 -29 26 -38 -19 -7 -22 -13 -17 -34 5 -18 2 -32
-10 -45 -15 -16 -15 -23 -5 -43 12 -21 11 -26 -8 -45 -12 -12 -28 -21 -36 -21
-8 0 -21 -16 -30 -36 -17 -41 -36 -37 -34 9 l2 32 6 -35 c4 -24 8 -30 13 -19
3 9 1 34 -5 57 -10 39 -9 44 12 65 l24 22 -7 -22 c-3 -13 -9 -32 -12 -43 -5
-15 -2 -20 11 -20 11 0 15 5 11 16 -3 8 -2 12 4 9 6 -3 10 -4 10 -1 0 2 3 12
7 22 5 13 3 15 -8 9 -11 -7 -12 -6 -2 6 7 8 10 26 7 40 -4 21 -3 22 5 4 7 -15
10 -2 10 50 0 51 -3 65 -10 50 -8 -17 -8 -15 -4 8 4 19 1 27 -9 27 -9 0 -12 7
-9 20 3 11 0 20 -6 20 -5 0 -8 6 -5 14 3 8 1 17 -5 21 -6 3 -11 15 -11 25 0
31 -22 71 -36 66 -7 -3 -16 4 -19 15 -10 31 -45 59 -110 90 -81 38 -119 41
-123 12 -3 -22 -4 -22 -33 -7 -42 21 -93 15 -97 -12 l-3 -22 -37 21 c-47 25
-87 18 -96 -17 -3 -14 -1 -58 4 -98 6 -40 11 -106 11 -145 0 -41 5 -73 10 -73
6 0 7 -4 4 -10 -3 -6 1 -7 9 -4 9 3 13 10 10 15 -6 10 7 12 30 3 9 -3 14 -9
11 -14 -2 -4 7 -5 20 -2 21 3 25 10 25 37 l0 33 37 -19 c21 -10 45 -16 55 -13
16 5 17 2 4 -34 -8 -22 -22 -54 -30 -71 -27 -51 -9 -35 20 18 14 28 33 52 41
55 8 3 11 10 8 16 -3 5 -1 10 4 10 6 0 11 8 11 18 0 24 10 34 24 23 6 -5 21
-11 33 -13 l22 -3 -18 -41 c-10 -23 -29 -51 -42 -63 l-24 -23 45 24 c25 13 40
24 33 26 -17 4 -17 3 9 51 12 22 25 38 30 35 4 -3 8 1 8 8 0 8 7 23 16 34 8
10 13 14 10 8 -3 -7 6 -9 27 -6 l32 5 -29 -39 c-16 -21 -39 -50 -51 -64 -17
-19 -24 -41 -28 -95 -2 -38 -10 -83 -18 -98 -13 -28 -13 -28 -21 -7 -11 30
-43 22 -43 -10 0 -19 5 -25 23 -25 35 -1 44 -24 21 -53 -10 -14 -19 -31 -19
-39 0 -7 -8 -16 -17 -20 -26 -9 -63 -44 -63 -60 0 -21 34 -15 49 9 l14 23 -23
-20 -23 -20 12 22 c6 13 13 23 16 23 2 0 11 3 21 7 11 4 15 3 10 -5 -7 -12 29
-27 44 -17 5 3 10 13 10 21 0 8 10 14 23 15 21 0 21 1 2 9 -23 10 -5 13 20 4
14 -6 12 -11 -11 -35 -30 -32 -27 -45 8 -36 25 7 46 35 59 79 7 27 7 28 -14
13 -35 -24 -41 -17 -9 10 38 32 42 31 42 -5 0 -16 5 -30 10 -30 6 0 10 7 10
15 0 8 6 12 14 9 17 -6 25 6 28 39 1 14 7 25 12 24 5 -1 16 11 24 27 13 26 16
27 30 12 14 -14 14 -19 1 -43 -7 -15 -31 -49 -53 -76 -61 -73 -160 -113 -356
-142 -58 -8 -119 -20 -136 -26 -31 -10 -32 -12 -36 -79 -2 -38 -7 -72 -10 -76
-11 -10 -144 -33 -239 -40 l-89 -7 0 46 c0 51 -16 67 -60 60 -14 -2 -137 -6
-275 -9 -137 -3 -260 -7 -272 -10 -20 -4 -23 -11 -23 -50 0 -45 0 -45 -32 -42
-31 3 -33 6 -36 43 -2 22 -7 44 -12 49 -5 5 -50 14 -101 20 l-93 12 3 50 c2
40 -2 53 -19 69 -28 26 -106 26 -144 2 -22 -15 -26 -25 -26 -63 0 -39 -3 -45
-17 -40 -10 3 -49 12 -88 20 -99 21 -229 69 -329 121 -48 25 -93 45 -101 45
-8 0 -16 5 -16 10 -1 6 -3 15 -4 20 -1 6 -3 16 -4 24 0 8 -10 17 -20 21 -10 3
-21 15 -24 26 -3 11 -15 23 -26 26 -17 4 -19 9 -10 25 8 16 5 27 -15 56 -17
25 -23 45 -20 60 4 12 1 28 -5 36 -9 10 -8 16 4 26 8 7 15 22 15 34 0 12 9 29
19 38 12 10 18 24 14 36 -7 27 50 113 120 183 47 45 225 165 233 156 1 -1 -2
-24 -6 -52 -13 -76 16 -230 64 -345 5 -12 -2 -15 -31 -15 -38 0 -38 -1 -41
-43 -4 -60 24 -149 58 -183 33 -34 57 -30 62 9 3 26 6 27 66 29 70 2 82 -9 66
-56 -7 -17 -6 -36 0 -53 8 -22 6 -31 -8 -47 -22 -24 -18 -65 8 -69 15 -3 18 0
13 19 -4 16 0 31 15 46 18 20 20 26 10 48 -7 14 -12 37 -12 50 0 21 2 22 25
12 18 -9 29 -27 40 -63 8 -27 25 -63 39 -79 30 -35 81 -44 96 -16 12 24 -10
45 -42 39 -20 -4 -23 0 -25 31 -2 26 1 32 7 21 8 -13 10 -13 10 1 0 13 10 16
53 14 l52 -2 6 -44 5 -44 5 40 c3 33 7 40 24 37 11 -2 40 -6 65 -9 52 -7 60
-15 60 -62 l0 -34 -25 27 c-26 28 -69 35 -79 11 -6 -15 26 -39 38 -28 3 4 21
-10 40 -30 19 -21 40 -35 47 -33 8 2 26 7 42 10 15 4 27 13 27 21 0 18 -5 18
-31 5 -23 -13 -25 -3 -5 45 8 18 11 37 8 40 -4 4 10 6 30 3 20 -2 35 -1 33 3
-3 3 7 11 20 17 28 13 30 7 15 -34 -6 -15 -9 -29 -6 -31 2 -3 12 20 22 51 11
33 25 58 35 61 10 3 34 24 53 45 l36 40 1 -32 c1 -18 2 -64 3 -103 1 -64 3
-70 21 -66 11 2 43 4 70 5 66 3 131 32 115 51 -10 11 -18 11 -53 -2 -54 -19
-98 -6 -92 28 15 78 32 97 78 90 4 0 7 4 7 10 0 8 5 8 15 -1 12 -10 16 -8 24
11 5 13 21 35 35 48 34 32 35 12 2 -69 -28 -68 -26 -78 3 -22 16 30 20 33 21
15 0 -26 12 -35 34 -27 19 7 21 37 3 53 -10 8 -17 7 -25 -1 -16 -16 -15 -3 3
56 16 53 22 146 11 165 -4 6 -17 11 -29 10 l-22 0 23 -9 c18 -8 22 -17 22 -55
0 -39 -6 -51 -40 -89 -50 -54 -129 -90 -176 -81 -26 4 -34 11 -35 28 -2 35 2
61 12 73 5 6 5 15 1 19 -4 5 -1 5 5 1 9 -5 20 8 35 38 12 25 25 43 30 40 5 -3
7 -1 6 4 -2 5 19 29 45 52 33 29 46 48 42 59 -3 8 -3 12 1 8 4 -4 18 3 31 15
14 13 23 16 23 9 0 -7 -29 -41 -64 -76 -41 -42 -54 -59 -36 -50 66 34 160 191
147 242 -3 12 -5 10 -6 -8 0 -14 -7 -33 -14 -43 -12 -16 -13 -13 -11 20 2 22
0 28 -2 14 -3 -14 -10 -38 -17 -55 l-12 -30 -5 50 c-4 42 -9 51 -27 53 -22 3
-33 -5 -86 -66 -35 -41 -44 -40 -39 3 4 32 2 35 -19 34 -19 -1 -20 -2 -5 -6
15 -4 17 -11 13 -39 -10 -58 21 -45 91 40 34 40 56 31 62 -27 6 -47 -2 -67
-27 -67 -17 0 -16 19 2 50 36 62 -6 69 -55 9 -31 -39 -95 -77 -108 -64 -3 3 2
19 11 34 9 16 17 33 17 39 0 14 -39 22 -47 10 -4 -7 -1 -8 7 -3 9 5 11 4 6 -3
-4 -6 -20 -10 -36 -8 -31 4 -43 -2 -34 -15 3 -5 15 -4 27 2 21 10 21 10 3 -5
-19 -15 -66 -22 -66 -10 0 9 52 69 59 67 3 -1 7 20 9 45 3 51 21 78 46 69 10
-4 16 -19 16 -42 0 -36 15 -46 38 -23 9 9 12 9 12 0 0 -6 -8 -16 -17 -21 -10
-6 -14 -11 -9 -11 22 0 46 35 46 67 0 20 4 32 10 28 6 -3 7 1 4 10 -9 22 -16
12 -24 -32 -7 -35 -8 -33 -9 20 -1 51 1 58 17 55 9 -2 26 -20 37 -41 32 -59
55 -45 55 34 0 75 51 36 76 -59 12 -44 13 -45 13 -14 1 38 -17 78 -48 106 -31
29 -51 14 -51 -38 0 -51 -16 -69 -29 -33 -10 27 21 137 34 118 8 -14 35 4 35
24 0 7 15 19 33 26 17 7 36 15 40 17 4 2 6 -31 3 -74 -4 -64 -3 -71 4 -39 6
22 10 55 11 73 1 27 5 32 25 32 14 0 24 6 24 14 0 8 14 19 30 25 17 6 30 17
30 27 0 14 -8 16 -50 12 -36 -4 -50 -2 -50 8 0 26 39 25 200 -2z m-1256 1 c-4
-8 -11 -15 -16 -15 -6 0 -5 6 2 15 7 8 14 15 16 15 2 0 1 -7 -2 -15z m618 -6
c11 -6 31 -35 44 -65 29 -66 29 -64 5 -64 -15 0 -28 18 -50 64 -40 82 -40 87
1 65z m231 -22 c114 -9 125 -12 100 -22 -17 -8 -35 -9 -45 -4 -24 13 -28 11
-28 -11 0 -10 9 -24 20 -30 11 -6 18 -15 15 -20 -3 -4 -19 5 -37 21 -23 22
-39 29 -62 27 -30 -3 -31 -5 -30 -48 1 -25 6 -54 10 -65 14 -34 11 -147 -4
-153 -11 -3 -13 10 -8 64 3 38 3 61 0 52 -5 -18 -24 -25 -24 -10 0 5 -16 34
-35 66 -28 46 -32 62 -25 81 6 15 6 27 0 30 -6 4 -10 -4 -11 -17 -1 -21 -1
-21 -11 5 -5 16 -7 31 -4 35 12 11 41 -15 39 -34 -2 -23 22 -57 42 -60 13 -2
13 2 -1 29 -9 18 -28 45 -43 61 -22 25 -23 28 -6 21 11 -4 78 -12 148 -18z
m-932 -40 c-5 -22 -2 -50 9 -85 14 -43 15 -54 4 -63 -8 -6 -14 -8 -14 -3 0 5
-5 2 -10 -6 -7 -12 -10 -8 -10 15 -1 17 -2 60 -3 97 -1 36 1 64 6 61 4 -2 7 3
7 12 0 9 4 14 9 11 5 -3 6 -21 2 -39z m1112 36 c-7 -2 -21 -2 -30 0 -10 3 -4
5 12 5 17 0 24 -2 18 -5z m-938 -23 c3 -6 -1 -7 -9 -4 -18 7 -21 14 -7 14 6 0
13 -4 16 -10z m655 -54 c0 -5 -7 -1 -15 10 -8 10 -14 24 -14 29 0 6 6 1 14 -9
8 -11 15 -24 15 -30z m108 18 c41 -28 52 -84 17 -84 -12 0 -85 81 -85 94 0 12
46 5 68 -10z m-778 -24 c0 -10 -6 -45 -14 -77 -17 -68 -27 -175 -15 -168 4 3
31 -4 60 -15 37 -15 65 -19 93 -16 32 5 36 4 19 -4 -32 -13 -29 -22 3 -10 14
6 33 10 42 10 15 0 15 -2 2 -10 -12 -8 -9 -10 13 -10 15 0 27 -4 27 -10 0 -5
-4 -10 -9 -10 -4 0 -6 -12 -3 -26 3 -15 1 -25 -4 -22 -5 3 -18 8 -29 13 l-20
7 20 8 c15 7 9 9 -25 9 -46 1 -201 40 -239 60 -25 14 -26 35 -6 130 24 113 85
215 85 141z m430 3 c23 -13 50 -50 50 -68 0 -2 -16 -7 -35 -11 -27 -5 -41 -2
-55 11 -31 28 -26 76 8 84 2 1 17 -6 32 -16z m-694 -86 c0 -34 6 -72 12 -83 8
-16 8 -24 0 -32 -20 -20 -37 -14 -30 10 3 11 1 19 -4 16 -9 -6 -9 113 0 138
12 31 21 11 22 -49z m872 -9 c3 -42 -6 -48 -32 -19 -13 15 -15 24 -7 39 17 31
36 22 39 -20z m-48 -17 c7 -18 10 -47 6 -68 -3 -21 -8 -53 -10 -71 -4 -31 -16
-54 -48 -92 -10 -12 -32 -16 -85 -15 -39 0 -75 3 -79 8 -4 4 -2 7 4 7 19 0 14
20 -5 21 -10 1 0 5 22 9 39 7 38 7 -20 10 l-60 3 82 8 c44 4 95 15 112 23 16
9 33 16 36 16 13 0 -8 -22 -29 -30 -16 -7 -17 -9 -4 -9 9 -1 30 10 45 24 17
16 21 23 10 19 -16 -6 -16 -3 3 29 25 42 20 94 -12 130 l-19 22 17 -28 c21
-35 20 -103 -1 -127 -38 -42 -84 -54 -210 -54 -116 0 -176 10 -268 46 l-28 11
43 19 c24 11 90 37 148 58 98 35 109 37 156 27 61 -12 98 -4 126 28 25 29 49
21 68 -24z m244 24 c-4 -8 -10 -15 -15 -15 -5 0 -9 7 -9 15 0 8 7 15 15 15 9
0 12 -6 9 -15z m-919 -34 c3 -6 1 -40 -5 -76 -10 -63 -9 -67 11 -84 30 -24 16
-44 -24 -35 -45 9 -57 22 -57 58 0 79 52 174 75 137z m1732 -26 c8 -8 19 -12
25 -9 7 5 8 2 3 -6 -5 -8 -3 -11 6 -8 8 3 13 11 11 17 -1 6 20 0 47 -13 52
-27 101 -77 101 -104 -1 -9 -7 -3 -14 14 -14 31 -60 74 -80 74 -6 0 4 -12 23
-27 34 -27 61 -76 61 -113 0 -40 -27 -19 -53 42 -15 34 -29 59 -32 56 -3 -3 6
-30 20 -60 40 -88 68 -100 78 -33 l4 30 2 -31 c3 -81 -68 -83 -89 -2 -19 75
-38 107 -90 144 -27 20 -50 38 -50 40 0 8 12 3 27 -11z m-1007 -34 c0 -43 -21
-101 -44 -120 -12 -10 -14 -9 -9 8 3 12 9 21 13 21 4 0 7 6 7 13 -2 29 16 117
24 117 5 0 9 -17 9 -39z m948 15 c50 -25 97 -67 113 -101 6 -11 -6 -3 -26 18
-64 67 -165 120 -165 86 0 -5 -5 -7 -10 -4 -15 9 -2 25 21 25 11 0 41 -11 67
-24z m-148 -6 c21 -11 54 -39 73 -62 56 -70 55 -77 -4 -17 -61 62 -116 96
-131 81 -6 -6 7 -28 36 -60 26 -30 54 -76 66 -111 34 -92 78 -118 107 -61 10
19 13 21 13 7 0 -31 -20 -57 -43 -57 -34 0 -72 47 -92 112 -11 36 -34 76 -61
108 -47 55 -51 65 -31 73 21 9 26 8 67 -13z m167 -32 c54 -36 87 -80 108 -141
13 -39 14 -51 4 -63 -22 -27 -51 -12 -80 43 -14 29 -39 70 -55 90 l-27 38 27
-25 c16 -14 41 -51 57 -82 16 -31 33 -60 39 -63 13 -8 40 12 39 29 0 7 -2 6
-6 -1 -11 -28 -38 -12 -56 32 -20 47 -94 138 -107 130 -4 -2 -16 5 -26 17 -11
12 -13 18 -5 13 11 -6 13 -4 8 9 -6 14 -3 16 16 10 12 -4 41 -20 64 -36z
m-129 -33 c76 -68 126 -185 78 -185 -23 0 -36 18 -62 81 -14 35 -43 85 -65
111 -21 26 -39 49 -39 53 0 11 36 -14 88 -60z m-1666 -20 c3 -34 8 -42 43 -62
22 -13 39 -26 38 -30 -1 -5 10 -9 23 -9 22 -2 23 -1 8 10 -15 12 -15 13 -1 19
17 6 33 -25 22 -43 -4 -6 1 -7 11 -3 12 4 15 3 10 -5 -4 -7 -2 -10 7 -7 7 3
27 -1 43 -10 22 -11 24 -15 10 -15 -27 0 -17 -6 22 -13 21 -4 31 -3 27 4 -5 6
3 7 22 2 15 -4 43 -8 61 -7 18 0 27 -3 21 -7 -8 -5 -6 -9 7 -13 20 -6 -63 -1
-168 11 -56 6 -62 5 -50 -9 7 -9 39 -25 71 -37 64 -23 84 -27 61 -10 -10 7
-11 9 -2 7 8 -2 13 -7 12 -12 -1 -5 5 -13 14 -18 9 -5 16 -16 16 -25 0 -12 -3
-13 -13 -5 -7 6 -29 12 -48 13 -19 1 -70 11 -113 22 -58 15 -81 17 -84 9 -2
-7 -9 -12 -15 -12 -7 1 -1 10 13 22 19 16 20 20 6 14 -10 -3 -28 -4 -39 0 -16
5 -17 8 -6 15 11 7 9 9 -6 7 -39 -3 -55 2 -55 17 0 15 21 20 73 16 17 -1 29 4
33 13 3 9 11 13 18 10 6 -3 3 1 -7 10 -11 8 -25 12 -32 10 -7 -3 -16 -1 -19 5
-4 6 -14 7 -23 4 -10 -4 -14 -2 -10 4 4 5 -6 15 -21 22 -25 11 -26 10 -8 -4
11 -8 15 -15 9 -15 -6 0 -21 8 -32 18 -20 15 -21 22 -12 60 10 46 39 88 52 75
4 -5 9 -26 11 -48z m323 -5 c13 -6 15 -9 5 -9 -8 0 -22 4 -30 9 -18 12 -2 12
25 0z m-43 -74 c7 4 8 2 4 -4 -4 -6 -13 -9 -21 -6 -8 4 -12 11 -8 17 5 8 8 7
11 -1 2 -7 9 -9 14 -6z m604 2 c4 -6 3 -8 -4 -4 -12 7 -19 -13 -21 -59 -1 -16
-6 -34 -12 -40 -8 -7 -10 -2 -7 18 3 17 0 30 -8 35 -19 11 -14 25 15 44 14 9
27 17 28 17 1 1 5 -4 9 -11z m138 -4 c3 -8 2 -12 -4 -9 -6 3 -10 10 -10 16 0
14 7 11 14 -7z m-790 -8 c-3 -8 -1 -17 5 -21 6 -3 11 -12 11 -18 0 -8 -3 -8
-9 1 -4 8 -11 13 -15 13 -3 -1 -6 1 -6 4 0 3 0 12 0 20 0 8 4 15 10 15 5 0 7
-6 4 -14z m517 -9 c-10 -9 -11 -8 -5 6 3 10 9 15 12 12 3 -3 0 -11 -7 -18z
m1029 -12 c0 -5 -5 -3 -10 5 -5 8 -10 20 -10 25 0 6 5 3 10 -5 5 -8 10 -19 10
-25z m-1417 18 c-7 -2 -21 -2 -30 0 -10 3 -4 5 12 5 17 0 24 -2 18 -5z m645
-44 c-5 -16 -14 -26 -19 -23 -6 3 -5 12 2 20 8 10 9 18 2 25 -10 10 -11 6 -15
-41 -2 -13 -7 -19 -16 -15 -7 3 -19 5 -25 5 -7 0 -6 4 3 10 8 5 11 12 8 15 -4
4 5 17 20 30 35 30 55 17 40 -26z m1046 -16 c-5 -42 -9 -51 -13 -34 -5 19 -8
21 -17 10 -21 -26 -35 -86 -27 -115 7 -26 9 -23 14 26 l6 55 1 -51 c1 -35 -3
-56 -13 -64 -13 -10 -15 -9 -16 11 l-1 24 -8 -25 c-7 -21 -8 -18 -7 15 2 38
-13 61 -22 34 -2 -6 0 -9 5 -6 5 3 8 -12 6 -32 -2 -24 -9 -38 -18 -38 -10 0
-12 11 -9 43 3 33 15 57 48 97 24 30 50 68 58 85 19 43 22 34 13 -35z m-1499
33 c121 2 137 0 120 -12 -10 -8 -23 -14 -28 -14 -4 0 -5 -4 -2 -10 3 -5 24
-10 47 -10 38 0 40 -2 34 -24 -3 -14 -3 -27 1 -29 5 -3 9 8 10 25 2 23 -3 31
-17 35 -27 7 -25 21 5 35 30 13 43 5 25 -17 -12 -14 -8 -15 31 -10 38 5 41 4
25 -7 -10 -7 -28 -21 -40 -30 -21 -17 -21 -17 14 -17 32 -1 96 11 143 25 9 3
17 0 17 -6 0 -15 -90 -55 -165 -74 -60 -15 -253 -36 -332 -36 -70 0 -49 17 30
24 89 8 153 24 141 36 -5 5 -45 10 -89 12 -89 3 -102 18 -31 32 25 5 46 13 46
17 0 10 -38 22 -49 15 -14 -9 -174 13 -185 25 -8 9 -5 10 14 4 14 -4 79 -9
145 -10 l120 -3 -105 9 c-58 6 -126 11 -152 13 -26 1 -51 6 -55 11 -5 4 26 4
67 -1 41 -5 138 -8 215 -8z m1639 -28 c-3 -5 0 -16 7 -25 11 -13 11 -15 -6
-12 -14 3 -21 14 -23 38 -3 31 -2 33 12 22 9 -7 13 -17 10 -23z m-114 -22 c-6
-20 -11 -57 -10 -83 3 -79 1 -90 -21 -114 l-21 -24 16 25 c11 17 16 48 16 99
0 41 5 89 12 108 16 44 23 34 8 -11z m-1250 -5 c0 -5 -10 -11 -22 -14 -22 -6
-22 -6 -4 8 23 17 26 18 26 6z m1290 -37 c0 -19 -22 -64 -31 -64 -4 0 -5 12
-2 28 3 15 6 40 6 56 0 26 1 27 14 10 7 -10 13 -24 13 -30z m-1672 29 c-18 -5
-31 -30 -22 -44 3 -5 0 -9 -7 -9 -7 0 -9 10 -7 25 3 13 0 26 -6 28 -6 2 5 4
24 4 19 0 28 -2 18 -4z m-228 -7 c0 -3 -4 -8 -10 -11 -5 -3 -10 -1 -10 4 0 6
5 11 10 11 6 0 10 -2 10 -4z m760 0 c0 -3 -4 -8 -10 -11 -5 -3 -10 -1 -10 4 0
6 5 11 10 11 6 0 10 -2 10 -4z m-715 -16 c-28 -12 -47 -12 -40 0 3 6 18 10 33
9 24 0 25 -1 7 -9z m127 -27 c4 -35 -21 -81 -33 -61 -12 19 -11 30 3 22 7 -4
8 -3 4 5 -4 6 -11 9 -16 6 -4 -3 -13 2 -19 9 -9 11 -9 16 0 22 8 4 9 3 5 -4
-4 -7 -1 -12 7 -12 10 0 13 7 10 20 -4 15 0 20 15 20 15 0 22 -8 24 -27z
m-369 3 c9 -7 17 -16 17 -19 0 -9 -25 -2 -27 7 -1 5 -7 13 -15 17 -7 5 -8 9
-3 9 6 -1 18 -7 28 -14z m2017 -80 c-7 -7 -10 9 -9 45 l1 54 9 -45 c5 -28 5
-48 -1 -54z m-1100 80 c0 -12 -32 -76 -38 -76 -16 1 -48 26 -47 38 0 16 42 41
68 42 9 0 17 -2 17 -4z m1189 -35 c-6 -17 -16 -35 -24 -41 -7 -6 -4 7 7 30 24
47 31 52 17 11z m-2000 3 c13 -12 -8 -10 -29 2 l-25 15 25 -7 c14 -3 27 -8 29
-10z m-163 -29 c27 -19 70 -46 96 -60 53 -28 61 -37 52 -59 -9 -24 -70 -20
-130 8 -52 24 -114 88 -114 117 0 40 35 38 96 -6z m874 25 c0 -5 -8 -10 -17
-10 -15 0 -16 2 -3 10 19 12 20 12 20 0z m-779 -32 c-10 -11 -11 -9 -5 6 6 15
4 17 -6 11 -9 -6 -11 -4 -5 4 5 9 10 10 18 2 8 -8 7 -14 -2 -23z m46 15 c-4
-3 -1 -13 6 -21 11 -13 9 -14 -10 -1 -16 9 -19 16 -10 21 15 9 23 10 14 1z
m108 -3 c13 -6 15 -9 5 -9 -8 0 -22 4 -30 9 -18 12 -2 12 25 0z m110 -20 c22
-25 1 -28 -31 -5 -12 8 -25 11 -29 7 -5 -4 -5 -1 -1 6 11 18 41 15 61 -8z
m400 9 c-4 -5 -1 -9 5 -9 6 0 8 -5 4 -11 -3 -6 -9 -7 -13 -3 -3 5 -12 9 -18
10 -35 3 -38 4 -26 12 18 11 54 12 48 1z m83 4 c-10 -2 -26 -2 -35 0 -10 3 -2
5 17 5 19 0 27 -2 18 -5z m-688 -43 c8 -5 10 -10 4 -10 -7 0 -22 9 -35 21 -19
16 -20 18 -4 10 11 -6 27 -15 35 -21z m452 13 c34 4 77 3 93 -1 25 -7 20 -9
-30 -9 -33 -1 -79 -3 -102 -6 -39 -4 -43 -2 -43 17 0 16 2 18 9 7 7 -11 24
-12 73 -8z m-5 11 c-3 -3 -12 -4 -19 -1 -8 3 -5 6 6 6 11 1 17 -2 13 -5z m313
-8 c0 -7 -8 -20 -17 -27 -11 -10 -14 -10 -9 -1 9 15 12 16 -64 -13 -36 -13
-57 -24 -47 -24 10 -1 34 6 54 14 20 8 38 13 41 10 6 -6 -30 -19 -110 -42 -46
-13 -100 -17 -198 -18 -120 0 -144 3 -220 28 -93 30 -126 49 -115 67 9 15 55
9 164 -20 80 -21 92 -22 217 -11 73 6 154 18 181 26 61 19 77 18 38 -1 l-30
-14 30 7 c17 3 40 7 53 7 24 1 29 11 10 19 -8 3 -6 6 5 6 9 1 17 -5 17 -13z
m-709 -13 c8 -10 9 -14 2 -10 -7 4 -16 0 -22 -10 -6 -10 -11 -13 -11 -6 0 6 5
15 10 18 6 4 8 11 5 16 -10 15 2 10 16 -8z m2059 -3 c0 -5 -4 -10 -10 -10 -5
0 -10 5 -10 10 0 6 5 10 10 10 6 0 10 -4 10 -10z m-252 -26 c-23 -10 -41 -26
-47 -42 -9 -26 -9 -26 -10 -4 -1 26 16 47 45 55 41 10 47 5 12 -9z m-1118 -21
c0 -12 -35 -64 -63 -95 -23 -26 -25 -27 -40 -10 -15 16 -15 19 5 31 21 13 21
14 2 28 -18 14 -18 15 5 8 15 -5 21 -4 17 3 -4 6 6 18 21 26 31 17 53 20 53 9z
m1189 -56 c0 -18 -4 -41 -9 -52 -6 -14 -9 -4 -9 38 -1 36 3 56 9 52 6 -3 10
-21 9 -38z m-113 -15 c-14 -15 -15 -13 -3 17 8 23 13 28 15 16 2 -10 -3 -25
-12 -33z m-1180 1 c-4 -4 -25 -6 -47 -4 -26 1 -38 -2 -34 -9 8 -13 -2 -12 -45
5 l-35 14 40 -5 c30 -4 36 -3 25 5 -11 8 -7 10 20 5 19 -3 41 -7 48 -10 6 -2
12 1 12 6 0 6 -5 10 -11 10 -5 0 -7 5 -4 10 4 6 12 4 22 -5 8 -9 12 -19 9 -22z
m1201 -24 c-25 -29 -43 -57 -40 -62 3 -6 1 -7 -5 -3 -13 8 -28 -37 -17 -53 3
-6 1 -11 -4 -11 -23 0 -16 53 12 86 62 75 90 104 95 100 2 -3 -16 -29 -41 -57z
m-87 31 c0 -11 -7 -20 -15 -20 -8 0 -15 9 -15 20 0 11 7 20 15 20 8 0 15 -9
15 -20z m-1493 -36 c36 -23 29 -42 -14 -42 -92 -2 -192 51 -147 76 20 11 127
-11 161 -34z m1535 19 c-3 -16 -7 -22 -10 -15 -4 13 4 42 11 42 2 0 2 -12 -1
-27z m-1369 10 c-7 -2 -19 -2 -25 0 -7 3 -2 5 12 5 14 0 19 -2 13 -5z m604
-27 c-4 -9 -11 -16 -17 -16 -11 0 -14 33 -3 44 11 10 26 -11 20 -28z m-672 13
c-8 -12 30 -21 58 -14 16 4 26 2 30 -8 3 -7 -1 -14 -9 -14 -7 0 -11 3 -9 7 2
4 -10 7 -28 7 -18 1 -43 3 -57 6 -14 2 -28 5 -32 6 -21 3 -4 16 22 17 16 1 27
-2 25 -7z m145 -11 c0 -11 -38 -10 -44 1 -3 5 5 8 19 7 14 0 25 -4 25 -8z
m1368 -34 c-7 -15 -19 -29 -25 -32 -20 -6 -16 43 4 59 11 10 14 10 9 2 -4 -7
-2 -13 3 -13 6 0 11 8 12 18 0 9 3 12 6 5 2 -7 -2 -24 -9 -39z m-1240 14 c8
-41 -85 -86 -152 -74 -42 8 -50 41 -13 56 99 40 160 47 165 18z m1329 -30 c-3
-8 -6 -5 -6 6 -1 11 2 17 5 13 3 -3 4 -12 1 -19z m-93 -72 c-9 -15 -19 -25
-21 -22 -5 5 30 56 35 51 2 -2 -4 -15 -14 -29z m-1658 -27 c3 -6 2 -15 -2 -19
-12 -12 -38 5 -30 19 9 14 23 14 32 0z m1820 -21 c4 -7 3 -8 -5 -4 -6 4 -14 0
-17 -8 -3 -9 -10 -13 -16 -10 -5 3 -1 12 9 20 22 17 20 16 29 2z m-1832 -71
c13 -21 -2 -33 -51 -43 -65 -12 -111 17 -83 52 19 22 119 16 134 -9z m6 -59
c0 -23 -18 -41 -34 -35 -21 8 -20 34 2 40 29 8 32 7 32 -5z m1444 -7 c4 -5 -1
-8 -9 -7 -21 3 -31 16 -12 16 9 0 18 -4 21 -9z m61 -41 c3 -5 1 -10 -4 -10 -6
0 -11 5 -11 10 0 6 2 10 4 10 3 0 8 -4 11 -10z m-1760 -30 c3 -6 -1 -7 -9 -4
-18 7 -21 14 -7 14 6 0 13 -4 16 -10z m1163 -50 c1 -27 -3 -30 -28 -30 -42 0
-45 15 -8 38 18 11 33 21 34 21 1 1 1 -12 2 -29z m-188 10 c0 -5 -2 -10 -4
-10 -3 0 -8 5 -11 10 -3 6 -1 10 4 10 6 0 11 -4 11 -10z m46 -21 c-20 -16 -29
-18 -43 -9 -16 10 -15 10 4 5 19 -5 22 -3 17 12 -5 15 -4 15 5 3 8 -12 11 -12
17 3 3 9 10 14 15 11 5 -3 -2 -15 -15 -25z m660 22 c-4 -5 -2 -11 3 -13 5 -1
0 -28 -11 -58 -20 -54 -35 -158 -19 -132 5 9 8 3 7 -17 -1 -17 -4 -31 -8 -31
-5 0 -8 -7 -8 -16 0 -8 5 -12 10 -9 6 3 10 1 10 -4 0 -6 -7 -11 -15 -11 -8 0
-15 -5 -15 -11 0 -6 -8 -23 -19 -37 -10 -15 -21 -44 -25 -64 -8 -44 -43 -75
-62 -55 -18 18 -19 30 -10 158 7 100 5 121 -9 149 -9 18 -14 42 -11 54 6 22
56 56 82 56 9 0 12 4 9 10 -3 5 0 8 7 5 7 -3 27 4 43 15 32 21 50 26 41 11z
m-1216 -21 c0 -16 -7 -20 -30 -20 -37 0 -39 13 -2 27 15 6 28 11 30 12 1 1 2
-8 2 -19z m237 14 c-3 -3 -12 -4 -19 -1 -8 3 -5 6 6 6 11 1 17 -2 13 -5z m56
-1 c-7 -2 -21 -2 -30 0 -10 3 -4 5 12 5 17 0 24 -2 18 -5z m-492 -22 c5 8 9 9
9 3 0 -6 -6 -16 -13 -22 -10 -8 -13 -6 -14 11 0 12 1 16 4 8 5 -11 7 -11 14 0z
m1442 -66 c-3 -9 -8 -14 -10 -11 -3 3 -2 9 2 15 9 16 15 13 8 -4z m-1048 -13
c11 -2 14 -61 3 -78 -4 -6 4 -42 17 -79 30 -80 29 -75 9 -75 -30 0 -103 62
-114 96 -7 19 -16 34 -21 34 -16 0 -10 77 7 84 8 3 13 10 10 14 -4 7 53 10 89
4z m435 -2 c11 -8 7 -9 -15 -4 -37 8 -45 14 -19 14 10 0 26 -5 34 -10z m-698
-37 c-3 -16 -7 -22 -10 -15 -4 13 4 42 11 42 2 0 2 -12 -1 -27z m-135 -25 c-3
-8 -6 -5 -6 6 -1 11 2 17 5 13 3 -3 4 -12 1 -19z m720 -60 c-3 -8 -6 -5 -6 6
-1 11 2 17 5 13 3 -3 4 -12 1 -19z m-859 -83 c-3 -3 -9 2 -12 12 -6 14 -5 15
5 6 7 -7 10 -15 7 -18z m617 7 c-3 -3 -11 0 -18 7 -9 10 -8 11 6 5 10 -3 15
-9 12 -12z m90 0 c-3 -3 -11 0 -18 7 -9 10 -8 11 6 5 10 -3 15 -9 12 -12z
m155 -6 c0 -3 -4 -8 -10 -11 -5 -3 -10 -1 -10 4 0 6 5 11 10 11 6 0 10 -2 10
-4z m-141 -56 c38 -40 42 -54 13 -43 -11 5 -13 3 -7 -8 7 -12 6 -12 -6 -1 -8
7 -14 18 -14 25 -1 7 -7 11 -14 9 -7 -1 -10 2 -6 8 3 5 -1 13 -9 16 -18 7 -22
34 -6 34 6 0 28 -18 49 -40z m-90 20 c12 18 23 9 11 -9 -9 -16 -40 -8 -40 11
0 9 3 9 10 -2 9 -13 11 -13 19 0z m914 -35 c19 5 20 5 4 -5 -21 -13 -37 -5
-36 18 1 15 2 15 6 -1 3 -13 11 -16 26 -12z m-645 1 c-7 -8 -15 -12 -17 -11
-5 6 10 25 20 25 5 0 4 -6 -3 -14z m18 -38 c-1 -21 -6 -24 -36 -19 -17 2 -11
18 13 29 12 6 23 11 23 11 1 1 1 -9 0 -21z m591 -20 c-3 -7 -5 -2 -5 12 0 14
2 19 5 13 2 -7 2 -19 0 -25z m43 28 c0 -2 -7 -9 -15 -16 -13 -11 -14 -10 -9 4
5 14 24 23 24 12z m-783 -21 c0 -8 -4 -12 -9 -9 -5 3 -6 10 -3 15 9 13 12 11
12 -6z m60 9 c-3 -3 -12 -4 -19 -1 -8 3 -5 6 6 6 11 1 17 -2 13 -5z m-686 -51
c-12 -20 -14 -14 -5 12 4 9 9 14 11 11 3 -2 0 -13 -6 -23z m1320 14 c-13 -6
-26 -22 -28 -35 -2 -16 1 -21 9 -16 7 5 8 3 4 -5 -5 -7 -11 -10 -14 -7 -3 3
-12 0 -20 -7 -12 -9 -12 -6 1 14 10 14 14 29 10 32 -8 9 27 36 47 37 8 0 4 -6
-9 -13z m-54 -39 c-3 -8 -6 -5 -6 6 -1 11 2 17 5 13 3 -3 4 -12 1 -19z m-52
-38 c4 -6 -1 -7 -11 -3 -13 5 -15 3 -9 -7 5 -9 4 -11 -4 -6 -6 4 -9 12 -6 17
8 12 22 12 30 -1z m42 -16 c-3 -3 -12 -4 -19 -1 -8 3 -5 6 6 6 11 1 17 -2 13
-5z m-1204 -21 c-7 -2 -19 -2 -25 0 -7 3 -2 5 12 5 14 0 19 -2 13 -5z m1138
-16 c-10 -9 -11 -8 -5 6 3 10 9 15 12 12 3 -3 0 -11 -7 -18z m-31 9 c0 -3 -4
-8 -10 -11 -5 -3 -10 -1 -10 4 0 6 5 11 10 11 6 0 10 -2 10 -4z m-76 -45 c4
-5 -3 -7 -14 -4 -23 6 -26 13 -6 13 8 0 17 -4 20 -9z m-779 -81 c3 -6 -1 -7
-9 -4 -18 7 -21 14 -7 14 6 0 13 -4 16 -10z"/>
<path d="M3403 2048 c2 -7 9 -12 16 -11 6 2 20 -15 31 -36 11 -22 24 -42 30
-46 12 -7 -26 61 -48 88 -17 20 -36 23 -29 5z"/>
<path d="M3420 2014 c0 -6 7 -19 16 -30 14 -18 14 -18 3 6 -14 31 -19 36 -19
24z"/>
<path d="M4038 2003 c6 -2 18 -2 25 0 6 3 1 5 -13 5 -14 0 -19 -2 -12 -5z"/>
<path d="M4080 2006 c0 -10 28 -13 41 -5 10 6 7 9 -13 9 -16 0 -28 -2 -28 -4z"/>
<path d="M4150 2001 c8 -5 35 -11 60 -14 27 -4 37 -3 25 2 -28 11 -103 22 -85
12z"/>
<path d="M3982 1984 c-24 -17 -29 -39 -10 -50 7 -5 9 -2 5 8 -3 9 0 21 6 27
17 17 31 13 17 -4 -9 -10 -9 -15 -1 -15 6 0 11 3 12 8 0 4 2 15 4 25 4 21 -4
22 -33 1z"/>
<path d="M4060 1986 c0 -2 7 -7 16 -10 8 -3 12 -2 9 4 -6 10 -25 14 -25 6z"/>
<path d="M4125 1980 c3 -5 13 -10 21 -10 8 0 12 5 9 10 -3 6 -13 10 -21 10 -8
0 -12 -4 -9 -10z"/>
<path d="M4190 1970 c8 -5 20 -10 25 -10 6 0 3 5 -5 10 -8 5 -19 10 -25 10 -5
0 -3 -5 5 -10z"/>
<path d="M4272 1967 c7 -7 25 -20 41 -30 27 -17 36 -50 17 -62 -5 -3 -42 6
-81 20 -44 16 -101 27 -148 30 l-76 4 69 -9 c37 -6 101 -21 140 -35 85 -29 99
-30 120 -9 21 20 8 45 -42 79 -39 26 -63 34 -40 12z"/>
<path d="M4135 1940 c27 -12 43 -12 25 0 -8 5 -22 9 -30 9 -10 0 -8 -3 5 -9z"/>
<path d="M4208 1923 c7 -3 16 -2 19 1 4 3 -2 6 -13 5 -11 0 -14 -3 -6 -6z"/>
<path d="M4299 1921 c7 -5 10 -14 7 -20 -4 -6 0 -11 8 -11 9 0 16 4 16 8 0 12
-22 32 -34 32 -6 0 -5 -4 3 -9z"/>
<path d="M4240 1916 c0 -2 7 -7 16 -10 8 -3 12 -2 9 4 -6 10 -25 14 -25 6z"/>
<path d="M4450 1900 c0 -5 5 -10 10 -10 6 0 10 5 10 10 0 6 -4 10 -10 10 -5 0
-10 -4 -10 -10z"/>
<path d="M3816 1845 c-4 -15 -5 -30 -1 -33 3 -3 5 3 5 14 1 19 1 19 15 0 18
-24 19 -9 1 23 l-13 24 -7 -28z"/>
<path d="M4490 1850 c0 -5 5 -10 10 -10 6 0 10 5 10 10 0 6 -4 10 -10 10 -5 0
-10 -4 -10 -10z"/>
<path d="M3920 1830 c0 -5 5 -10 10 -10 6 0 10 5 10 10 0 6 -4 10 -10 10 -5 0
-10 -4 -10 -10z"/>
<path d="M3606 1801 c-3 -5 1 -11 9 -14 9 -4 12 -1 8 9 -6 16 -10 17 -17 5z"/>
<path d="M3730 1795 c-1 -33 50 -46 71 -17 11 14 11 15 -1 5 -20 -18 -47 -16
-59 5 -6 9 -11 12 -11 7z"/>
<path d="M3852 1765 c0 -16 2 -22 5 -12 2 9 2 23 0 30 -3 6 -5 -1 -5 -18z"/>
<path d="M3589 1752 c-3 -20 -2 -29 4 -23 5 5 7 19 5 32 -3 20 -5 19 -9 -9z"/>
<path d="M3950 1764 c0 -8 5 -24 11 -35 5 -11 8 -28 6 -37 -4 -14 -6 -13 -12
6 -4 12 -14 22 -21 22 -16 0 -18 -33 -4 -60 7 -13 5 -27 -6 -50 -21 -42 -9
-94 24 -98 20 -3 22 1 22 43 0 58 20 68 59 31 15 -14 30 -23 34 -19 15 14 6
42 -19 62 -18 14 -28 33 -30 56 -2 18 -10 48 -19 64 -16 33 -45 42 -45 15z"/>
<path d="M2407 1718 c-26 -29 -47 -59 -47 -68 0 -9 -18 -41 -40 -70 -22 -29
-40 -62 -40 -72 0 -25 40 -24 47 2 6 24 19 26 27 4 5 -13 9 -14 22 -3 11 9 13
22 9 50 -5 27 -3 39 8 46 8 4 24 27 36 51 12 24 33 47 46 52 26 10 29 18 19
44 -11 29 -39 17 -87 -36z"/>
<path d="M4130 1729 c-21 -37 5 -99 41 -99 23 0 24 13 3 31 -12 9 -15 24 -11
51 6 43 -14 53 -33 17z"/>
<path d="M2510 1700 c0 -5 5 -10 11 -10 5 0 7 5 4 10 -3 6 -8 10 -11 10 -2 0
-4 -4 -4 -10z"/>
<path d="M4050 1695 c0 -8 7 -15 15 -15 8 0 15 7 15 15 0 8 -7 15 -15 15 -8 0
-15 -7 -15 -15z"/>
<path d="M2452 1654 c-26 -18 -30 -65 -6 -88 19 -19 74 -21 96 -3 9 6 18 24
22 39 13 55 -60 89 -112 52z"/>
<path d="M4092 1628 c-7 -7 -12 -17 -12 -22 0 -6 5 -3 11 7 13 21 29 13 29
-15 0 -15 -4 -18 -17 -13 -15 5 -16 4 -5 -6 19 -20 43 9 31 39 -9 25 -19 28
-37 10z"/>
<path d="M4210 1595 c0 -8 5 -15 10 -15 6 0 10 7 10 15 0 8 -4 15 -10 15 -5 0
-10 -7 -10 -15z"/>
<path d="M4041 1513 c1 -34 26 -88 40 -88 20 0 23 39 4 74 -17 33 -45 42 -44
14z"/>
<path d="M4205 1500 c-3 -5 2 -10 12 -10 11 0 25 -6 32 -12 11 -11 13 -10 7 5
-3 10 -6 21 -6 23 0 9 -39 4 -45 -6z"/>
<path d="M2480 1490 c0 -5 7 -10 15 -10 8 0 15 5 15 10 0 6 -7 10 -15 10 -8 0
-15 -4 -15 -10z"/>
<path d="M3885 1490 c-3 -5 -1 -10 4 -10 6 0 11 5 11 10 0 6 -2 10 -4 10 -3 0
-8 -4 -11 -10z"/>
<path d="M3750 1434 c-29 -30 -73 -69 -97 -85 -24 -17 -43 -32 -43 -35 0 -7
16 3 70 42 38 27 139 134 128 134 -2 0 -28 -25 -58 -56z"/>
<path d="M3980 1463 c-18 -23 -21 -37 -18 -82 4 -37 11 -58 23 -67 40 -29 61
-8 28 28 -9 11 -17 34 -17 53 0 19 8 42 17 53 9 10 17 24 17 30 0 21 -28 13
-50 -15z"/>
<path d="M3826 1462 c7 -4 14 -16 17 -27 4 -15 5 -14 6 8 1 20 -4 27 -16 27
-12 0 -14 -3 -7 -8z"/>
<path d="M3772 1414 c-18 -24 -31 -44 -28 -44 7 0 69 81 65 84 -2 2 -19 -16
-37 -40z"/>
<path d="M3893 1418 c3 -26 0 -55 -9 -76 -17 -42 -17 -42 1 -42 34 0 58 97 35
141 -19 34 -33 22 -27 -23z"/>
<path d="M4305 1451 c-3 -5 -2 -12 3 -15 5 -3 9 1 9 9 0 17 -3 19 -12 6z"/>
<path d="M2444 1435 c-4 -9 -2 -21 4 -27 15 -15 44 -1 40 19 -4 23 -36 29 -44
8z m34 -7 c-6 -18 -28 -21 -28 -4 0 9 7 16 16 16 9 0 14 -5 12 -12z"/>
<path d="M2377 1413 c-4 -3 -7 -19 -7 -35 0 -22 -7 -31 -35 -42 -19 -8 -35
-22 -35 -30 0 -20 26 -21 33 -2 3 7 19 16 36 19 24 5 31 12 31 29 0 13 3 33 6
46 5 15 2 22 -8 22 -8 0 -18 -3 -21 -7z"/>
<path d="M4282 1403 c2 -9 13 -17 26 -18 37 -3 124 -88 114 -113 -3 -9 0 -13
8 -10 25 8 21 26 -12 64 -32 36 -112 94 -131 94 -5 0 -7 -8 -5 -17z"/>
<path d="M4600 1404 c0 -9 5 -14 12 -12 18 6 21 28 4 28 -9 0 -16 -7 -16 -16z"/>
<path d="M2315 1400 c-4 -6 -3 -16 3 -22 6 -6 12 -6 17 2 4 6 3 16 -3 22 -6 6
-12 6 -17 -2z"/>
<path d="M3825 1391 c-3 -11 -25 -36 -47 -56 -23 -19 -37 -35 -32 -35 25 1
104 93 91 106 -3 3 -8 -4 -12 -15z"/>
<path d="M4066 1381 c-4 -7 -5 -15 -2 -18 9 -9 19 4 14 18 -4 11 -6 11 -12 0z"/>
<path d="M2500 1361 c0 -6 5 -13 10 -16 6 -3 10 1 10 9 0 9 -4 16 -10 16 -5 0
-10 -4 -10 -9z"/>
<path d="M3676 1334 c-37 -28 -45 -38 -35 -45 20 -12 37 -11 19 2 -13 8 -11
12 9 27 34 24 67 51 61 51 -3 0 -27 -16 -54 -35z"/>
<path d="M4464 1355 c-4 -8 1 -26 10 -40 9 -13 16 -33 16 -45 0 -11 7 -20 15
-20 18 0 19 27 3 80 -13 41 -34 52 -44 25z"/>
<path d="M4550 1340 c0 -13 5 -20 13 -17 6 2 12 10 12 17 0 7 -6 15 -12 18 -8
2 -13 -5 -13 -18z"/>
<path d="M3910 1290 c0 -5 5 -10 10 -10 6 0 10 5 10 10 0 6 -4 10 -10 10 -5 0
-10 -4 -10 -10z"/>
<path d="M2340 1275 c-17 -20 -6 -86 17 -102 51 -38 107 3 101 74 l-3 38 -51
3 c-37 2 -54 -1 -64 -13z m99 -67 c-17 -34 -19 -34 -19 -5 0 18 5 27 15 27 13
0 14 -4 4 -22z"/>
<path d="M2500 1253 c0 -10 4 -24 9 -32 7 -10 2 -27 -12 -53 -17 -29 -20 -42
-11 -55 17 -28 34 -27 34 2 0 15 8 40 17 56 14 24 15 33 5 49 -6 11 -12 27
-12 35 0 8 -7 15 -15 15 -8 0 -15 -8 -15 -17z"/>
<path d="M4048 1223 c-61 -65 -83 -151 -42 -167 22 -9 34 1 34 30 0 13 14 53
30 87 17 35 30 67 30 70 0 16 -28 5 -52 -20z"/>
<path d="M4142 1185 c-12 -25 -22 -52 -22 -60 0 -26 38 -54 72 -55 18 0 44 -1
57 -2 13 -2 26 3 28 9 6 17 -38 33 -88 33 -43 0 -47 9 -24 50 16 27 20 70 7
70 -4 0 -18 -20 -30 -45z"/>
<path d="M3949 1208 c0 -7 -1 -29 -2 -48 -2 -31 -6 -35 -40 -45 -41 -11 -52
-28 -23 -33 26 -5 62 6 80 24 22 21 22 114 1 114 -8 0 -15 -6 -16 -12z"/>
<path d="M4531 1206 c-16 -19 -7 -46 14 -46 22 0 30 29 13 46 -13 13 -16 13
-27 0z"/>
<path d="M2583 1135 c0 -27 2 -38 4 -22 2 15 2 37 0 50 -2 12 -4 0 -4 -28z"/>
<path d="M4440 1151 c-17 -25 -26 -29 -62 -28 -62 3 -59 -20 3 -28 51 -7 52
-7 85 31 39 45 41 54 15 54 -11 0 -29 -13 -41 -29z"/>
<path d="M2767 1164 c-8 -8 1 -24 14 -24 5 0 9 7 9 15 0 15 -12 20 -23 9z"/>
<path d="M3890 1149 c0 -24 23 -21 28 4 2 10 -3 17 -12 17 -10 0 -16 -9 -16
-21z"/>
<path d="M4260 1155 c0 -8 5 -15 10 -15 6 0 10 7 10 15 0 8 -4 15 -10 15 -5 0
-10 -7 -10 -15z"/>
<path d="M2651 1090 c-1 -42 3 -67 14 -83 16 -21 16 -19 11 33 -5 58 -13 100
-19 107 -2 2 -5 -24 -6 -57z"/>
<path d="M2603 1075 c0 -22 2 -30 4 -17 2 12 2 30 0 40 -3 9 -5 -1 -4 -23z"/>
<path d="M2905 1090 c3 -5 8 -10 11 -10 2 0 4 5 4 10 0 6 -5 10 -11 10 -5 0
-7 -4 -4 -10z"/>
<path d="M2623 1050 c0 -25 2 -35 4 -22 2 12 2 32 0 45 -2 12 -4 2 -4 -23z"/>
<path d="M4064 1075 c-7 -18 3 -35 21 -35 21 0 28 19 15 35 -16 19 -29 19 -36
0z m27 -8 c-1 -12 -15 -9 -19 4 -3 6 1 10 8 8 6 -3 11 -8 11 -12z"/>
<path d="M2569 1050 c-7 -35 -4 -48 7 -38 3 4 4 21 2 40 l-3 33 -6 -35z"/>
<path d="M2722 1055 c0 -16 2 -22 5 -12 2 9 2 23 0 30 -3 6 -5 -1 -5 -18z"/>
<path d="M3450 1050 c0 -5 5 -10 10 -10 6 0 10 5 10 10 0 6 -4 10 -10 10 -5 0
-10 -4 -10 -10z"/>
<path d="M4400 1040 c0 -5 5 -10 10 -10 6 0 10 5 10 10 0 6 -4 10 -10 10 -5 0
-10 -4 -10 -10z"/>
<path d="M3127 1023 c-12 -11 -8 -23 8 -23 8 0 15 7 15 15 0 16 -12 20 -23 8z"/>
<path d="M3547 1023 c-4 -3 -7 -10 -7 -14 0 -10 70 -33 77 -25 4 3 0 6 -8 6
-8 0 -21 5 -29 10 -13 9 -13 11 0 20 12 8 11 10 -6 10 -11 0 -24 -3 -27 -7z"/>
<path d="M3601 1025 c11 -10 197 -16 204 -6 4 8 -28 11 -101 11 -59 0 -105 -2
-103 -5z"/>
<path d="M3860 1015 c0 -9 5 -15 11 -13 6 2 11 8 11 13 0 5 -5 11 -11 13 -6 2
-11 -4 -11 -13z"/>
<path d="M4225 1020 c-11 -5 -38 -9 -60 -9 -22 -1 -56 -9 -75 -20 -26 -14 -40
-16 -57 -8 -24 11 -73 2 -73 -13 0 -6 10 -10 23 -11 18 -1 17 -2 -7 -9 -29 -9
-48 -28 -41 -41 3 -3 30 0 61 8 51 13 63 13 108 -1 59 -18 126 -7 126 21 0 13
-7 14 -39 9 -22 -3 -46 -3 -55 0 -27 10 -7 24 37 25 55 0 112 20 112 39 0 17
-31 23 -60 10z"/>
<path d="M2810 995 c0 -8 5 -15 10 -15 6 0 10 7 10 15 0 8 -4 15 -10 15 -5 0
-10 -7 -10 -15z"/>
<path d="M3210 975 c0 -8 -8 -15 -19 -15 -21 0 -45 -23 -34 -33 3 -4 19 -7 34
-7 15 0 40 -5 56 -11 15 -6 74 -13 130 -15 86 -3 101 -2 97 10 -3 8 -12 17
-20 20 -7 3 -11 12 -8 20 7 17 -11 30 -28 20 -7 -5 -41 -9 -75 -10 -50 -2 -65
2 -79 17 -20 23 -54 25 -54 4z"/>
<path d="M3668 973 c12 -2 32 -2 45 0 12 2 2 4 -23 4 -25 0 -35 -2 -22 -4z"/>
<path d="M4254 945 c-4 -8 -4 -24 -1 -35 3 -10 -1 -24 -9 -31 -17 -14 -18 -49
-1 -49 20 0 41 42 42 88 1 30 -2 42 -12 42 -7 0 -16 -7 -19 -15z"/>
<path d="M4040 870 c0 -5 5 -10 10 -10 6 0 10 5 10 10 0 6 -4 10 -10 10 -5 0
-10 -4 -10 -10z"/>
<path d="M4167 854 c-14 -14 -7 -35 11 -32 9 2 17 10 17 17 0 16 -18 25 -28
15z"/>
<path d="M3500 2037 c0 -17 26 -77 34 -77 2 0 3 8 1 18 -2 9 -4 22 -4 28 -1 5
-8 19 -16 30 -13 18 -14 18 -15 1z"/>
<path d="M3579 1975 c17 -33 31 -51 31 -40 0 6 -10 21 -21 35 -13 17 -17 18
-10 5z"/>
<path d="M3624 1938 c3 -10 9 -25 13 -35 5 -12 3 -14 -7 -8 -9 6 -11 4 -5 -4
5 -8 11 -9 17 -3 6 6 4 20 -7 38 -9 16 -14 21 -11 12z"/>
<path d="M3680 1992 c0 -4 15 -23 34 -41 43 -41 61 -23 20 20 -26 28 -54 38
-54 21z m50 -27 c13 -14 21 -27 18 -30 -2 -3 -17 9 -33 25 -16 17 -24 30 -19
30 6 0 21 -11 34 -25z"/>
<path d="M2915 1934 c-4 -10 -13 -34 -21 -52 -8 -18 -14 -40 -13 -50 0 -9 5
-2 11 17 6 23 12 30 17 22 5 -8 11 3 15 30 7 44 1 66 -9 33z"/>
<path d="M2896 1794 c-4 -31 -5 -59 -2 -61 2 -3 8 21 11 52 4 31 5 58 3 61 -3
2 -8 -21 -12 -52z"/>
<path d="M2872 1785 c0 -16 2 -22 5 -12 2 9 2 23 0 30 -3 6 -5 -1 -5 -18z"/>
<path d="M2860 1736 c0 -8 4 -17 9 -20 5 -4 7 3 4 14 -6 23 -13 26 -13 6z"/>
<path d="M2900 1702 c8 -5 26 -13 40 -16 17 -5 20 -4 10 2 -8 5 -26 13 -40 16
-17 5 -20 4 -10 -2z"/>
<path d="M2986 1686 c11 -8 34 -18 50 -21 22 -5 18 -1 -15 14 -51 24 -64 27
-35 7z"/>
<path d="M3090 1660 c-13 -8 -12 -10 3 -10 9 0 17 5 17 10 0 12 -1 12 -20 0z"/>
<path d="M3525 1880 c3 -5 8 -10 11 -10 2 0 4 5 4 10 0 6 -5 10 -11 10 -5 0
-7 -4 -4 -10z"/>
<path d="M3368 1673 c7 -3 16 -2 19 1 4 3 -2 6 -13 5 -11 0 -14 -3 -6 -6z"/>
<path d="M2802 1828 c-7 -7 -12 -17 -12 -22 0 -6 5 -3 11 8 9 15 13 16 20 5 7
-11 9 -10 9 4 0 20 -11 22 -28 5z"/>
<path d="M2811 1784 c0 -11 3 -14 6 -6 3 7 2 16 -1 19 -3 4 -6 -2 -5 -13z"/>
<path d="M2773 1720 c0 -25 2 -35 4 -22 2 12 2 32 0 45 -2 12 -4 2 -4 -23z"/>
<path d="M2802 1735 c0 -16 2 -22 5 -12 2 9 2 23 0 30 -3 6 -5 -1 -5 -18z"/>
<path d="M4616 1801 c-3 -4 6 -19 19 -31 28 -26 34 -17 8 12 -16 18 -16 19 3
12 15 -5 16 -4 4 5 -18 13 -27 14 -34 2z"/>
<path d="M2700 1735 c-9 -11 -10 -16 -2 -11 8 5 12 -1 12 -22 0 -16 8 -36 18
-43 15 -12 16 -12 5 1 -6 8 -13 33 -15 54 -3 37 -4 38 -18 21z"/>
<path d="M2671 1654 c0 -11 3 -14 6 -6 3 7 2 16 -1 19 -3 4 -6 -2 -5 -13z"/>
<path d="M2758 1533 c6 -2 18 -2 25 0 6 3 1 5 -13 5 -14 0 -19 -2 -12 -5z"/>
<path d="M2860 1533 c0 -6 8 -17 18 -24 16 -13 16 -13 2 6 -8 11 -16 22 -17
24 -2 2 -3 0 -3 -6z"/>
<path d="M2958 1474 c6 -3 10 -9 8 -13 -3 -4 9 -8 25 -8 32 0 22 10 -21 21
-14 3 -19 3 -12 0z"/>
<path d="M3348 1550 c4 -37 2 -40 -22 -40 -22 0 -26 5 -27 28 0 24 -1 24 -8 7
-5 -11 -6 -24 -3 -29 2 -4 -5 -5 -17 -1 -11 3 -29 2 -38 -4 -14 -8 0 -10 55
-11 65 0 73 -2 70 -17 -2 -10 -19 -23 -38 -30 l-35 -12 33 0 c17 -1 32 4 32
10 0 6 7 9 15 5 10 -4 14 0 12 14 -2 11 -6 23 -10 26 -4 4 -7 15 -7 23 0 13 9
16 38 15 28 -1 30 0 7 3 -40 6 -51 18 -35 38 10 13 9 15 -7 15 -16 0 -18 -6
-15 -40z"/>
<path d="M3515 1491 c-11 -5 -24 -6 -29 -3 -5 3 -6 0 -2 -6 5 -8 -1 -12 -15
-12 -12 0 -20 -3 -16 -6 7 -7 103 14 127 27 20 11 -37 11 -65 0z"/>
<path d="M3408 1453 c6 -2 18 -2 25 0 6 3 1 5 -13 5 -14 0 -19 -2 -12 -5z"/>
<path d="M2615 1439 c-20 -31 142 -147 192 -137 34 6 23 28 -29 54 -29 15 -70
42 -91 60 -38 35 -61 42 -72 23z m55 -24 c15 -14 55 -41 91 -60 64 -34 66 -39
19 -35 -48 4 -150 76 -150 106 0 20 10 17 40 -11z"/>
<path d="M2950 1381 c0 -10 92 -51 112 -50 7 0 -6 8 -29 17 -60 25 -65 35 -7
16 93 -30 148 -36 259 -30 61 3 124 10 140 15 21 7 9 8 -40 3 -136 -14 -275
-7 -339 17 -63 22 -96 27 -96 12z"/>
<path d="M3468 1363 c7 -3 16 -2 19 1 4 3 -2 6 -13 5 -11 0 -14 -3 -6 -6z"/>
<path d="M3125 1315 c65 -17 161 -17 255 0 l75 14 -70 -7 c-89 -9 -196 -9
-260 0 l-50 7 50 -14z"/>
<path d="M2952 1248 c6 -19 47 -36 98 -43 l45 -5 -50 13 c-27 7 -59 18 -70 25
-19 11 -19 11 6 12 34 0 111 -27 121 -43 4 -6 10 -8 13 -5 13 13 -6 27 -59 42
-66 19 -109 21 -104 4z"/>
<path d="M3425 1220 c-17 -8 -17 -9 7 -7 15 1 24 5 22 9 -3 4 -6 8 -7 7 -1 0
-11 -4 -22 -9z"/>
<path d="M3378 1203 c7 -3 16 -2 19 1 4 3 -2 6 -13 5 -11 0 -14 -3 -6 -6z"/>
<path d="M3317 1189 c-20 -12 -14 -29 11 -29 14 0 14 2 3 9 -11 7 -10 11 5 20
11 6 15 10 9 10 -5 0 -18 -4 -28 -10z"/>
<path d="M3436 1185 c-11 -8 -15 -15 -9 -15 6 0 16 7 23 15 16 19 11 19 -14 0z"/>
<path d="M3378 1163 c6 -2 18 -2 25 0 6 3 1 5 -13 5 -14 0 -19 -2 -12 -5z"/>
<path d="M2931 1001 c-7 -5 -10 -14 -7 -20 9 -14 76 -14 96 -1 13 9 13 11 0
20 -19 12 -70 13 -89 1z"/>
<path d="M3810 390 c0 -5 5 -10 10 -10 6 0 10 5 10 10 0 6 -4 10 -10 10 -5 0
-10 -4 -10 -10z"/>
<path d="M3383 2183 c31 -2 83 -2 115 0 31 2 5 3 -58 3 -63 0 -89 -1 -57 -3z"/>
<path d="M3580 2170 c11 -9 12 -13 3 -17 -22 -8 -14 -33 13 -43 34 -13 41 -13
22 3 -9 6 -18 23 -20 36 -2 14 -10 26 -18 28 -13 4 -13 3 0 -7z"/>
<path d="M3973 2143 c15 -2 37 -2 50 0 12 2 0 4 -28 4 -27 0 -38 -2 -22 -4z"/>
<path d="M3888 2118 c-14 -21 -22 -23 -124 -22 -99 1 -103 0 -44 -7 85 -10
157 -1 173 21 7 10 21 20 32 23 19 4 19 5 -1 6 -12 0 -28 -9 -36 -21z"/>
<path d="M4105 2124 c28 -7 55 -13 60 -13 17 2 -69 27 -90 27 -11 0 3 -6 30
-14z"/>
<path d="M4320 2060 c8 -5 20 -10 25 -10 6 0 3 5 -5 10 -8 5 -19 10 -25 10 -5
0 -3 -5 5 -10z"/>
<path d="M4370 2040 c8 -5 20 -10 25 -10 6 0 3 5 -5 10 -8 5 -19 10 -25 10 -5
0 -3 -5 5 -10z"/>
<path d="M4440 2010 c19 -11 40 -19 45 -19 6 0 -6 8 -25 19 -19 11 -39 19 -45
19 -5 0 6 -8 25 -19z"/>
<path d="M4520 1976 c0 -3 9 -10 20 -16 11 -6 20 -8 20 -6 0 3 -9 10 -20 16
-11 6 -20 8 -20 6z"/>
<path d="M2584 1924 c-18 -14 -18 -15 4 -4 12 6 22 13 22 15 0 8 -5 6 -26 -11z"/>
<path d="M4590 1936 c0 -2 8 -10 18 -17 15 -13 16 -12 3 4 -13 16 -21 21 -21
13z"/>
<path d="M1373 1903 c9 -2 23 -2 30 0 6 3 -1 5 -18 5 -16 0 -22 -2 -12 -5z"/>
<path d="M2507 1876 c-59 -41 -73 -55 -29 -30 33 19 91 63 82 63 -3 0 -27 -15
-53 -33z"/>
<path d="M4640 1895 c14 -17 80 -59 84 -54 2 2 -19 19 -47 37 -27 18 -44 26
-37 17z"/>
<path d="M1428 1893 c7 -3 16 -2 19 1 4 3 -2 6 -13 5 -11 0 -14 -3 -6 -6z"/>
<path d="M1475 1878 c11 -6 27 -16 35 -22 9 -6 5 -1 -8 12 -13 12 -28 22 -35
22 -7 0 -3 -6 8 -12z"/>
<path d="M1450 1860 c0 -5 5 -10 11 -10 5 0 7 5 4 10 -3 6 -8 10 -11 10 -2 0
-4 -4 -4 -10z"/>
<path d="M389 1858 c-14 -41 2 -128 23 -128 5 0 6 -5 2 -12 -4 -7 -3 -8 4 -4
15 9 15 9 -6 34 -14 16 -18 34 -16 67 2 25 1 45 -1 45 -3 0 -5 -1 -6 -2z"/>
<path d="M935 1850 c-3 -5 -3 -14 0 -20 3 -5 1 -10 -4 -10 -6 0 -11 -8 -11
-17 1 -16 2 -15 12 2 17 29 20 72 3 45z"/>
<path d="M1227 1820 c-15 -16 -23 -30 -19 -30 5 0 18 14 30 30 13 17 21 30 19
30 -2 0 -16 -13 -30 -30z"/>
<path d="M1323 1838 c-19 -25 -24 -66 -8 -72 8 -3 15 -13 15 -23 -1 -17 -2
-16 -15 1 -8 11 -29 21 -48 22 -32 3 -33 1 -35 -35 -2 -24 3 -43 13 -51 18
-15 20 -35 3 -23 -16 10 -88 11 -88 1 0 -5 4 -8 10 -8 6 0 6 -9 0 -25 -5 -14
-7 -25 -5 -25 3 0 10 11 14 24 9 22 51 44 51 25 0 -5 -4 -9 -10 -9 -5 0 -10
-5 -10 -12 0 -9 3 -9 12 0 18 18 38 15 58 -10 18 -23 11 -48 -13 -48 -7 0 -7
4 1 12 18 18 15 24 -18 26 -28 2 -30 0 -30 -34 0 -28 -3 -35 -15 -30 -8 3 -21
9 -29 12 -9 3 -17 -3 -21 -16 -6 -18 -12 -21 -36 -16 l-29 5 1 -52 c1 -29 6
-61 11 -71 9 -16 7 -18 -7 -13 -9 4 -22 7 -29 7 -7 0 -19 11 -26 25 -12 22
-11 27 5 45 10 11 15 23 12 26 -3 4 -1 16 5 28 10 19 10 20 -5 7 -10 -7 -17
-21 -17 -31 0 -10 -6 -23 -14 -30 -8 -6 -13 -17 -10 -25 3 -7 -19 -37 -48 -66
-29 -30 -45 -48 -36 -41 28 22 35 -8 7 -31 -16 -13 -20 -21 -11 -24 6 -3 12
-13 12 -24 0 -10 6 -19 13 -19 25 -1 -36 -40 -62 -40 -31 0 -76 -52 -67 -75 3
-8 1 -17 -4 -20 -13 -8 -13 -25 0 -25 5 0 12 12 16 28 12 56 23 72 50 72 l26
0 -26 -31 c-14 -17 -26 -34 -26 -39 0 -16 31 -40 51 -40 11 0 19 -7 19 -16 0
-9 6 -14 13 -11 6 2 21 1 32 -3 11 -4 25 -4 30 -1 17 12 95 32 104 27 7 -5 8
-83 1 -111 -9 -37 19 -47 58 -19 23 16 62 11 62 -7 0 -6 -13 -18 -30 -27 -21
-12 -28 -22 -24 -34 4 -14 -1 -18 -24 -18 -16 0 -35 -6 -41 -13 -6 -8 -25 -14
-42 -15 -23 -1 -33 4 -36 19 -4 16 -8 17 -14 7 -13 -21 -28 3 -22 35 3 15 10
27 16 27 11 0 -33 43 -69 67 -35 23 -29 4 9 -28 17 -15 30 -29 27 -32 -3 -3
-23 -7 -45 -9 -32 -2 -43 -9 -54 -30 -12 -25 -19 -28 -66 -28 -52 0 -53 0 -59
34 -4 19 -13 37 -22 40 -8 3 -12 10 -9 16 3 5 -1 10 -9 10 -18 0 -22 35 -5 45
17 11 61 -44 54 -68 -2 -12 -2 -16 1 -9 7 14 58 16 83 3 25 -14 26 34 1 59
-26 26 -25 32 8 52 l27 17 -31 -1 c-29 -1 -32 -4 -30 -32 2 -17 6 -39 10 -48
7 -15 3 -18 -22 -18 -23 0 -38 9 -61 37 l-31 38 -20 -24 c-26 -30 -25 -39 5
-83 14 -20 25 -45 25 -55 0 -32 22 -43 82 -43 51 0 62 4 84 27 13 14 35 28 48
29 20 2 24 -2 23 -22 -2 -22 5 -27 52 -44 57 -19 86 -16 110 14 7 9 26 16 42
16 18 0 29 5 29 14 0 7 9 25 20 39 24 30 26 57 4 57 -10 0 -14 6 -10 15 3 8 1
15 -4 15 -6 0 -10 -4 -10 -10 0 -5 -9 -10 -20 -10 -11 0 -23 -6 -26 -14 -7
-17 -34 -10 -34 9 0 7 7 18 15 25 11 9 12 16 2 31 -10 16 -9 21 2 29 12 7 12
11 2 23 -9 12 -9 16 1 21 9 4 9 5 -2 5 -46 -3 -56 2 -68 35 -7 18 -10 40 -8
47 2 8 7 26 10 42 4 15 11 27 17 27 6 0 20 12 31 26 14 17 24 22 30 16 14 -14
0 -35 -18 -28 -8 3 -14 1 -14 -4 0 -6 5 -10 10 -10 19 0 10 -21 -15 -32 -14
-6 -25 -16 -25 -21 0 -5 7 -3 16 4 15 12 16 11 10 -9 -3 -12 -8 -31 -11 -41
-8 -26 27 -46 54 -31 28 15 35 12 20 -7 -12 -15 -12 -16 5 -10 11 5 29 1 44
-9 24 -16 26 -15 41 5 20 27 34 17 19 -13 -6 -11 -14 -28 -18 -36 -4 -8 -27
-20 -51 -26 -32 -8 -45 -16 -46 -30 -2 -16 -1 -16 3 -1 3 10 15 17 30 17 37 0
84 28 84 50 0 10 4 21 8 24 5 3 8 23 8 46 -1 33 -6 43 -26 53 -26 13 -37 64
-13 60 7 -2 10 4 7 12 -16 41 -51 -13 -46 -71 2 -16 -7 -25 -41 -38 -66 -25
-80 -20 -58 22 5 9 12 25 15 35 3 9 15 17 26 17 21 0 60 52 60 81 0 18 47 42
71 37 7 -2 18 7 23 19 6 12 18 24 27 26 12 3 16 -3 17 -28 2 -41 -16 -57 -67
-58 -35 -2 -38 -4 -26 -17 12 -11 17 -11 27 -2 14 14 78 16 78 3 0 -14 -28
-21 -33 -8 -2 7 -8 8 -13 3 -5 -5 -4 -10 2 -13 23 -8 3 -43 -25 -43 -44 0 -53
-15 -10 -16 34 -1 42 2 49 22 5 13 19 33 31 45 16 16 18 23 9 29 -8 5 -10 18
-6 36 16 65 14 69 -31 70 -38 1 -42 -1 -47 -30 -5 -24 -9 -28 -16 -16 -8 12
-11 12 -28 -3 -26 -24 -35 -21 -51 16 -8 17 -21 37 -29 43 -12 9 -13 17 -3 46
7 20 19 39 27 42 24 9 54 7 54 -4 0 -5 -6 -7 -13 -4 -18 7 -16 -37 3 -64 13
-18 22 -20 62 -15 29 3 45 10 41 16 -3 5 2 16 12 23 14 10 15 18 7 41 -9 25
-11 26 -11 6 -1 -29 -30 -57 -61 -61 -30 -3 -41 15 -28 44 15 32 3 57 -22 49
-33 -11 -22 12 13 26 17 7 36 15 41 17 5 3 6 -7 2 -22 -4 -15 -3 -32 1 -39 4
-7 12 7 18 33 9 36 16 46 34 48 29 5 43 -15 29 -41 -7 -15 -7 -18 2 -12 7 4
17 1 22 -6 7 -10 8 -8 5 9 -4 18 -1 22 19 22 13 0 24 -5 24 -11 0 -5 5 -7 10
-4 6 3 10 11 10 16 0 6 -4 7 -10 4 -5 -3 -10 -2 -10 4 0 5 5 13 10 16 6 3 10
11 10 17 0 6 -7 5 -17 -3 -13 -11 -17 -11 -20 -1 -3 6 -9 12 -14 12 -4 0 -6
-7 -3 -15 4 -8 1 -15 -5 -15 -6 0 -11 7 -11 15 0 8 -6 15 -12 16 -7 0 -3 4 10
9 12 5 22 18 22 28 0 42 39 35 41 -7 1 -17 3 -20 6 -8 2 9 9 17 14 17 18 0 9
17 -16 28 -14 6 -25 18 -25 26 0 9 -10 20 -22 26 -22 10 -22 10 -4 -4 23 -19
15 -32 -24 -40 -18 -3 -29 -10 -25 -16 4 -7 12 -7 25 0 27 15 32 12 20 -10 -6
-11 -17 -20 -26 -20 -8 0 -17 -7 -20 -15 -8 -21 -27 -19 -48 4 -11 12 -15 25
-10 33 5 7 7 21 6 31 -2 9 2 17 7 17 6 0 20 9 32 21 12 12 38 23 59 26 32 5
38 2 43 -16 5 -21 27 -30 27 -11 0 6 -4 10 -9 10 -5 0 -12 14 -16 31 -6 28 -8
29 -21 12 -11 -14 -13 -14 -9 -2 6 17 -11 36 -35 37 -8 1 -24 2 -35 4 -17 3
-20 -2 -18 -36 3 -37 2 -38 -16 -22 -19 17 -18 48 2 74 5 6 7 12 4 12 -2 0 -9
-6 -14 -12z m57 -48 c0 -5 7 -7 15 -4 11 5 13 2 9 -10 -9 -22 -31 -20 -37 4
-3 11 -1 20 4 20 5 0 9 -4 9 -10z m-80 -72 c11 -21 12 -29 1 -41 -11 -14 -14
-14 -32 4 -19 19 -25 50 -12 63 11 11 27 1 43 -26z m-50 -149 c0 -5 -4 -9 -10
-9 -5 0 -10 7 -10 16 0 8 5 12 10 9 6 -3 10 -10 10 -16z m-50 -56 c0 -3 -9
-17 -19 -32 -11 -15 -23 -39 -26 -53 -5 -19 -11 -25 -23 -21 -25 10 -30 21
-22 56 5 25 11 32 28 31 13 0 24 7 27 17 5 15 35 17 35 2z m-162 -122 c9 -6
30 -12 45 -16 32 -7 27 -25 -8 -25 -28 0 -67 -44 -58 -67 4 -11 9 -7 18 14 10
23 21 31 49 36 37 6 66 27 66 47 0 23 19 -1 25 -33 4 -17 11 -34 15 -37 20
-13 8 -75 -16 -84 -17 -6 -19 15 -3 31 6 6 8 20 5 31 -9 28 -51 17 -77 -20
-15 -21 -27 -27 -42 -23 -12 2 -17 2 -10 -1 7 -3 10 -20 7 -46 -3 -23 0 -54 7
-70 10 -24 9 -32 -3 -44 -23 -24 -51 -7 -44 27 4 19 0 34 -12 45 -12 13 -13
19 -4 22 23 7 12 41 -18 57 -30 16 -42 56 -20 70 6 3 10 15 10 26 0 10 10 30
22 44 25 29 23 28 46 16z m-48 -189 c0 -4 -5 -13 -11 -19 -8 -8 -8 -17 1 -33
6 -12 10 -30 7 -40 -2 -9 0 -25 5 -34 7 -13 4 -16 -16 -16 -14 0 -28 5 -31 10
-3 6 -15 10 -26 10 -11 0 -22 7 -26 16 -7 19 16 64 37 72 8 3 21 14 28 24 13
18 32 24 32 10z m300 -57 c0 -9 -9 -15 -25 -15 -16 0 -25 6 -25 15 0 9 9 15
25 15 16 0 25 -6 25 -15z m-60 -15 c0 -5 7 -10 15 -10 8 0 15 -4 15 -10 0 -14
-23 -13 -38 2 -15 15 -16 28 -2 28 6 0 10 -4 10 -10z"/>
<path d="M1050 1279 c0 -5 5 -7 10 -4 6 3 10 8 10 11 0 2 -4 4 -10 4 -5 0 -10
-5 -10 -11z"/>
<path d="M812 1812 c1 -18 6 -32 10 -32 5 0 5 12 2 28 -10 39 -15 41 -12 4z"/>
<path d="M2405 1804 l-30 -26 33 22 c17 12 32 23 32 26 0 7 -4 5 -35 -22z"/>
<path d="M1260 1799 c0 -5 5 -7 10 -4 6 3 10 8 10 11 0 2 -4 4 -10 4 -5 0 -10
-5 -10 -11z"/>
<path d="M1795 1790 c-4 -6 -10 -8 -14 -6 -10 6 -51 -22 -51 -35 0 -5 3 -9 8
-9 9 1 79 59 70 60 -4 0 -10 -5 -13 -10z"/>
<path d="M931 1771 c-1 -7 10 -26 24 -43 14 -16 25 -39 25 -51 0 -20 2 -20 25
8 13 17 24 33 25 36 0 6 -45 19 -74 23 -5 1 -12 10 -17 21 -4 11 -8 14 -8 6z
m78 -57 c14 -12 -19 -1 -35 12 -18 14 -18 14 6 3 14 -6 27 -13 29 -15z"/>
<path d="M1174 1758 c-44 -51 -57 -68 -52 -68 3 0 22 20 42 45 38 46 45 63 10
23z"/>
<path d="M2330 1747 c-42 -37 -100 -111 -100 -125 0 -5 -7 -15 -15 -22 -8 -7
-15 -22 -15 -33 0 -11 -8 -29 -17 -40 -18 -19 -17 -19 5 -6 14 9 22 24 22 41
0 16 4 28 9 28 5 0 13 10 17 23 8 27 57 90 104 134 19 18 33 32 30 32 -3 0
-21 -14 -40 -32z"/>
<path d="M425 1677 c5 -18 2 -28 -12 -36 -10 -6 -13 -11 -7 -11 27 0 46 51 24
65 -7 4 -9 -2 -5 -18z"/>
<path d="M1071 1635 c-29 -33 -36 -45 -28 -45 2 0 18 18 36 40 40 49 34 53 -8
5z"/>
<path d="M585 1620 c-27 -7 -28 -8 -5 -8 14 0 34 3 45 8 25 11 2 11 -40 0z"/>
<path d="M1525 1590 c-4 -17 -5 -34 -2 -36 2 -3 7 10 11 27 3 18 4 34 2 36 -2
3 -7 -10 -11 -27z"/>
<path d="M1090 1600 c0 -5 5 -10 11 -10 5 0 7 5 4 10 -3 6 -8 10 -11 10 -2 0
-4 -4 -4 -10z"/>
<path d="M971 1513 c-29 -38 -36 -50 -16 -28 39 42 79 95 72 95 -2 0 -27 -30
-56 -67z"/>
<path d="M1125 1560 c-3 -5 -1 -10 4 -10 6 0 11 5 11 10 0 6 -2 10 -4 10 -3 0
-8 -4 -11 -10z"/>
<path d="M1451 1504 c-12 -27 -11 -28 4 -12 10 9 16 21 13 28 -2 7 -10 -1 -17
-16z"/>
<path d="M1421 1495 c-1 -11 -8 -29 -16 -39 -8 -11 -15 -27 -15 -35 0 -9 9 -1
21 18 11 18 18 43 16 55 -4 20 -4 20 -6 1z"/>
<path d="M2161 1480 c0 -15 -6 -31 -13 -38 -9 -9 -9 -12 0 -12 16 0 25 23 19
52 -4 22 -4 22 -6 -2z"/>
<path d="M350 1477 c0 -28 20 -68 30 -62 5 3 7 0 4 -8 -6 -17 48 -39 144 -58
67 -13 108 -46 99 -81 -7 -27 4 -21 36 18 17 19 23 34 16 34 -7 0 -21 8 -32
18 -12 9 -17 11 -12 3 5 -9 3 -12 -6 -9 -8 3 -14 10 -14 16 0 5 -4 14 -9 19
-5 4 -6 3 -2 -4 4 -8 -1 -11 -14 -10 -22 1 -28 17 -7 17 6 0 4 5 -6 11 -10 6
-25 8 -35 6 -12 -3 -10 -5 6 -6 13 0 21 -5 18 -10 -7 -10 -46 -3 -46 8 0 4
-16 5 -36 3 -20 -3 -39 -1 -43 4 -3 5 -15 14 -26 20 -11 6 -27 25 -37 43 -21
41 -28 49 -28 28z m310 -167 c0 -5 -7 -7 -15 -4 -8 4 -12 10 -9 15 6 11 24 2
24 -11z"/>
<path d="M545 1466 c11 -9 25 -14 32 -12 7 3 13 2 13 -2 0 -14 59 -31 67 -20
3 7 1 8 -5 4 -7 -4 -12 -3 -12 2 0 9 -38 24 -71 27 -9 1 -23 5 -30 9 -8 4 -5
0 6 -8z"/>
<path d="M1290 1470 c0 -5 5 -10 10 -10 6 0 10 5 10 10 0 6 -4 10 -10 10 -5 0
-10 -4 -10 -10z"/>
<path d="M894 1418 l-19 -23 23 19 c21 18 27 26 19 26 -2 0 -12 -10 -23 -22z"/>
<path d="M468 1393 c6 -2 18 -2 25 0 6 3 1 5 -13 5 -14 0 -19 -2 -12 -5z"/>
<path d="M854 1368 c-44 -51 -57 -68 -52 -68 3 0 22 20 42 45 38 46 45 63 10
23z"/>
<path d="M1270 1379 c0 -5 5 -7 10 -4 6 3 10 8 10 11 0 2 -4 4 -10 4 -5 0 -10
-5 -10 -11z"/>
<path d="M1280 1310 c0 -5 5 -10 10 -10 6 0 10 5 10 10 0 6 -4 10 -10 10 -5 0
-10 -4 -10 -10z"/>
<path d="M774 1268 l-19 -23 23 19 c21 18 27 26 19 26 -2 0 -12 -10 -23 -22z"/>
<path d="M1710 1260 c-13 -8 -12 -10 3 -10 9 0 17 5 17 10 0 12 -1 12 -20 0z"/>
<path d="M734 1218 l-19 -23 23 19 c21 18 27 26 19 26 -2 0 -12 -10 -23 -22z"/>
<path d="M1699 1206 c14 -14 29 -26 34 -26 13 0 -12 29 -37 42 -19 10 -18 8 3
-16z"/>
<path d="M699 1173 c-13 -16 -12 -17 4 -4 9 7 17 15 17 17 0 8 -8 3 -21 -13z"/>
<path d="M1360 1179 c0 -5 5 -7 10 -4 6 3 10 8 10 11 0 2 -4 4 -10 4 -5 0 -10
-5 -10 -11z"/>
<path d="M673 1138 c-15 -20 -25 -38 -20 -38 3 0 12 11 21 25 17 26 16 35 -1
13z"/>
<path d="M1401 1119 c-6 -18 -11 -37 -10 -43 0 -6 7 7 15 28 8 22 12 41 10 43
-2 2 -9 -10 -15 -28z"/>
<path d="M1612 1085 c-11 -13 -10 -15 5 -15 9 0 30 -12 45 -27 20 -19 31 -24
39 -16 7 7 -1 20 -26 42 -40 35 -45 36 -63 16z m69 -31 c23 -25 23 -26 2 -13
-13 7 -25 19 -27 26 -8 19 -2 16 25 -13z"/>
<path d="M1175 1030 c3 -5 8 -10 11 -10 2 0 4 5 4 10 0 6 -5 10 -11 10 -5 0
-7 -4 -4 -10z"/>
<path d="M596 1013 c-6 -14 -5 -15 5 -6 7 7 10 15 7 18 -3 3 -9 -2 -12 -12z"/>
<path d="M1366 1015 c-9 -26 -7 -32 5 -12 6 10 9 21 6 23 -2 3 -7 -2 -11 -11z"/>
<path d="M1720 1020 c0 -5 11 -10 24 -10 14 0 28 5 31 10 4 6 -7 10 -24 10
-17 0 -31 -4 -31 -10z"/>
<path d="M1074 995 c-4 -8 -12 -15 -20 -15 -8 0 -15 -3 -15 -7 -6 -33 -5 -53
2 -53 4 0 9 10 11 23 2 12 10 22 18 22 9 0 15 10 16 23 1 25 -4 29 -12 7z"/>
<path d="M576 975 c-9 -26 -7 -32 5 -12 6 10 9 21 6 23 -2 3 -7 -2 -11 -11z"/>
<path d="M1316 873 c-6 -14 -5 -15 5 -6 7 7 10 15 7 18 -3 3 -9 -2 -12 -12z"/>
<path d="M570 833 c0 -6 8 -17 18 -24 16 -13 16 -13 2 6 -8 11 -16 22 -17 24
-2 2 -3 0 -3 -6z"/>
<path d="M1269 794 c-13 -15 -37 -35 -54 -45 -16 -11 -24 -19 -17 -19 13 0
113 89 101 90 -3 0 -16 -12 -30 -26z"/>
<path d="M885 800 c-3 -5 -1 -10 4 -10 6 0 11 5 11 10 0 6 -2 10 -4 10 -3 0
-8 -4 -11 -10z"/>
<path d="M1195 800 c3 -5 8 -10 11 -10 2 0 4 5 4 10 0 6 -5 10 -11 10 -5 0 -7
-4 -4 -10z"/>
<path d="M1440 775 c7 -8 16 -12 21 -9 5 3 6 -2 3 -10 -3 -9 -1 -16 6 -16 6 0
9 -4 5 -10 -6 -9 20 -80 29 -80 8 0 3 24 -6 30 -4 3 -10 24 -13 45 -2 22 -12
46 -22 53 -23 17 -38 15 -23 -3z"/>
<path d="M657 749 c7 -7 15 -10 18 -7 3 3 -2 9 -12 12 -14 6 -15 5 -6 -5z"/>
<path d="M725 725 c17 -8 37 -14 45 -14 8 0 -1 7 -20 14 -46 18 -64 17 -25 0z"/>
<path d="M1145 720 c-13 -6 -15 -9 -5 -9 8 0 22 4 30 9 18 12 2 12 -25 0z"/>
<path d="M4700 669 c0 -5 5 -7 10 -4 6 3 10 8 10 11 0 2 -4 4 -10 4 -5 0 -10
-5 -10 -11z"/>
<path d="M4490 510 c0 -5 5 -10 10 -10 6 0 10 5 10 10 0 6 -4 10 -10 10 -5 0
-10 -4 -10 -10z"/>
<path d="M1057 352 c-17 -19 -17 -20 5 -25 12 -4 26 -1 31 6 6 8 7 6 3 -5 -6
-19 41 -98 58 -98 8 0 8 3 0 8 -16 10 -36 51 -30 61 3 4 -7 22 -22 40 -27 32
-27 33 -45 13z"/>
<path d="M1320 302 c0 -20 22 -29 46 -18 34 16 30 26 -11 26 -19 0 -35 -4 -35
-8z"/>
<path d="M1337 232 c1 -8 3 -23 4 -35 0 -21 1 -21 9 -2 12 27 12 47 1 41 -5
-4 -11 -3 -14 1 -2 5 -2 2 0 -5z"/>
<path d="M1044 93 c2 -10 11 -19 22 -20 10 -2 13 0 7 3 -7 3 -13 12 -13 20 0
8 -4 14 -9 14 -5 0 -8 -8 -7 -17z"/>
</g>
</svg>
